{
.appVersion = "1352";
DisplayStrings = (
A
);
copyright = "Copyright 2017 The Smooch Project Authors (https://github.com/googlefonts/smooch";
customParameters = (
{
name = licenseURL;
value = "https://scripts.sil.org/OFL";
},
{
name = license;
value = "This Font Software is licensed under the SIL Open Font License, Version 1.1. This license is available with a FAQ at: https://scripts.sil.org/OFL";
},
{
name = vendorID;
value = GOOG;
},
{
name = fsType;
value = (
);
},
{
name = glyphOrder;
value = (
.notdef,
CR,
.null,
space,
nbspace
);
},
{
name = "Use Typo Metrics";
value = 1;
},
{
name = Axes;
value = (
{
Name = Weight;
Tag = wght;
}
);
}
);
date = "2021-10-25 22:45:42 +0000";
designer = "Robert E. Leuschke";
designerURL = www.typesetit.com;
disablesAutomaticAlignment = 1;
disablesNiceNames = 1;
familyName = Smooch;
featurePrefixes = (
{
automatic = 1;
code = "languagesystem DFLT dflt;\012\012languagesystem latn dflt;\012languagesystem latn AZE;\012languagesystem latn CRT;\012languagesystem latn KAZ;\012languagesystem latn TAT;\012languagesystem latn TRK;\012languagesystem latn ROM;\012languagesystem latn MOL;\012languagesystem latn CAT;\012";
name = Languagesystems;
}
);
features = (
{
automatic = 1;
code = "feature locl;\012feature sups;\012feature frac;\012feature ordn;\012feature fina;\012feature ornm;\012feature swsh;\012feature salt;\012feature ss01;\012feature ss02;\012feature ss03;\012feature ss04;\012feature ss05;\012";
name = aalt;
},
{
code = "script latn;\012sub f i by fi;\012sub f l by fl;\012sub o o by o_o;\012sub r s by r_s;\012sub t t by tt;\012";
name = liga;
},
{
automatic = 1;

glyphs = (
{
glyphname = .notdef;
lastChange = "2021-10-25 22:52:00 +0000";
layers = (
{
layerId = "B9003040-D3EC-4996-96A5-33D5E21FF9E0";
paths = (
{
closed = 1;
nodes = (
"469 0 LINE",
"478 8 LINE",
"478 621 LINE",
"469 630 LINE",
"48 630 LINE",
"40 620 LINE",
"40 9 LINE",
"48 0 LINE"
);
},
{
closed = 1;
nodes = (
"144 150 LINE",
"234 316 LINE",
"144 479 LINE",
"163 514 LINE",
"253 350 LINE",
"344 514 LINE",
"363 479 LINE",
"273 314 LINE",
"363 150 LINE",
"344 116 LINE",
"253 279 LINE",
"163 116 LINE"
);
},
{
closed = 1;
nodes = (
"57 16 LINE",
"57 613 LINE",
"461 613 LINE",
"461 16 LINE"
);
},
{
closed = 1;
nodes = (
"427 49 LINE",
"427 577 LINE",
"92 577 LINE",
"92 49 LINE"
);
}
);
width = 518;
}
);
note = .notdef;
},
{
glyphname = A;
lastChange = "2021-10-25 22:52:02 +0000";
layers = (
{
layerId = "B9003040-D3EC-4996-96A5-33D5E21FF9E0";
paths = (
{
closed = 1;
nodes = (
"196 -42 OFFCURVE",
"233 -34 OFFCURVE",
"252 -28 CURVE SMOOTH",
"356 5 OFFCURVE",
"451 62 OFFCURVE",
"538 137 CURVE",
"504 104 OFFCURVE",
"467 71 OFFCURVE",
"428 44 CURVE",
"483 80 OFFCURVE",
"541 127 OFFCURVE",
"599 190 CURVE SMOOTH",
"605 196 OFFCURVE",
"613 206 OFFCURVE",
"612 206 CURVE SMOOTH",
"611 206 OFFCURVE",
"611 206 OFFCURVE",
"609 204 CURVE SMOOTH",
"586 181 OFFCURVE",
"563 158 OFFCURVE",
"538 137 CURVE",
"582 178 OFFCURVE",
"621 220 OFFCURVE",
"654 255 CURVE",
"693 251 OFFCURVE",
"741 244 OFFCURVE",
"750 243 CURVE",
"749 241 OFFCURVE",
"731 192 OFFCURVE",
"724 179 CURVE",
"725 185 OFFCURVE",
"735 216 OFFCURVE",
"739 228 CURVE",
"711 165 OFFCURVE",
"701 113 OFFCURVE",
"701 74 CURVE SMOOTH",
"701 27 OFFCURVE",
"720 -22 OFFCURVE",
"760 -23 CURVE SMOOTH",
"769 -23 OFFCURVE",
"772 -21 OFFCURVE",
"772 -16 CURVE SMOOTH",
"772 -5 OFFCURVE",
"756 16 OFFCURVE",
"755 34 CURVE SMOOTH",
"754 60 OFFCURVE",
"753 105 OFFCURVE",
"819 228 CURVE",
"819 215 OFFCURVE",
"801 185 OFFCURVE",
"795 167 CURVE",
"805 184 OFFCURVE",
"821 219 OFFCURVE",
"826 225 CURVE",
"844 223 OFFCURVE",
"881 230 OFFCURVE",
"869 238 CURVE SMOOTH",
"860 244 OFFCURVE",
"859 244 OFFCURVE",
"831 253 CURVE",
"852 288 OFFCURVE",
"1047 535 OFFCURVE",
"1048 552 CURVE SMOOTH",
"1050 584 OFFCURVE",
"1022 614 OFFCURVE",
"992 614 CURVE SMOOTH",
"986 614 OFFCURVE",
"979 613 OFFCURVE",
"973 610 CURVE",
"967 614 OFFCURVE",
"959 617 OFFCURVE",
"951 620 CURVE",
"962 620 OFFCURVE",
"959 627 OFFCURVE",
"949 629 CURVE SMOOTH",
"878 643 OFFCURVE",
"811 650 OFFCURVE",
"749 650 CURVE SMOOTH",
"657 650 OFFCURVE",
"576 635 OFFCURVE",
"504 607 CURVE SMOOTH",
"530 617 OFFCURVE",
"556 623 OFFCURVE",
"579 629 CURVE SMOOTH",
"623 638 OFFCURVE",
"689 645 OFFCURVE",
"757 645 CURVE SMOOTH",
"827 645 OFFCURVE",
"900 638 OFFCURVE",
"951 620 CURVE",
"948 620 OFFCURVE",
"945 620 OFFCURVE",
"940 621 CURVE SMOOTH",
"866 637 OFFCURVE",
"801 644 OFFCURVE",
"743 644 CURVE SMOOTH",
"581 644 OFFCURVE",
"475 590 OFFCURVE",
"386 541 CURVE",
"388 543 LINE",
"383 540 OFFCURVE",
"379 537 OFFCURVE",
"379 537 CURVE",
"382 539 LINE",
"386 541 LINE",
"368 524 OFFCURVE",
"355 505 OFFCURVE",
"348 482 CURVE SMOOTH",
"345 473 OFFCURVE",
"344 465 OFFCURVE",
"344 457 CURVE SMOOTH",
"344 423 OFFCURVE",
"368 404 OFFCURVE",
"384 404 CURVE SMOOTH",
"392 404 OFFCURVE",
"398 408 OFFCURVE",
"398 418 CURVE SMOOTH",
"398 422 OFFCURVE",
"397 427 OFFCURVE",
"394 433 CURVE",
"413 504 OFFCURVE",
"590 564 OFFCURVE",
"622 572 CURVE SMOOTH",
"696 588 OFFCURVE",
"791 605 OFFCURVE",
"864 605 CURVE SMOOTH",
"894 605 OFFCURVE",
"920 603 OFFCURVE",
"939 596 CURVE",
"845 522 LINE",
"855 522 OFFCURVE",
"909 566 OFFCURVE",
"924 576 CURVE",
"886 545 OFFCURVE",
"805 474 OFFCURVE",
"604 285 CURVE",
"553 284 OFFCURVE",
"524 272 OFFCURVE",
"524 263 CURVE SMOOTH",
"524 256 OFFCURVE",
"541 251 OFFCURVE",
"575 253 CURVE",
"496 177 OFFCURVE",
"286 37 OFFCURVE",
"167 37 CURVE SMOOTH",
"129 37 OFFCURVE",
"87 51 OFFCURVE",
"87 95 CURVE SMOOTH",
"87 173 OFFCURVE",
"311 275 OFFCURVE",
"401 304 CURVE",
"300 276 OFFCURVE",
"275 268 OFFCURVE",
"235 250 CURVE",
"281 277 OFFCURVE",
"355 301 OFFCURVE",
"430 314 CURVE SMOOTH",
"456 319 OFFCURVE",
"488 335 OFFCURVE",
"488 345 CURVE SMOOTH",
"488 350 OFFCURVE",
"479 354 OFFCURVE",
"457 354 CURVE SMOOTH",
"439 354 OFFCURVE",
"412 351 OFFCURVE",
"373 345 CURVE SMOOTH",
"205 317 OFFCURVE",
"49 210 OFFCURVE",
"49 90 CURVE SMOOTH",
"49 4 OFFCURVE",
"130 -42 OFFCURVE",
"193 -43 CURVE"
);
},
{
closed = 1;
nodes = (
"266 -43 OFFCURVE",
"334 -13 OFFCURVE",
"400 26 CURVE SMOOTH",
"329 -16 OFFCURVE",
"259 -35 OFFCURVE",
"195 -43 CURVE"
);
},
{
closed = 1;
nodes = (
"414 35 OFFCURVE",
"421 39 OFFCURVE",
"428 44 CURVE",
"407 31 LINE SMOOTH"
);
},
{
closed = 1;
nodes = (
"740 230 OFFCURVE",
"741 231 OFFCURVE",
"742 233 CURVE",
"742 233 OFFCURVE",
"741 232 OFFCURVE",
"740 229 CURVE"
);
},
{
closed = 1;
nodes = (
"397 549 LINE SMOOTH",
"424 569 OFFCURVE",
"453 586 OFFCURVE",
"485 600 CURVE",
"449 585 OFFCURVE",
"414 567 OFFCURVE",
"388 543 CURVE"
);
},
{
closed = 1;
nodes = (
"750 273 OFFCURVE",
"687 280 OFFCURVE",
"672 280 CURVE",
"817 430 OFFCURVE",
"854 458 OFFCURVE",
"928 509 CURVE",
"881 449 OFFCURVE",
"798 338 OFFCURVE",
"766 271 CURVE"
);
}
);
width = 862;
}
);
note = A;
unicode = 0041;
},
{
glyphname = AE;
lastChange = "2021-10-25 22:52:02 +0000";
layers = (
{
layerId = "B9003040-D3EC-4996-96A5-33D5E21FF9E0";
paths = (
{
closed = 1;
nodes = (
"196 -42 OFFCURVE",
"233 -34 OFFCURVE",
"252 -28 CURVE SMOOTH",
"356 5 OFFCURVE",
"451 62 OFFCURVE",
"538 137 CURVE",
"501 102 OFFCURVE",
"461 66 OFFCURVE",
"419 38 CURVE",
"476 75 OFFCURVE",
"537 123 OFFCURVE",
"599 190 CURVE SMOOTH",
"605 196 OFFCURVE",
"613 206 OFFCURVE",
"612 206 CURVE SMOOTH",
"611 206 OFFCURVE",
"611 206 OFFCURVE",
"609 204 CURVE SMOOTH",
"586 181 OFFCURVE",
"563 158 OFFCURVE",
"538 137 CURVE",
"582 178 OFFCURVE",
"621 220 OFFCURVE",
"654 255 CURVE",
"693 251 OFFCURVE",
"741 244 OFFCURVE",
"750 243 CURVE",
"749 241 OFFCURVE",
"731 192 OFFCURVE",
"724 179 CURVE",
"725 185 OFFCURVE",
"735 216 OFFCURVE",
"739 228 CURVE",
"711 165 OFFCURVE",
"701 113 OFFCURVE",
"701 74 CURVE SMOOTH",
"701 27 OFFCURVE",
"720 -22 OFFCURVE",
"760 -23 CURVE SMOOTH",
"768 -24 OFFCURVE",
"771 -22 OFFCURVE",
"772 -18 CURVE",
"786 -24 OFFCURVE",
"802 -27 OFFCURVE",
"819 -27 CURVE SMOOTH",
"841 -27 OFFCURVE",
"867 -22 OFFCURVE",
"898 -14 CURVE SMOOTH",
"1051 27 OFFCURVE",
"1268 150 OFFCURVE",
"1360 235 CURVE SMOOTH",
"1383 256 OFFCURVE",
"1390 271 OFFCURVE",
"1380 271 CURVE SMOOTH",
"1376 271 OFFCURVE",
"1369 268 OFFCURVE",
"1359 263 CURVE SMOOTH",
"1332 248 OFFCURVE",
"1276 218 OFFCURVE",
"1211 186 CURVE",
"1268 217 OFFCURVE",
"1318 247 OFFCURVE",
"1330 258 CURVE",
"1296 240 OFFCURVE",
"1130 150 OFFCURVE",
"1106 138 CURVE SMOOTH",
"1093 131 LINE",
"1211 186 LINE",
"1101 127 LINE SMOOTH",
"1064 108 OFFCURVE",
"998 77 OFFCURVE",
"975 71 CURVE SMOOTH",
"970 70 OFFCURVE",
"1004 88 OFFCURVE",
"1023 97 CURVE SMOOTH",
"1030 100 OFFCURVE",
"1039 104 OFFCURVE",
"1048 109 CURVE",
"983 80 OFFCURVE",
"920 63 OFFCURVE",
"877 63 CURVE SMOOTH",
"859 63 OFFCURVE",
"845 66 OFFCURVE",
"836 73 CURVE",
"833 102 OFFCURVE",
"985 171 OFFCURVE",
"1077 196 CURVE SMOOTH",
"1089 199 OFFCURVE",
"1126 228 OFFCURVE",
"1126 243 CURVE SMOOTH",
"1126 246 OFFCURVE",
"1124 249 OFFCURVE",
"1119 250 CURVE SMOOTH",
"1055 269 OFFCURVE",
"957 293 OFFCURVE",
"902 324 CURVE SMOOTH",
"896 327 OFFCURVE",
"893 332 OFFCURVE",
"893 338 CURVE",
"955 420 LINE",
"978 439 OFFCURVE",
"1003 455 OFFCURVE",
"1026 464 CURVE SMOOTH",
"1178 529 OFFCURVE",
"1341 550 OFFCURVE",
"1454 550 CURVE SMOOTH",
"1482 550 OFFCURVE",
"1502 547 OFFCURVE",
"1502 536 CURVE SMOOTH",
"1502 526 OFFCURVE",
"1489 512 OFFCURVE",
"1458 488 CURVE SMOOTH",
"1389 436 OFFCURVE",
"1257 369 OFFCURVE",
"1181 363 CURVE SMOOTH",
"1168 362 OFFCURVE",
"1162 366 OFFCURVE",
"1162 372 CURVE SMOOTH",
"1162 389 OFFCURVE",
"1208 428 OFFCURVE",
"1219 438 CURVE SMOOTH",
"1254 467 OFFCURVE",
"1256 475 OFFCURVE",
"1248 475 CURVE SMOOTH",
"1246 475 OFFCURVE",
"1242 474 OFFCURVE",
"1239 473 CURVE SMOOTH",
"1175 452 OFFCURVE",
"1128 393 OFFCURVE",
"1119 380 CURVE SMOOTH",
"1116 376 OFFCURVE",
"1115 372 OFFCURVE",
"1115 367 CURVE SMOOTH",
"1115 340 OFFCURVE",
"1150 299 OFFCURVE",
"1158 293 CURVE",
"1220 290 OFFCURVE",
"1378 376 OFFCURVE",
"1427 418 CURVE",
"1471 410 OFFCURVE",
"1580 499 OFFCURVE",
"1590 545 CURVE SMOOTH",
"1593 562 OFFCURVE",
"1564 594 OFFCURVE",
"1560 589 CURVE SMOOTH",
"1555 582 OFFCURVE",
"1556 576 OFFCURVE",
"1550 567 CURVE SMOOTH",
"1545 558 OFFCURVE",
"1536 548 OFFCURVE",
"1530 545 CURVE",
"1536 554 OFFCURVE",
"1551 568 OFFCURVE",
"1551 592 CURVE SMOOTH",
"1551 602 OFFCURVE",
"1548 614 OFFCURVE",
"1542 627 CURVE",
"1521 636 OFFCURVE",
"1493 640 OFFCURVE",
"1459 640 CURVE SMOOTH",
"1372 640 OFFCURVE",
"1250 613 OFFCURVE",
"1134 575 CURVE SMOOTH",
"1104 565 OFFCURVE",
"1076 557 OFFCURVE",
"1047 548 CURVE",
"1048 550 OFFCURVE",
"1048 551 OFFCURVE",
"1048 552 CURVE SMOOTH",
"1050 584 OFFCURVE",
"1022 614 OFFCURVE",
"992 614 CURVE SMOOTH",
"986 614 OFFCURVE",
"979 613 OFFCURVE",
"973 610 CURVE",
"967 614 OFFCURVE",
"959 617 OFFCURVE",
"951 620 CURVE",
"962 620 OFFCURVE",
"959 627 OFFCURVE",
"949 629 CURVE SMOOTH",
"878 643 OFFCURVE",
"811 650 OFFCURVE",
"749 650 CURVE SMOOTH",
"658 650 OFFCURVE",
"576 635 OFFCURVE",
"504 607 CURVE SMOOTH",
"530 617 OFFCURVE",
"556 623 OFFCURVE",
"579 629 CURVE SMOOTH",
"623 638 OFFCURVE",
"689 645 OFFCURVE",
"757 645 CURVE SMOOTH",
"827 645 OFFCURVE",
"900 638 OFFCURVE",
"951 620 CURVE",
"948 620 OFFCURVE",
"945 620 OFFCURVE",
"940 621 CURVE SMOOTH",
"866 637 OFFCURVE",
"801 644 OFFCURVE",
"743 644 CURVE SMOOTH",
"581 644 OFFCURVE",
"475 590 OFFCURVE",
"386 541 CURVE",
"388 543 LINE",
"383 540 OFFCURVE",
"379 537 OFFCURVE",
"379 537 CURVE",
"382 539 LINE",
"386 541 LINE",
"368 524 OFFCURVE",
"355 505 OFFCURVE",
"348 482 CURVE SMOOTH",
"345 473 OFFCURVE",
"344 465 OFFCURVE",
"344 457 CURVE SMOOTH",
"344 423 OFFCURVE",
"368 404 OFFCURVE",
"384 404 CURVE SMOOTH",
"392 404 OFFCURVE",
"398 408 OFFCURVE",
"398 418 CURVE SMOOTH",
"398 422 OFFCURVE",
"397 427 OFFCURVE",
"394 433 CURVE",
"413 504 OFFCURVE",
"590 564 OFFCURVE",
"622 572 CURVE SMOOTH",
"697 588 OFFCURVE",
"793 605 OFFCURVE",
"866 605 CURVE SMOOTH",
"895 605 OFFCURVE",
"920 602 OFFCURVE",
"939 596 CURVE",
"845 522 LINE",
"855 522 OFFCURVE",
"909 566 OFFCURVE",
"924 576 CURVE",
"886 545 OFFCURVE",
"805 474 OFFCURVE",
"604 285 CURVE",
"553 284 OFFCURVE",
"524 272 OFFCURVE",
"524 263 CURVE SMOOTH",
"524 256 OFFCURVE",
"541 251 OFFCURVE",
"575 253 CURVE",
"496 177 OFFCURVE",
"286 37 OFFCURVE",
"167 37 CURVE SMOOTH",
"129 37 OFFCURVE",
"87 51 OFFCURVE",
"87 95 CURVE SMOOTH",
"87 173 OFFCURVE",
"311 275 OFFCURVE",
"401 304 CURVE",
"300 276 OFFCURVE",
"275 268 OFFCURVE",
"235 250 CURVE",
"281 277 OFFCURVE",
"355 301 OFFCURVE",
"430 314 CURVE SMOOTH",
"456 319 OFFCURVE",
"488 335 OFFCURVE",
"488 345 CURVE SMOOTH",
"488 350 OFFCURVE",
"479 354 OFFCURVE",
"457 354 CURVE SMOOTH",
"439 354 OFFCURVE",
"412 351 OFFCURVE",
"373 345 CURVE SMOOTH",
"205 317 OFFCURVE",
"49 210 OFFCURVE",
"49 90 CURVE SMOOTH",
"49 4 OFFCURVE",
"130 -42 OFFCURVE",
"193 -43 CURVE"
);
},
{
closed = 1;
nodes = (
"266 -43 OFFCURVE",
"334 -13 OFFCURVE",
"400 26 CURVE SMOOTH",
"329 -16 OFFCURVE",
"259 -35 OFFCURVE",
"195 -43 CURVE"
);
},
{
closed = 1;
nodes = (
"740 230 OFFCURVE",
"741 231 OFFCURVE",
"742 233 CURVE",
"742 233 OFFCURVE",
"741 232 OFFCURVE",
"740 229 CURVE"
);
},
{
closed = 1;
nodes = (
"788 157 LINE",
"810 170 OFFCURVE",
"835 182 OFFCURVE",
"860 189 CURVE",
"834 178 OFFCURVE",
"809 166 OFFCURVE",
"785 150 CURVE"
);
},
{
closed = 1;
nodes = (
"397 549 LINE SMOOTH",
"428 571 OFFCURVE",
"463 591 OFFCURVE",
"501 606 CURVE",
"460 590 OFFCURVE",
"418 570 OFFCURVE",
"388 543 CURVE"
);
},
{
closed = 1;
nodes = (
"802 189 OFFCURVE",
"815 216 OFFCURVE",
"831 247 CURVE SMOOTH",
"838 260 OFFCURVE",
"849 277 OFFCURVE",
"863 297 CURVE",
"873 254 OFFCURVE",
"937 240 OFFCURVE",
"975 235 CURVE",
"954 225 OFFCURVE",
"929 218 OFFCURVE",
"911 209 CURVE",
"880 202 OFFCURVE",
"836 189 OFFCURVE",
"792 166 CURVE"
);
},
{
closed = 1;
nodes = (
"895 202 OFFCURVE",
"915 208 OFFCURVE",
"933 214 CURVE SMOOTH",
"959 220 OFFCURVE",
"963 226 OFFCURVE",
"980 228 CURVE SMOOTH",
"985 229 OFFCURVE",
"997 229 OFFCURVE",
"1004 229 CURVE SMOOTH",
"1009 229 LINE",
"1009 229 OFFCURVE",
"1008 228 OFFCURVE",
"1005 228 CURVE SMOOTH",
"983 226 OFFCURVE",
"922 207 OFFCURVE",
"878 195 CURVE"
);
},
{
closed = 1;
nodes = (
"750 273 OFFCURVE",
"687 280 OFFCURVE",
"672 280 CURVE",
"817 430 OFFCURVE",
"854 458 OFFCURVE",
"928 509 CURVE",
"881 449 OFFCURVE",
"798 338 OFFCURVE",
"766 271 CURVE"
);
},
{
closed = 1;
nodes = (
"1063 116 OFFCURVE",
"1078 123 OFFCURVE",
"1093 131 CURVE",
"1075 123 OFFCURVE",
"1061 116 OFFCURVE",
"1048 109 CURVE"
);
},
{
closed = 1;
nodes = (
"1043 540 LINE",
"1053 543 LINE",
"1049 541 OFFCURVE",
"1045 540 OFFCURVE",
"1042 538 CURVE"
);
},
{
closed = 1;
nodes = (
"1092 555 OFFCURVE",
"1128 567 OFFCURVE",
"1157 575 CURVE SMOOTH",
"1284 612 OFFCURVE",
"1400 629 OFFCURVE",
"1474 627 CURVE SMOOTH",
"1481 627 OFFCURVE",
"1485 626 OFFCURVE",
"1485 624 CURVE SMOOTH",
"1485 622 OFFCURVE",
"1477 620 OFFCURVE",
"1458 620 CURVE SMOOTH",
"1372 620 OFFCURVE",
"1204 587 OFFCURVE",
"1065 544 CURVE"
);
}
);
width = 1296;
}
);
note = AE;
unicode = 00C6;
},
{
glyphname = B;
lastChange = "2021-10-25 22:52:02 +0000";
layers = (
{
layerId = "B9003040-D3EC-4996-96A5-33D5E21FF9E0";
paths = (
{
closed = 1;
nodes = (
"385 -27 OFFCURVE",
"558 69 OFFCURVE",
"571 136 CURVE SMOOTH",
"572 140 OFFCURVE",
"572 143 OFFCURVE",
"572 146 CURVE SMOOTH",
"572 201 OFFCURVE",
"484 231 OFFCURVE",
"436 231 CURVE",
"499 247 OFFCURVE",
"566 265 OFFCURVE",
"630 289 CURVE",
"613 280 OFFCURVE",
"597 274 OFFCURVE",
"588 271 CURVE SMOOTH",
"569 265 OFFCURVE",
"535 253 OFFCURVE",
"539 253 CURVE SMOOTH",
"562 255 OFFCURVE",
"653 291 OFFCURVE",
"688 310 CURVE SMOOTH",
"704 319 LINE",
"681 308 OFFCURVE",
"656 299 OFFCURVE",
"632 290 CURVE",
"692 321 LINE SMOOTH",
"715 333 OFFCURVE",
"839 416 OFFCURVE",
"867 440 CURVE",
"865 437 LINE",
"881 455 OFFCURVE",
"889 471 OFFCURVE",
"889 488 CURVE SMOOTH",
"889 501 OFFCURVE",
"884 515 OFFCURVE",
"872 531 CURVE",
"872 623 OFFCURVE",
"772 648 OFFCURVE",
"669 648 CURVE SMOOTH",
"657 648 OFFCURVE",
"644 648 OFFCURVE",
"632 647 CURVE SMOOTH",
"542 642 OFFCURVE",
"447 621 OFFCURVE",
"359 593 CURVE",
"475 629 OFFCURVE",
"585 641 OFFCURVE",
"674 640 CURVE SMOOTH",
"684 640 OFFCURVE",
"698 638 OFFCURVE",
"698 636 CURVE",
"698 636 OFFCURVE",
"694 635 OFFCURVE",
"684 635 CURVE SMOOTH",
"531 634 OFFCURVE",
"385 608 OFFCURVE",
"208 529 CURVE",
"247 550 OFFCURVE",
"290 570 OFFCURVE",
"336 585 CURVE SMOOTH",
"263 561 OFFCURVE",
"188 530 OFFCURVE",
"115 489 CURVE SMOOTH",
"108 485 OFFCURVE",
"98 478 OFFCURVE",
"101 478 CURVE",
"101 478 OFFCURVE",
"102 478 OFFCURVE",
"104 479 CURVE SMOOTH",
"140 498 OFFCURVE",
"174 514 OFFCURVE",
"208 529 CURVE",
"98 472 OFFCURVE",
"21 402 OFFCURVE",
"21 340 CURVE SMOOTH",
"21 303 OFFCURVE",
"47 273 OFFCURVE",
"69 256 CURVE SMOOTH",
"74 253 OFFCURVE",
"81 250 OFFCURVE",
"86 250 CURVE SMOOTH",
"89 250 OFFCURVE",
"91 253 OFFCURVE",
"91 255 CURVE",
"94 268 OFFCURVE",
"72 285 OFFCURVE",
"77 309 CURVE SMOOTH",
"85 348 OFFCURVE",
"112 378 OFFCURVE",
"144 403 CURVE SMOOTH",
"287 513 OFFCURVE",
"499 582 OFFCURVE",
"657 582 CURVE SMOOTH",
"718 582 OFFCURVE",
"783 570 OFFCURVE",
"819 549 CURVE SMOOTH",
"831 542 OFFCURVE",
"836 534 OFFCURVE",
"836 526 CURVE SMOOTH",
"836 517 OFFCURVE",
"830 508 OFFCURVE",
"822 500 CURVE SMOOTH",
"744 422 OFFCURVE",
"543 290 OFFCURVE",
"355 235 CURVE",
"345 234 OFFCURVE",
"339 226 OFFCURVE",
"339 216 CURVE SMOOTH",
"339 210 OFFCURVE",
"341 206 OFFCURVE",
"348 204 CURVE",
"365 205 OFFCURVE",
"381 205 OFFCURVE",
"396 205 CURVE SMOOTH",
"463 205 OFFCURVE",
"502 196 OFFCURVE",
"498 177 CURVE SMOOTH",
"485 107 OFFCURVE",
"335 35 OFFCURVE",
"247 31 CURVE SMOOTH",
"240 31 OFFCURVE",
"225 31 OFFCURVE",
"225 38 CURVE SMOOTH",
"225 43 OFFCURVE",
"232 51 OFFCURVE",
"252 65 CURVE SMOOTH",
"303 100 OFFCURVE",
"393 138 OFFCURVE",
"438 150 CURVE",
"445 153 OFFCURVE",
"455 163 OFFCURVE",
"455 168 CURVE SMOOTH",
"455 169 OFFCURVE",
"454 170 OFFCURVE",
"452 170 CURVE SMOOTH",
"387 166 OFFCURVE",
"183 86 OFFCURVE",
"169 24 CURVE SMOOTH",
"161 -15 OFFCURVE",
"206 -33 OFFCURVE",
"239 -32 CURVE SMOOTH"
);
},
{
closed = 1;
nodes = (
"82 -35 OFFCURVE",
"144 38 OFFCURVE",
"188 92 CURVE SMOOTH",
"192 96 OFFCURVE",
"194 99 OFFCURVE",
"194 101 CURVE SMOOTH",
"194 102 OFFCURVE",
"194 102 OFFCURVE",
"193 102 CURVE SMOOTH",
"192 102 OFFCURVE",
"187 98 OFFCURVE",
"176 86 CURVE SMOOTH",
"91 -15 LINE SMOOTH",
"86 -20 OFFCURVE",
"82 -24 OFFCURVE",
"79 -28 CURVE SMOOTH",
"174 122 OFFCURVE",
"382 341 OFFCURVE",
"494 450 CURVE",
"504 471 OFFCURVE",
"425 519 OFFCURVE",
"410 513 CURVE",
"410 513 OFFCURVE",
"398 499 OFFCURVE",
"383 480 CURVE SMOOTH",
"379 476 OFFCURVE",
"377 472 OFFCURVE",
"377 470 CURVE SMOOTH",
"377 468 OFFCURVE",
"379 467 OFFCURVE",
"381 467 CURVE SMOOTH",
"384 467 OFFCURVE",
"388 468 OFFCURVE",
"394 471 CURVE",
"318 379 OFFCURVE",
"54 83 OFFCURVE",
"23 -8 CURVE SMOOTH",
"21 -14 OFFCURVE",
"20 -19 OFFCURVE",
"20 -25 CURVE SMOOTH",
"20 -44 OFFCURVE",
"30 -65 OFFCURVE",
"56 -86 CURVE"
);
},
{
closed = 1;
nodes = (
"340 587 OFFCURVE",
"345 588 OFFCURVE",
"350 590 CURVE",
"345 588 OFFCURVE",
"340 587 OFFCURVE",
"336 585 CURVE"
);
},
{
closed = 1;
nodes = (
"747 342 OFFCURVE",
"776 359 OFFCURVE",
"802 380 CURVE SMOOTH",
"835 408 LINE",
"806 383 OFFCURVE",
"762 352 OFFCURVE",
"715 325 CURVE"
);
},
{
closed = 1;
nodes = (
"849 420 OFFCURVE",
"859 430 OFFCURVE",
"865 437 CURVE SMOOTH",
"857 428 OFFCURVE",
"846 418 OFFCURVE",
"835 408 CURVE"
);
}
);
width = 679;
}
);
note = B;
unicode = 0042;
},
{
glyphname = C;
lastChange = "2021-10-25 22:52:02 +0000";
layers = (
{
layerId = "B9003040-D3EC-4996-96A5-33D5E21FF9E0";
paths = (
{
closed = 1;
nodes = (
"201 -29 OFFCURVE",
"233 -26 OFFCURVE",
"248 -18 CURVE",
"252 -15 OFFCURVE",
"255 -13 OFFCURVE",
"255 -9 CURVE SMOOTH",
"255 -8 LINE",
"402 33 OFFCURVE",
"607 155 OFFCURVE",
"691 239 CURVE SMOOTH",
"712 261 OFFCURVE",
"718 275 OFFCURVE",
"708 275 CURVE SMOOTH",
"704 275 OFFCURVE",
"697 272 OFFCURVE",
"688 267 CURVE SMOOTH",
"635 237 OFFCURVE",
"587 211 OFFCURVE",
"542 188 CURVE",
"598 220 OFFCURVE",
"648 251 OFFCURVE",
"659 262 CURVE",
"627 245 OFFCURVE",
"471 156 OFFCURVE",
"448 143 CURVE SMOOTH",
"426 132 LINE",
"461 148 OFFCURVE",
"500 166 OFFCURVE",
"542 188 CURVE",
"509 169 OFFCURVE",
"475 149 OFFCURVE",
"444 133 CURVE SMOOTH",
"409 113 OFFCURVE",
"327 78 OFFCURVE",
"294 79 CURVE SMOOTH",
"289 79 OFFCURVE",
"347 96 OFFCURVE",
"366 105 CURVE SMOOTH",
"380 112 OFFCURVE",
"401 120 OFFCURVE",
"426 132 CURVE SMOOTH",
"315 83 OFFCURVE",
"237 63 OFFCURVE",
"186 63 CURVE SMOOTH",
"126 63 OFFCURVE",
"102 90 OFFCURVE",
"102 131 CURVE SMOOTH",
"102 154 OFFCURVE",
"110 183 OFFCURVE",
"125 214 CURVE SMOOTH",
"234 446 OFFCURVE",
"526 552 OFFCURVE",
"718 579 CURVE SMOOTH",
"726 580 OFFCURVE",
"733 581 OFFCURVE",
"739 581 CURVE SMOOTH",
"765 581 OFFCURVE",
"782 573 OFFCURVE",
"782 556 CURVE SMOOTH",
"782 543 OFFCURVE",
"771 525 OFFCURVE",
"745 500 CURVE SMOOTH",
"685 444 OFFCURVE",
"566 368 OFFCURVE",
"493 357 CURVE SMOOTH",
"479 355 OFFCURVE",
"473 359 OFFCURVE",
"473 366 CURVE SMOOTH",
"473 385 OFFCURVE",
"510 425 OFFCURVE",
"519 434 CURVE SMOOTH",
"547 464 OFFCURVE",
"549 473 OFFCURVE",
"542 473 CURVE SMOOTH",
"540 473 OFFCURVE",
"537 472 OFFCURVE",
"533 470 CURVE SMOOTH",
"472 445 OFFCURVE",
"436 383 OFFCURVE",
"429 370 CURVE",
"428 367 OFFCURVE",
"427 364 OFFCURVE",
"427 361 CURVE SMOOTH",
"427 333 OFFCURVE",
"470 291 OFFCURVE",
"480 285 CURVE",
"542 287 OFFCURVE",
"684 384 OFFCURVE",
"726 429 CURVE",
"770 424 OFFCURVE",
"863 520 OFFCURVE",
"866 566 CURVE SMOOTH",
"867 584 OFFCURVE",
"833 613 OFFCURVE",
"830 608 CURVE SMOOTH",
"827 601 OFFCURVE",
"828 595 OFFCURVE",
"824 586 CURVE SMOOTH",
"820 577 OFFCURVE",
"813 566 OFFCURVE",
"807 562 CURVE",
"810 568 OFFCURVE",
"814 578 OFFCURVE",
"814 591 CURVE SMOOTH",
"814 607 OFFCURVE",
"808 628 OFFCURVE",
"792 653 CURVE",
"774 659 OFFCURVE",
"752 662 OFFCURVE",
"726 662 CURVE SMOOTH",
"638 662 OFFCURVE",
"512 629 OFFCURVE",
"398 575 CURVE SMOOTH",
"352 554 OFFCURVE",
"285 522 OFFCURVE",
"241 497 CURVE SMOOTH",
"232 492 OFFCURVE",
"241 492 OFFCURVE",
"250 497 CURVE SMOOTH",
"273 510 OFFCURVE",
"299 523 OFFCURVE",
"325 535 CURVE",
"225 479 OFFCURVE",
"144 419 OFFCURVE",
"74 306 CURVE SMOOTH",
"41 253 OFFCURVE",
"18 194 OFFCURVE",
"18 143 CURVE SMOOTH",
"18 82 OFFCURVE",
"51 32 OFFCURVE",
"139 14 CURVE",
"125 14 OFFCURVE",
"113 7 OFFCURVE",
"113 -4 CURVE SMOOTH",
"113 -20 OFFCURVE",
"144 -29 OFFCURVE",
"176 -29 CURVE SMOOTH"
);
},
{
closed = 1;
nodes = (
"361 551 OFFCURVE",
"394 567 OFFCURVE",
"420 579 CURVE SMOOTH",
"537 630 OFFCURVE",
"667 644 OFFCURVE",
"725 648 CURVE SMOOTH",
"734 649 OFFCURVE",
"745 646 OFFCURVE",
"745 644 CURVE SMOOTH",
"745 643 OFFCURVE",
"741 642 OFFCURVE",
"731 642 CURVE SMOOTH",
"637 642 OFFCURVE",
"465 597 OFFCURVE",
"336 537 CURVE"
);
}
);
width = 626;
}
);
note = C;
unicode = 0043;
},
{
glyphname = D;
lastChange = "2021-10-25 22:52:02 +0000";
layers = (
{
layerId = "B9003040-D3EC-4996-96A5-33D5E21FF9E0";
paths = (
{
closed = 1;
nodes = (
"283 -32 OFFCURVE",
"333 -20 OFFCURVE",
"383 -3 CURVE",
"369 -11 OFFCURVE",
"361 -15 OFFCURVE",
"364 -14 CURVE SMOOTH",
"399 2 OFFCURVE",
"558 66 OFFCURVE",
"611 111 CURVE SMOOTH",
"637 133 OFFCURVE",
"662 155 OFFCURVE",
"685 176 CURVE SMOOTH",
"597 100 OFFCURVE",
"488 33 OFFCURVE",
"383 -3 CURVE",
"401 7 OFFCURVE",
"429 23 OFFCURVE",
"458 38 CURVE SMOOTH",
"489 55 OFFCURVE",
"564 89 OFFCURVE",
"615 133 CURVE SMOOTH",
"649 163 OFFCURVE",
"802 279 OFFCURVE",
"875 426 CURVE",
"832 332 OFFCURVE",
"783 268 OFFCURVE",
"716 204 CURVE",
"819 299 OFFCURVE",
"889 404 OFFCURVE",
"889 477 CURVE SMOOTH",
"889 498 OFFCURVE",
"884 516 OFFCURVE",
"872 531 CURVE",
"872 623 OFFCURVE",
"772 648 OFFCURVE",
"669 648 CURVE SMOOTH",
"657 648 OFFCURVE",
"644 648 OFFCURVE",
"632 647 CURVE SMOOTH",
"543 642 OFFCURVE",
"449 622 OFFCURVE",
"360 594 CURVE",
"476 629 OFFCURVE",
"586 641 OFFCURVE",
"674 640 CURVE SMOOTH",
"684 640 OFFCURVE",
"698 638 OFFCURVE",
"698 636 CURVE",
"698 636 OFFCURVE",
"694 635 OFFCURVE",
"684 635 CURVE SMOOTH",
"531 634 OFFCURVE",
"385 608 OFFCURVE",
"208 529 CURVE",
"251 552 OFFCURVE",
"298 573 OFFCURVE",
"349 590 CURVE SMOOTH",
"273 565 OFFCURVE",
"193 533 OFFCURVE",
"115 489 CURVE SMOOTH",
"108 485 OFFCURVE",
"98 478 OFFCURVE",
"101 478 CURVE",
"101 478 OFFCURVE",
"102 478 OFFCURVE",
"104 479 CURVE SMOOTH",
"140 498 OFFCURVE",
"174 514 OFFCURVE",
"208 529 CURVE",
"98 471 OFFCURVE",
"21 401 OFFCURVE",
"21 340 CURVE SMOOTH",
"21 303 OFFCURVE",
"47 273 OFFCURVE",
"69 256 CURVE SMOOTH",
"74 253 OFFCURVE",
"81 250 OFFCURVE",
"86 250 CURVE SMOOTH",
"89 250 OFFCURVE",
"91 253 OFFCURVE",
"91 255 CURVE",
"94 268 OFFCURVE",
"72 285 OFFCURVE",
"77 309 CURVE SMOOTH",
"85 348 OFFCURVE",
"112 378 OFFCURVE",
"144 403 CURVE SMOOTH",
"287 513 OFFCURVE",
"499 582 OFFCURVE",
"657 582 CURVE SMOOTH",
"718 582 OFFCURVE",
"783 570 OFFCURVE",
"819 549 CURVE SMOOTH",
"821 548 OFFCURVE",
"823 544 OFFCURVE",
"823 540 CURVE SMOOTH",
"823 468 OFFCURVE",
"553 43 OFFCURVE",
"247 31 CURVE SMOOTH",
"240 31 OFFCURVE",
"225 31 OFFCURVE",
"225 38 CURVE SMOOTH",
"225 43 OFFCURVE",
"232 51 OFFCURVE",
"252 65 CURVE SMOOTH",
"303 100 OFFCURVE",
"393 138 OFFCURVE",
"438 150 CURVE",
"445 153 OFFCURVE",
"455 163 OFFCURVE",
"455 168 CURVE SMOOTH",
"455 169 OFFCURVE",
"454 170 OFFCURVE",
"452 170 CURVE SMOOTH",
"387 166 OFFCURVE",
"183 86 OFFCURVE",
"169 24 CURVE SMOOTH",
"161 -14 OFFCURVE",
"204 -32 OFFCURVE",
"236 -32 CURVE SMOOTH"
);
},
{
closed = 1;
nodes = (
"82 -35 OFFCURVE",
"144 38 OFFCURVE",
"188 92 CURVE SMOOTH",
"192 96 OFFCURVE",
"194 99 OFFCURVE",
"194 101 CURVE SMOOTH",
"194 102 OFFCURVE",
"194 102 OFFCURVE",
"193 102 CURVE SMOOTH",
"192 102 OFFCURVE",
"187 98 OFFCURVE",
"176 86 CURVE SMOOTH",
"91 -15 LINE",
"79 -29 LINE",
"175 122 OFFCURVE",
"382 341 OFFCURVE",
"494 450 CURVE",
"504 471 OFFCURVE",
"425 519 OFFCURVE",
"410 513 CURVE",
"410 513 OFFCURVE",
"398 499 OFFCURVE",
"383 480 CURVE SMOOTH",
"379 476 OFFCURVE",
"377 472 OFFCURVE",
"377 470 CURVE SMOOTH",
"377 468 OFFCURVE",
"379 467 OFFCURVE",
"381 467 CURVE SMOOTH",
"384 467 OFFCURVE",
"388 468 OFFCURVE",
"394 471 CURVE",
"318 379 OFFCURVE",
"54 83 OFFCURVE",
"23 -8 CURVE SMOOTH",
"21 -14 OFFCURVE",
"20 -19 OFFCURVE",
"20 -25 CURVE SMOOTH",
"20 -44 OFFCURVE",
"30 -65 OFFCURVE",
"56 -86 CURVE"
);
},
);
width = 733;
}
);
note = D;
unicode = 0044;
},
{
glyphname = Eth;
lastChange = "2021-10-25 22:52:02 +0000";
layers = (
{
layerId = "B9003040-D3EC-4996-96A5-33D5E21FF9E0";
paths = (
{
closed = 1;
nodes = (
"283 -32 OFFCURVE",
"333 -20 OFFCURVE",
"383 -3 CURVE",
"369 -11 OFFCURVE",
"361 -15 OFFCURVE",
"364 -14 CURVE SMOOTH",
"399 2 OFFCURVE",
"558 66 OFFCURVE",
"611 111 CURVE SMOOTH",
"695 185 LINE",
"605 105 OFFCURVE",
"492 35 OFFCURVE",
"383 -3 CURVE",
"401 7 OFFCURVE",
"429 23 OFFCURVE",
"458 38 CURVE SMOOTH",
"489 55 OFFCURVE",
"564 89 OFFCURVE",
"615 133 CURVE SMOOTH",
"649 163 OFFCURVE",
"802 279 OFFCURVE",
"875 426 CURVE",
"832 332 OFFCURVE",
"783 268 OFFCURVE",
"716 204 CURVE",
"819 299 OFFCURVE",
"889 404 OFFCURVE",
"889 477 CURVE SMOOTH",
"889 498 OFFCURVE",
"884 516 OFFCURVE",
"872 531 CURVE",
"872 623 OFFCURVE",
"772 648 OFFCURVE",
"669 648 CURVE SMOOTH",
"657 648 OFFCURVE",
"644 648 OFFCURVE",
"632 647 CURVE SMOOTH",
"543 642 OFFCURVE",
"449 622 OFFCURVE",
"360 594 CURVE",
"476 629 OFFCURVE",
"586 641 OFFCURVE",
"674 640 CURVE SMOOTH",
"684 640 OFFCURVE",
"698 638 OFFCURVE",
"698 636 CURVE",
"698 636 OFFCURVE",
"694 635 OFFCURVE",
"684 635 CURVE SMOOTH",
"531 634 OFFCURVE",
"383 612 OFFCURVE",
"208 529 CURVE SMOOTH",
"244 547 OFFCURVE",
"282 566 OFFCURVE",
"325 581 CURVE",
"256 558 OFFCURVE",
"184 528 OFFCURVE",
"115 489 CURVE SMOOTH",
"108 485 OFFCURVE",
"98 478 OFFCURVE",
"101 478 CURVE",
"101 478 OFFCURVE",
"102 478 OFFCURVE",
"104 479 CURVE SMOOTH",
"133 494 OFFCURVE",
"162 507 OFFCURVE",
"190 520 CURVE SMOOTH",
"87 468 OFFCURVE",
"21 396 OFFCURVE",
"21 340 CURVE SMOOTH",
"21 303 OFFCURVE",
"47 273 OFFCURVE",
"69 256 CURVE SMOOTH",
"74 253 OFFCURVE",
"81 250 OFFCURVE",
"86 250 CURVE SMOOTH",
"89 250 OFFCURVE",
"91 253 OFFCURVE",
"91 255 CURVE",
"94 268 OFFCURVE",
"72 285 OFFCURVE",
"77 309 CURVE SMOOTH",
"85 348 OFFCURVE",
"112 378 OFFCURVE",
"144 403 CURVE SMOOTH",
"287 513 OFFCURVE",
"499 582 OFFCURVE",
"657 582 CURVE SMOOTH",
"718 582 OFFCURVE",
"783 570 OFFCURVE",
"819 549 CURVE SMOOTH",
"821 548 OFFCURVE",
"823 544 OFFCURVE",
"823 540 CURVE SMOOTH",
"823 468 OFFCURVE",
"553 43 OFFCURVE",
"247 31 CURVE SMOOTH",
"240 31 OFFCURVE",
"225 31 OFFCURVE",
"225 38 CURVE SMOOTH",
"225 43 OFFCURVE",
"232 51 OFFCURVE",
"252 65 CURVE SMOOTH",
"303 100 OFFCURVE",
"393 138 OFFCURVE",
"438 150 CURVE",
"445 153 OFFCURVE",
"455 163 OFFCURVE",
"455 168 CURVE SMOOTH",
"455 169 OFFCURVE",
"454 170 OFFCURVE",
"452 170 CURVE SMOOTH",
"387 166 OFFCURVE",
"183 86 OFFCURVE",
"169 24 CURVE SMOOTH",
"161 -14 OFFCURVE",
"204 -32 OFFCURVE",
"236 -32 CURVE SMOOTH"
);
},
{
closed = 1;
nodes = (
"82 -35 OFFCURVE",
"144 38 OFFCURVE",
"188 92 CURVE SMOOTH",
"192 96 OFFCURVE",
"194 99 OFFCURVE",
"194 101 CURVE SMOOTH",
"194 102 OFFCURVE",
"194 102 OFFCURVE",
"193 102 CURVE SMOOTH",
"192 102 OFFCURVE",
"187 98 OFFCURVE",
"176 86 CURVE SMOOTH",
"91 -15 LINE",
"79 -29 LINE",
"112 23 OFFCURVE",
"158 83 OFFCURVE",
"209 143 CURVE",
"238 149 OFFCURVE",
"268 156 OFFCURVE",
"298 167 CURVE SMOOTH",
"316 173 OFFCURVE",
"332 191 OFFCURVE",
"332 200 CURVE SMOOTH",
"332 206 OFFCURVE",
"327 208 OFFCURVE",
"316 206 CURVE SMOOTH",
"295 202 OFFCURVE",
"275 198 OFFCURVE",
"254 196 CURVE",
"340 294 OFFCURVE",
"432 389 OFFCURVE",
"494 450 CURVE",
"504 471 OFFCURVE",
"425 519 OFFCURVE",
"410 513 CURVE",
"410 513 OFFCURVE",
"398 499 OFFCURVE",
"383 480 CURVE SMOOTH",
"379 476 OFFCURVE",
"377 472 OFFCURVE",
"377 470 CURVE SMOOTH",
"377 468 OFFCURVE",
"379 467 OFFCURVE",
"381 467 CURVE SMOOTH",
"384 467 OFFCURVE",
"388 468 OFFCURVE",
"394 471 CURVE",
"351 418 OFFCURVE",
"246 299 OFFCURVE",
"158 189 CURVE",
"136 189 OFFCURVE",
"114 190 OFFCURVE",
"93 191 CURVE",
"83 199 OFFCURVE",
"78 200 OFFCURVE",
"68 200 CURVE SMOOTH",
"48 200 LINE SMOOTH",
"14 200 OFFCURVE",
"4 183 OFFCURVE",
"4 166 CURVE SMOOTH",
"4 150 OFFCURVE",
"14 133 OFFCURVE",
"21 132 CURVE",
"56 132 LINE SMOOTH",
"72 132 OFFCURVE",
"92 132 OFFCURVE",
"114 133 CURVE",
"69 73 OFFCURVE",
"34 21 OFFCURVE",
"23 -8 CURVE SMOOTH",
"21 -14 OFFCURVE",
"20 -19 OFFCURVE",
"20 -25 CURVE SMOOTH",
"20 -44 OFFCURVE",
"30 -65 OFFCURVE",
"56 -86 CURVE"
);
},
{
closed = 1;
nodes = (
"697 187 OFFCURVE",
"699 188 OFFCURVE",
"700 190 CURVE",
"699 188 OFFCURVE",
"697 187 OFFCURVE",
"695 185 CURVE"
);
},
{
closed = 1;
nodes = (
"703 192 OFFCURVE",
"705 194 OFFCURVE",
"707 196 CURVE",
"705 194 OFFCURVE",
"703 192 OFFCURVE",
"701 191 CURVE"
);
},
);
width = 733;
}
);
note = Eth;
unicode = 00D0;
},
{
glyphname = E;
lastChange = "2021-10-25 22:52:02 +0000";
layers = (
{
layerId = "B9003040-D3EC-4996-96A5-33D5E21FF9E0";
paths = (
{
closed = 1;
nodes = (
"168 -49 OFFCURVE",
"203 -44 OFFCURVE",
"220 -32 CURVE SMOOTH",
"225 -29 OFFCURVE",
"228 -19 OFFCURVE",
"228 -14 CURVE",
"381 28 OFFCURVE",
"598 150 OFFCURVE",
"690 235 CURVE SMOOTH",
"713 256 OFFCURVE",
"720 271 OFFCURVE",
"710 271 CURVE SMOOTH",
"706 271 OFFCURVE",
"699 268 OFFCURVE",
"689 263 CURVE SMOOTH",
"662 248 OFFCURVE",
"606 218 OFFCURVE",
"541 186 CURVE",
"598 217 OFFCURVE",
"648 247 OFFCURVE",
"659 258 CURVE",
"626 240 OFFCURVE",
"460 150 OFFCURVE",
"436 138 CURVE SMOOTH",
"423 131 LINE SMOOTH",
"462 150 OFFCURVE",
"503 168 OFFCURVE",
"541 186 CURVE",
"431 127 LINE SMOOTH",
"394 108 OFFCURVE",
"328 77 OFFCURVE",
"305 71 CURVE SMOOTH",
"300 70 OFFCURVE",
"333 88 OFFCURVE",
"353 97 CURVE SMOOTH",
"360 100 OFFCURVE",
"369 104 OFFCURVE",
"378 109 CURVE",
"313 80 OFFCURVE",
"250 63 OFFCURVE",
"207 63 CURVE SMOOTH",
"189 63 OFFCURVE",
"175 66 OFFCURVE",
"166 73 CURVE",
"163 102 OFFCURVE",
"314 171 OFFCURVE",
"407 196 CURVE SMOOTH",
"419 199 OFFCURVE",
"456 228 OFFCURVE",
"456 243 CURVE SMOOTH",
"456 246 OFFCURVE",
"454 249 OFFCURVE",
"449 250 CURVE SMOOTH",
"385 269 OFFCURVE",
"289 299 OFFCURVE",
"232 324 CURVE SMOOTH",
"203 336 OFFCURVE",
"191 349 OFFCURVE",
"191 362 CURVE SMOOTH",
"191 402 OFFCURVE",
"304 442 OFFCURVE",
"356 464 CURVE SMOOTH",
"509 529 OFFCURVE",
"673 550 OFFCURVE",
"783 550 CURVE SMOOTH",
"812 550 OFFCURVE",
"832 547 OFFCURVE",
"832 536 CURVE SMOOTH",
"832 527 OFFCURVE",
"819 512 OFFCURVE",
"787 488 CURVE SMOOTH",
"719 436 OFFCURVE",
"587 369 OFFCURVE",
"511 363 CURVE SMOOTH",
"498 362 OFFCURVE",
"492 366 OFFCURVE",
"492 372 CURVE SMOOTH",
"492 389 OFFCURVE",
"538 428 OFFCURVE",
"549 438 CURVE SMOOTH",
"584 467 OFFCURVE",
"586 475 OFFCURVE",
"578 475 CURVE SMOOTH",
"576 475 OFFCURVE",
"572 474 OFFCURVE",
"569 473 CURVE SMOOTH",
"504 452 OFFCURVE",
"458 393 OFFCURVE",
"449 380 CURVE SMOOTH",
"446 376 OFFCURVE",
"445 372 OFFCURVE",
"445 367 CURVE SMOOTH",
"445 340 OFFCURVE",
"479 299 OFFCURVE",
"488 293 CURVE",
"550 290 OFFCURVE",
"708 376 OFFCURVE",
"757 418 CURVE",
"800 410 OFFCURVE",
"910 499 OFFCURVE",
"919 545 CURVE SMOOTH",
"923 562 OFFCURVE",
"894 594 OFFCURVE",
"890 589 CURVE SMOOTH",
"885 582 OFFCURVE",
"886 576 OFFCURVE",
"880 567 CURVE SMOOTH",
"875 558 OFFCURVE",
"866 548 OFFCURVE",
"860 545 CURVE",
"866 553 OFFCURVE",
"880 567 OFFCURVE",
"880 591 CURVE SMOOTH",
"880 601 OFFCURVE",
"878 613 OFFCURVE",
"871 627 CURVE",
"850 636 OFFCURVE",
"822 640 OFFCURVE",
"789 640 CURVE SMOOTH",
"702 640 OFFCURVE",
"580 613 OFFCURVE",
"464 575 CURVE SMOOTH",
"414 558 OFFCURVE",
"341 535 OFFCURVE",
"292 515 CURVE SMOOTH",
"282 511 OFFCURVE",
"290 510 OFFCURVE",
"301 514 CURVE SMOOTH",
"326 524 OFFCURVE",
"354 534 OFFCURVE",
"383 543 CURVE",
"342 527 OFFCURVE",
"303 509 OFFCURVE",
"268 491 CURVE SMOOTH",
"223 468 OFFCURVE",
"121 393 OFFCURVE",
"113 337 CURVE SMOOTH",
"105 277 OFFCURVE",
"261 241 OFFCURVE",
"305 235 CURVE",
"284 225 OFFCURVE",
"259 218 OFFCURVE",
"241 209 CURVE",
"208 202 OFFCURVE",
"160 187 OFFCURVE",
"114 161 CURVE SMOOTH",
"108 158 OFFCURVE",
"98 146 OFFCURVE",
"100 146 CURVE",
"100 146 OFFCURVE",
"101 146 OFFCURVE",
"102 147 CURVE SMOOTH",
"126 164 OFFCURVE",
"159 180 OFFCURVE",
"190 189 CURVE",
"156 175 OFFCURVE",
"123 158 OFFCURVE",
"93 134 CURVE",
"80 119 OFFCURVE",
"75 98 OFFCURVE",
"75 76 CURVE SMOOTH",
"75 49 OFFCURVE",
"83 20 OFFCURVE",
"93 -1 CURVE",
"93 -6 OFFCURVE",
"85 5 OFFCURVE",
"81 -6 CURVE SMOOTH",
"80 -9 OFFCURVE",
"79 -12 OFFCURVE",
"79 -14 CURVE SMOOTH",
"79 -31 OFFCURVE",
"100 -45 OFFCURVE",
"124 -48 CURVE SMOOTH",
"129 -49 OFFCURVE",
"135 -49 OFFCURVE",
"143 -49 CURVE SMOOTH"
);
},
{
closed = 1;
nodes = (
"225 202 OFFCURVE",
"245 208 OFFCURVE",
"262 214 CURVE",
"289 220 OFFCURVE",
"305 225 OFFCURVE",
"321 228 CURVE SMOOTH",
"326 229 OFFCURVE",
"335 226 OFFCURVE",
"335 223 CURVE SMOOTH",
"335 222 OFFCURVE",
"333 221 OFFCURVE",
"328 220 CURVE SMOOTH",
"306 218 OFFCURVE",
"251 207 OFFCURVE",
"208 195 CURVE"
);
},
{
closed = 1;
nodes = (
"393 116 OFFCURVE",
"408 123 OFFCURVE",
"423 131 CURVE",
"405 123 OFFCURVE",
"391 116 OFFCURVE",
"378 109 CURVE"
);
},
{
closed = 1;
nodes = (
"422 555 OFFCURVE",
"458 567 OFFCURVE",
"487 575 CURVE SMOOTH",
"614 612 OFFCURVE",
"729 629 OFFCURVE",
"803 627 CURVE SMOOTH",
"810 627 OFFCURVE",
"814 626 OFFCURVE",
"814 624 CURVE SMOOTH",
"814 622 OFFCURVE",
"806 620 OFFCURVE",
"788 620 CURVE SMOOTH",
"702 620 OFFCURVE",
"534 587 OFFCURVE",
"395 544 CURVE"
);
}
);
width = 626;
}
);
note = E;
unicode = 0045;
},
{
glyphname = F;
lastChange = "2021-10-25 22:52:02 +0000";
layers = (
{
layerId = "B9003040-D3EC-4996-96A5-33D5E21FF9E0";
paths = (
{
closed = 1;
nodes = (
"243 -10 OFFCURVE",
"250 -7 OFFCURVE",
"250 -3 CURVE SMOOTH",
"250 6 OFFCURVE",
"227 22 OFFCURVE",
"227 43 CURVE SMOOTH",
"227 60 OFFCURVE",
"228 137 OFFCURVE",
"325 247 CURVE",
"351 249 OFFCURVE",
"355 249 OFFCURVE",
"381 254 CURVE",
"369 253 OFFCURVE",
"359 253 OFFCURVE",
"352 253 CURVE SMOOTH",
"342 253 OFFCURVE",
"335 253 OFFCURVE",
"330 254 CURVE",
"340 255 OFFCURVE",
"469 264 OFFCURVE",
"510 266 CURVE SMOOTH",
"512 266 OFFCURVE",
"486 226 OFFCURVE",
"463 198 CURVE",
"488 223 OFFCURVE",
"507 250 OFFCURVE",
"522 266 CURVE",
"518 259 OFFCURVE",
"497 231 OFFCURVE",
"464 194 CURVE SMOOTH",
"449 178 OFFCURVE",
"439 166 OFFCURVE",
"439 160 CURVE",
"447 160 OFFCURVE",
"592 271 OFFCURVE",
"592 284 CURVE SMOOTH",
"592 291 OFFCURVE",
"585 311 OFFCURVE",
"574 311 CURVE SMOOTH",
"571 311 OFFCURVE",
"563 319 OFFCURVE",
"556 319 CURVE SMOOTH",
"555 319 LINE SMOOTH",
"483 304 OFFCURVE",
"408 298 OFFCURVE",
"360 290 CURVE",
"422 360 OFFCURVE",
"571 478 OFFCURVE",
"661 543 CURVE",
"675 544 OFFCURVE",
"706 539 OFFCURVE",
"721 538 CURVE SMOOTH",
"748 536 OFFCURVE",
"772 535 OFFCURVE",
"794 535 CURVE SMOOTH",
"918 535 OFFCURVE",
"957 567 OFFCURVE",
"963 599 CURVE",
"920 593 OFFCURVE",
"866 589 OFFCURVE",
"811 589 CURVE SMOOTH",
"778 589 OFFCURVE",
"745 590 OFFCURVE",
"714 593 CURVE",
"711 617 OFFCURVE",
"653 621 OFFCURVE",
"639 621 CURVE SMOOTH",
"630 621 OFFCURVE",
"620 618 OFFCURVE",
"603 607 CURVE",
"604 606 OFFCURVE",
"605 606 OFFCURVE",
"607 606 CURVE",
"624 602 OFFCURVE",
"630 601 OFFCURVE",
"630 600 CURVE",
"629 600 LINE SMOOTH",
"625 600 OFFCURVE",
"610 602 OFFCURVE",
"604 603 CURVE SMOOTH",
"542 615 OFFCURVE",
"486 620 OFFCURVE",
"436 620 CURVE SMOOTH",
"269 620 OFFCURVE",
"157 565 OFFCURVE",
"67 515 CURVE",
"68 517 LINE",
"63 513 OFFCURVE",
"60 511 OFFCURVE",
"65 514 CURVE SMOOTH",
"67 515 LINE",
"50 499 OFFCURVE",
"38 480 OFFCURVE",
"31 458 CURVE SMOOTH",
"28 449 OFFCURVE",
"27 441 OFFCURVE",
"27 433 CURVE SMOOTH",
"27 399 OFFCURVE",
"52 379 OFFCURVE",
"68 379 CURVE SMOOTH",
"75 379 OFFCURVE",
"81 384 OFFCURVE",
"81 393 CURVE SMOOTH",
"81 397 OFFCURVE",
"80 402 OFFCURVE",
"77 408 CURVE",
"96 479 OFFCURVE",
"273 540 OFFCURVE",
"305 547 CURVE SMOOTH",
"385 565 OFFCURVE",
"474 568 OFFCURVE",
"546 568 CURVE",
"532 557 OFFCURVE",
"506 536 OFFCURVE",
"501 529 CURVE",
"519 545 OFFCURVE",
"541 559 OFFCURVE",
"547 564 CURVE SMOOTH",
"451 484 OFFCURVE",
"318 341 OFFCURVE",
"272 283 CURVE",
"150 267 LINE SMOOTH",
"124 263 OFFCURVE",
"102 247 OFFCURVE",
"102 238 CURVE SMOOTH",
"102 233 OFFCURVE",
"108 230 OFFCURVE",
"121 232 CURVE SMOOTH",
"137 234 OFFCURVE",
"215 243 OFFCURVE",
"237 244 CURVE",
"197 191 OFFCURVE",
"152 119 OFFCURVE",
"152 69 CURVE SMOOTH",
"152 25 OFFCURVE",
"188 -7 OFFCURVE",
"220 -10 CURVE"
);
},
{
closed = 1;
nodes = (
"80 524 LINE",
"118 551 OFFCURVE",
"162 575 OFFCURVE",
"210 591 CURVE",
"159 575 OFFCURVE",
"105 552 OFFCURVE",
"68 517 CURVE"
);
},
{
closed = 1;
nodes = (
"255 604 LINE SMOOTH",
"240 600 OFFCURVE",
"225 596 OFFCURVE",
"210 591 CURVE SMOOTH"
);
},
{
closed = 1;
nodes = (
"255 604 LINE SMOOTH",
"258 604 OFFCURVE",
"261 605 OFFCURVE",
"264 606 CURVE",
"261 605 OFFCURVE",
"258 604 OFFCURVE",
"256 604 CURVE SMOOTH"
);
},
{
closed = 1;
nodes = (
"308 615 OFFCURVE",
"362 622 OFFCURVE",
"417 624 CURVE",
"363 623 OFFCURVE",
"312 616 OFFCURVE",
"264 606 CURVE"
);
},
{
closed = 1;
nodes = (
"560 618 OFFCURVE",
"512 623 OFFCURVE",
"463 624 CURVE SMOOTH",
"508 623 OFFCURVE",
"556 616 OFFCURVE",
"603 607 CURVE"
);
}
);
width = 547;
}
);
note = F;
unicode = 0046;
},
{
glyphname = G;
lastChange = "2021-10-25 22:52:02 +0000";
layers = (
{
layerId = "B9003040-D3EC-4996-96A5-33D5E21FF9E0";
paths = (
{
closed = 1;
nodes = (
"183 -293 OFFCURVE",
"269 -228 OFFCURVE",
"258 -222 CURVE SMOOTH",
"255 -220 OFFCURVE",
"251 -219 OFFCURVE",
"247 -219 CURVE",
"272 -203 OFFCURVE",
"376 -112 OFFCURVE",
"414 -67 CURVE SMOOTH",
"445 -30 OFFCURVE",
"467 2 OFFCURVE",
"482 23 CURVE",
"470 8 OFFCURVE",
"455 -7 OFFCURVE",
"446 -20 CURVE SMOOTH",
"382 -100 OFFCURVE",
"317 -166 OFFCURVE",
"247 -219 CURVE",
"241 -222 OFFCURVE",
"377 -95 OFFCURVE",
"427 -37 CURVE SMOOTH",
"496 42 LINE",
"495 40 LINE",
"490 33 LINE",
"501 46 LINE",
"521 53 OFFCURVE",
"542 61 OFFCURVE",
"558 66 CURVE SMOOTH",
"567 68 OFFCURVE",
"571 73 OFFCURVE",
"571 77 CURVE SMOOTH",
"571 82 OFFCURVE",
"566 86 OFFCURVE",
"557 86 CURVE SMOOTH",
"554 86 LINE",
"528 84 LINE",
"605 192 OFFCURVE",
"655 283 OFFCURVE",
"655 283 CURVE",
"660 295 OFFCURVE",
"602 325 OFFCURVE",
"581 320 CURVE",
"553 285 OFFCURVE",
"430 150 OFFCURVE",
"324 102 CURVE SMOOTH",
"252 69 OFFCURVE",
"200 56 OFFCURVE",
"164 56 CURVE SMOOTH",
"117 56 OFFCURVE",
"98 80 OFFCURVE",
"98 117 CURVE SMOOTH",
"98 144 OFFCURVE",
"108 178 OFFCURVE",
"125 214 CURVE SMOOTH",
"234 446 OFFCURVE",
"526 552 OFFCURVE",
"718 579 CURVE SMOOTH",
"726 580 OFFCURVE",
"733 581 OFFCURVE",
"739 581 CURVE SMOOTH",
"765 581 OFFCURVE",
"782 573 OFFCURVE",
"782 556 CURVE SMOOTH",
"782 543 OFFCURVE",
"771 525 OFFCURVE",
"745 500 CURVE SMOOTH",
"726 482 OFFCURVE",
"701 462 OFFCURVE",
"673 443 CURVE SMOOTH",
"653 429 OFFCURVE",
"645 421 OFFCURVE",
"645 417 CURVE SMOOTH",
"645 414 OFFCURVE",
"648 413 OFFCURVE",
"653 413 CURVE SMOOTH",
"665 413 OFFCURVE",
"692 420 OFFCURVE",
"726 429 CURVE",
"770 424 OFFCURVE",
"863 520 OFFCURVE",
"866 566 CURVE SMOOTH",
"867 584 OFFCURVE",
"833 613 OFFCURVE",
"830 608 CURVE SMOOTH",
"827 601 OFFCURVE",
"828 595 OFFCURVE",
"824 586 CURVE SMOOTH",
"820 577 OFFCURVE",
"813 566 OFFCURVE",
"807 562 CURVE",
"810 568 OFFCURVE",
"814 578 OFFCURVE",
"814 591 CURVE SMOOTH",
"814 607 OFFCURVE",
"808 628 OFFCURVE",
"792 653 CURVE",
"774 659 OFFCURVE",
"752 662 OFFCURVE",
"726 662 CURVE SMOOTH",
"638 662 OFFCURVE",
"512 629 OFFCURVE",
"398 575 CURVE SMOOTH",
"352 554 OFFCURVE",
"285 522 OFFCURVE",
"241 497 CURVE SMOOTH",
"232 492 OFFCURVE",
"241 492 OFFCURVE",
"250 497 CURVE SMOOTH",
"273 510 OFFCURVE",
"299 523 OFFCURVE",
"325 535 CURVE",
"225 479 OFFCURVE",
"144 419 OFFCURVE",
"74 306 CURVE SMOOTH",
"41 253 OFFCURVE",
"18 194 OFFCURVE",
"18 143 CURVE SMOOTH",
"18 82 OFFCURVE",
"51 32 OFFCURVE",
"139 14 CURVE",
"108 14 OFFCURVE",
"95 12 OFFCURVE",
"95 10 CURVE SMOOTH",
"95 8 OFFCURVE",
"113 6 OFFCURVE",
"138 6 CURVE SMOOTH",
"168 6 OFFCURVE",
"208 9 OFFCURVE",
"245 19 CURVE SMOOTH",
"318 39 OFFCURVE",
"404 91 OFFCURVE",
"473 147 CURVE SMOOTH",
"475 149 OFFCURVE",
"499 184 OFFCURVE",
"501 185 CURVE SMOOTH",
"503 186 OFFCURVE",
"481 154 OFFCURVE",
"483 155 CURVE",
"466 130 OFFCURVE",
"449 103 OFFCURVE",
"428 75 CURVE",
"279 20 OFFCURVE",
"148 -76 OFFCURVE",
"94 -156 CURVE",
"93 -159 OFFCURVE",
"93 -162 OFFCURVE",
"93 -166 CURVE SMOOTH",
"93 -188 OFFCURVE",
"108 -214 OFFCURVE",
"128 -235 CURVE",
"126 -239 LINE SMOOTH",
"124 -243 OFFCURVE",
"123 -247 OFFCURVE",
"123 -251 CURVE SMOOTH",
"123 -272 OFFCURVE",
"151 -283 OFFCURVE",
"168 -288 CURVE SMOOTH"
);
},
{
closed = 1;
nodes = (
"163 -238 OFFCURVE",
"160 -231 OFFCURVE",
"160 -223 CURVE SMOOTH",
"160 -157 OFFCURVE",
"332 -14 OFFCURVE",
"390 8 CURVE",
"391 8 OFFCURVE",
"397 10 OFFCURVE",
"421 39 CURVE",
"408 18 OFFCURVE",
"388 -2 OFFCURVE",
"371 -21 CURVE SMOOTH",
"312 -88 OFFCURVE",
"222 -190 OFFCURVE",
"169 -244 CURVE"
);
},
{
closed = 1;
nodes = (
"361 551 OFFCURVE",
"394 567 OFFCURVE",
"420 579 CURVE SMOOTH",
"537 630 OFFCURVE",
"667 644 OFFCURVE",
"725 648 CURVE SMOOTH",
"734 649 OFFCURVE",
"745 646 OFFCURVE",
"745 644 CURVE SMOOTH",
"745 643 OFFCURVE",
"741 642 OFFCURVE",
"731 642 CURVE SMOOTH",
"637 642 OFFCURVE",
"465 597 OFFCURVE",
"336 537 CURVE"
);
}
);
width = 626;
}
);
note = G;
unicode = 0047;
},
{
glyphname = H;
lastChange = "2021-10-25 22:52:02 +0000";
layers = (
{
layerId = "B9003040-D3EC-4996-96A5-33D5E21FF9E0";
paths = (
{
closed = 1;
nodes = (
"607 -25 OFFCURVE",
"612 -22 OFFCURVE",
"612 -17 CURVE SMOOTH",
"612 -14 OFFCURVE",
"610 -11 OFFCURVE",
"606 -8 CURVE SMOOTH",
"594 0 OFFCURVE",
"589 13 OFFCURVE",
"589 31 CURVE SMOOTH",
"589 72 OFFCURVE",
"617 137 OFFCURVE",
"656 206 CURVE SMOOTH",
"671 232 OFFCURVE",
"688 259 OFFCURVE",
"705 286 CURVE",
"762 296 OFFCURVE",
"802 305 OFFCURVE",
"816 311 CURVE SMOOTH",
"827 316 OFFCURVE",
"834 321 OFFCURVE",
"834 325 CURVE SMOOTH",
"834 327 OFFCURVE",
"831 328 OFFCURVE",
"826 328 CURVE SMOOTH",
"823 328 OFFCURVE",
"818 327 OFFCURVE",
"812 326 CURVE SMOOTH",
"783 320 OFFCURVE",
"752 314 OFFCURVE",
"720 310 CURVE",
"802 436 OFFCURVE",
"892 550 OFFCURVE",
"892 552 CURVE SMOOTH",
"894 583 OFFCURVE",
"862 618 OFFCURVE",
"836 618 CURVE SMOOTH",
"829 618 OFFCURVE",
"823 615 OFFCURVE",
"817 610 CURVE SMOOTH",
"802 596 OFFCURVE",
"766 566 OFFCURVE",
"765 528 CURVE SMOOTH",
"764 510 OFFCURVE",
"742 479 OFFCURVE",
"734 468 CURVE",
"771 509 LINE",
"730 456 OFFCURVE",
"659 363 OFFCURVE",
"618 297 CURVE",
"545 289 OFFCURVE",
"472 283 OFFCURVE",
"414 278 CURVE",
"505 397 OFFCURVE",
"616 534 OFFCURVE",
"646 566 CURVE",
"647 569 OFFCURVE",
"647 571 OFFCURVE",
"647 574 CURVE SMOOTH",
"647 603 OFFCURVE",
"592 632 OFFCURVE",
"568 640 CURVE SMOOTH",
"564 641 OFFCURVE",
"560 642 OFFCURVE",
"558 642 CURVE SMOOTH",
"552 642 OFFCURVE",
"550 639 OFFCURVE",
"550 635 CURVE SMOOTH",
"550 632 LINE",
"521 638 OFFCURVE",
"489 641 OFFCURVE",
"457 643 CURVE",
"489 641 OFFCURVE",
"522 636 OFFCURVE",
"556 630 CURVE SMOOTH",
"562 629 OFFCURVE",
"564 628 OFFCURVE",
"564 627 CURVE SMOOTH",
"564 626 OFFCURVE",
"561 625 OFFCURVE",
"557 626 CURVE SMOOTH",
"495 638 OFFCURVE",
"438 643 OFFCURVE",
"387 643 CURVE SMOOTH",
"301 643 OFFCURVE",
"229 629 OFFCURVE",
"170 609 CURVE SMOOTH",
"113 590 OFFCURVE",
"73 565 OFFCURVE",
"29 541 CURVE SMOOTH",
"32 543 LINE",
"25 539 LINE",
"29 541 LINE",
"12 524 OFFCURVE",
"-2 505 OFFCURVE",
"-9 482 CURVE SMOOTH",
"-12 473 OFFCURVE",
"-13 465 OFFCURVE",
"-13 457 CURVE SMOOTH",
"-13 423 OFFCURVE",
"11 404 OFFCURVE",
"27 404 CURVE SMOOTH",
"35 404 OFFCURVE",
"41 408 OFFCURVE",
"41 418 CURVE SMOOTH",
"41 422 OFFCURVE",
"40 427 OFFCURVE",
"37 433 CURVE",
"56 504 OFFCURVE",
"233 564 OFFCURVE",
"265 572 CURVE SMOOTH",
"345 589 OFFCURVE",
"443 601 OFFCURVE",
"506 601 CURVE SMOOTH",
"521 601 OFFCURVE",
"534 601 OFFCURVE",
"545 599 CURVE",
"538 574 OFFCURVE",
"504 538 OFFCURVE",
"488 520 CURVE",
"501 522 OFFCURVE",
"516 554 OFFCURVE",
"543 575 CURVE",
"507 526 OFFCURVE",
"404 390 OFFCURVE",
"321 271 CURVE",
"276 268 OFFCURVE",
"233 266 OFFCURVE",
"195 265 CURVE",
"200 271 OFFCURVE",
"202 277 OFFCURVE",
"202 283 CURVE SMOOTH",
"202 284 OFFCURVE",
"202 286 OFFCURVE",
"201 288 CURVE SMOOTH",
"199 295 OFFCURVE",
"197 298 OFFCURVE",
"195 298 CURVE SMOOTH",
"193 298 OFFCURVE",
"191 295 OFFCURVE",
"189 292 CURVE SMOOTH",
"185 284 OFFCURVE",
"154 279 OFFCURVE",
"131 278 CURVE SMOOTH",
"118 278 OFFCURVE",
"105 282 OFFCURVE",
"94 282 CURVE SMOOTH",
"84 282 OFFCURVE",
"77 278 OFFCURVE",
"77 265 CURVE",
"75 265 LINE",
"68 250 OFFCURVE",
"63 232 OFFCURVE",
"63 218 CURVE SMOOTH",
"63 204 OFFCURVE",
"68 193 OFFCURVE",
"78 193 CURVE SMOOTH",
"82 193 OFFCURVE",
"86 194 OFFCURVE",
"91 197 CURVE",
"122 200 OFFCURVE",
"152 212 OFFCURVE",
"292 228 CURVE",
"282 214 OFFCURVE",
"273 200 OFFCURVE",
"265 187 CURVE",
"245 163 OFFCURVE",
"224 137 OFFCURVE",
"226 137 CURVE SMOOTH",
"227 137 OFFCURVE",
"234 144 OFFCURVE",
"243 153 CURVE",
"225 122 OFFCURVE",
"211 97 OFFCURVE",
"206 81 CURVE SMOOTH",
"203 72 OFFCURVE",
"201 60 OFFCURVE",
"201 47 CURVE SMOOTH",
"201 23 OFFCURVE",
"210 -3 OFFCURVE",
"241 -9 CURVE",
"291 -4 OFFCURVE",
"323 18 OFFCURVE",
"323 38 CURVE SMOOTH",
"323 51 OFFCURVE",
"309 63 OFFCURVE",
"276 69 CURVE",
"277 71 OFFCURVE",
"286 99 OFFCURVE",
"295 114 CURVE SMOOTH",
"310 140 OFFCURVE",
"344 186 OFFCURVE",
"384 240 CURVE",
"464 250 OFFCURVE",
"538 260 OFFCURVE",
"602 269 CURVE",
"591 248 OFFCURVE",
"567 192 OFFCURVE",
"560 179 CURVE",
"561 187 OFFCURVE",
"579 235 OFFCURVE",
"578 233 CURVE SMOOTH",
"566 206 OFFCURVE",
"536 129 OFFCURVE",
"536 66 CURVE SMOOTH",
"536 21 OFFCURVE",
"551 -17 OFFCURVE",
"598 -24 CURVE SMOOTH"
);
},
{
closed = 1;
nodes = (
"40 549 LINE SMOOTH",
"72 571 OFFCURVE",
"106 591 OFFCURVE",
"144 606 CURVE",
"103 590 OFFCURVE",
"61 571 OFFCURVE",
"32 543 CURVE"
);
},
{
closed = 1;
nodes = (
"146 606 OFFCURVE",
"147 607 OFFCURVE",
"149 608 CURVE",
"147 607 OFFCURVE",
"146 606 OFFCURVE",
"144 606 CURVE"
);
},
{
closed = 1;
nodes = (
"162 612 OFFCURVE",
"166 614 OFFCURVE",
"171 615 CURVE",
"166 614 OFFCURVE",
"162 612 OFFCURVE",
"158 611 CURVE"
);
},
{
closed = 1;
nodes = (
"193 622 OFFCURVE",
"208 625 OFFCURVE",
"222 629 CURVE SMOOTH",
"265 638 OFFCURVE",
"328 645 OFFCURVE",
"394 645 CURVE SMOOTH",
"406 645 OFFCURVE",
"419 644 OFFCURVE",
"431 644 CURVE",
"413 645 OFFCURVE",
"395 646 OFFCURVE",
"378 646 CURVE SMOOTH",
"304 646 OFFCURVE",
"238 636 OFFCURVE",
"177 617 CURVE SMOOTH"
);
}
);
width = 735;
}
);
note = H;
unicode = 0048;
},
{
glyphname = I;
lastChange = "2021-10-25 22:52:02 +0000";
layers = (
{
layerId = "B9003040-D3EC-4996-96A5-33D5E21FF9E0";
paths = (
{
closed = 1;
nodes = (
"262 -60 OFFCURVE",
"407 51 OFFCURVE",
"407 64 CURVE SMOOTH",
"407 71 OFFCURVE",
"400 91 OFFCURVE",
"389 91 CURVE SMOOTH",
"386 91 OFFCURVE",
"378 99 OFFCURVE",
"371 99 CURVE SMOOTH",
"370 99 LINE SMOOTH",
"298 84 OFFCURVE",
"223 75 OFFCURVE",
"175 70 CURVE SMOOTH",
"164 69 LINE",
"157 76 OFFCURVE",
"144 82 OFFCURVE",
"124 85 CURVE",
"125 87 OFFCURVE",
"131 106 OFFCURVE",
"142 120 CURVE SMOOTH",
"208 207 OFFCURVE",
"444 489 OFFCURVE",
"492 540 CURVE",
"493 543 OFFCURVE",
"493 545 OFFCURVE",
"493 548 CURVE",
"508 549 LINE",
"512 550 OFFCURVE",
"399 426 OFFCURVE",
"403 426 CURVE SMOOTH",
"408 427 OFFCURVE",
"528 552 OFFCURVE",
"533 552 CURVE",
"654 567 OFFCURVE",
"683 580 OFFCURVE",
"683 592 CURVE SMOOTH",
"683 604 OFFCURVE",
"652 615 OFFCURVE",
"659 623 CURVE SMOOTH",
"663 627 OFFCURVE",
"666 632 OFFCURVE",
"666 636 CURVE SMOOTH",
"666 638 OFFCURVE",
"665 639 OFFCURVE",
"663 639 CURVE SMOOTH",
"662 639 OFFCURVE",
"660 638 OFFCURVE",
"658 637 CURVE SMOOTH",
"653 634 OFFCURVE",
"659 600 OFFCURVE",
"490 593 CURVE SMOOTH",
"475 592 LINE",
"458 592 LINE",
"442 602 OFFCURVE",
"425 610 OFFCURVE",
"414 614 CURVE SMOOTH",
"410 615 OFFCURVE",
"406 616 OFFCURVE",
"404 616 CURVE SMOOTH",
"397 616 OFFCURVE",
"395 612 OFFCURVE",
"395 608 CURVE SMOOTH",
"395 604 OFFCURVE",
"397 599 OFFCURVE",
"398 595 CURVE SMOOTH",
"398 594 OFFCURVE",
"398 592 OFFCURVE",
"397 589 CURVE",
"318 586 LINE",
"321 591 OFFCURVE",
"323 596 OFFCURVE",
"323 601 CURVE SMOOTH",
"323 603 OFFCURVE",
"323 605 OFFCURVE",
"322 607 CURVE SMOOTH",
"320 614 OFFCURVE",
"318 617 OFFCURVE",
"316 617 CURVE SMOOTH",
"314 617 OFFCURVE",
"312 614 OFFCURVE",
"310 611 CURVE SMOOTH",
"306 603 OFFCURVE",
"275 598 OFFCURVE",
"252 597 CURVE SMOOTH",
"239 597 OFFCURVE",
"226 601 OFFCURVE",
"215 601 CURVE SMOOTH",
"205 601 OFFCURVE",
"198 597 OFFCURVE",
"198 584 CURVE",
"196 584 LINE",
"189 569 OFFCURVE",
"184 551 OFFCURVE",
"184 537 CURVE SMOOTH",
"184 523 OFFCURVE",
"189 512 OFFCURVE",
"199 512 CURVE SMOOTH",
"203 512 OFFCURVE",
"207 513 OFFCURVE",
"212 516 CURVE",
"377 534 LINE",
"303 435 OFFCURVE",
"91 157 OFFCURVE",
"68 81 CURVE SMOOTH",
"66 75 OFFCURVE",
"64 67 OFFCURVE",
"64 58 CURVE",
"19 53 OFFCURVE",
"-25 49 OFFCURVE",
"-35 47 CURVE SMOOTH",
"-61 43 OFFCURVE",
"-83 27 OFFCURVE",
"-83 18 CURVE SMOOTH",
"-83 13 OFFCURVE",
"-77 10 OFFCURVE",
"-64 12 CURVE SMOOTH",
"-48 14 OFFCURVE",
"30 23 OFFCURVE",
"52 24 CURVE SMOOTH",
"56 24 OFFCURVE",
"60 25 OFFCURVE",
"66 25 CURVE",
"71 9 OFFCURVE",
"81 -5 OFFCURVE",
"103 -9 CURVE",
"132 2 OFFCURVE",
"154 16 OFFCURVE",
"165 31 CURVE",
"196 34 LINE SMOOTH",
"184 33 OFFCURVE",
"174 33 OFFCURVE",
"167 33 CURVE",
"167 34 OFFCURVE",
"168 35 OFFCURVE",
"169 36 CURVE",
"325 46 LINE SMOOTH",
"327 46 OFFCURVE",
"301 6 OFFCURVE",
"278 -22 CURVE",
"303 3 OFFCURVE",
"322 30 OFFCURVE",
"337 46 CURVE",
"333 39 OFFCURVE",
"312 11 OFFCURVE",
"279 -26 CURVE SMOOTH",
"264 -42 OFFCURVE",
"254 -54 OFFCURVE",
"254 -60 CURVE"
);
}
);
width = 422;
}
);
note = I;
unicode = 0049;
},
{
glyphname = IJ;
lastChange = "2021-10-25 22:52:02 +0000";
layers = (
{
layerId = "B9003040-D3EC-4996-96A5-33D5E21FF9E0";
paths = (
{
closed = 1;
nodes = (
"435 -219 OFFCURVE",
"553 -97 OFFCURVE",
"639 8 CURVE",
"601 -43 OFFCURVE",
"562 -90 OFFCURVE",
"523 -128 CURVE",
"546 -118 OFFCURVE",
"589 -59 OFFCURVE",
"641 10 CURVE SMOOTH",
"639 8 LINE",
"645 16 LINE",
"641 10 LINE SMOOTH",
"681 63 OFFCURVE",
"718 108 OFFCURVE",
"736 133 CURVE SMOOTH",
"797 216 OFFCURVE",
"890 383 OFFCURVE",
"910 418 CURVE SMOOTH",
"911 420 OFFCURVE",
"856 332 OFFCURVE",
"834 300 CURVE SMOOTH",
"733 145 LINE",
"795 243 OFFCURVE",
"854 348 OFFCURVE",
"908 445 CURVE",
"933 471 OFFCURVE",
"979 520 OFFCURVE",
"979 555 CURVE SMOOTH",
"979 566 OFFCURVE",
"974 576 OFFCURVE",
"961 583 CURVE",
"960 609 OFFCURVE",
"933 631 OFFCURVE",
"908 631 CURVE SMOOTH",
"904 631 OFFCURVE",
"901 630 OFFCURVE",
"897 629 CURVE SMOOTH",
"893 628 OFFCURVE",
"889 625 OFFCURVE",
"886 621 CURVE",
"896 622 OFFCURVE",
"905 622 OFFCURVE",
"915 622 CURVE SMOOTH",
"919 622 OFFCURVE",
"922 620 OFFCURVE",
"922 618 CURVE SMOOTH",
"922 616 OFFCURVE",
"921 615 OFFCURVE",
"918 614 CURVE",
"908 616 OFFCURVE",
"896 616 OFFCURVE",
"883 616 CURVE",
"886 621 LINE",
"811 618 OFFCURVE",
"744 597 OFFCURVE",
"688 564 CURVE",
"737 592 OFFCURVE",
"820 616 OFFCURVE",
"883 616 CURVE",
"883 615 OFFCURVE",
"883 614 OFFCURVE",
"882 613 CURVE",
"711 608 OFFCURVE",
"622 511 OFFCURVE",
"570 430 CURVE",
"570 432 LINE",
"567 427 OFFCURVE",
"565 422 OFFCURVE",
"568 427 CURVE SMOOTH",
"570 430 LINE",
"565 415 OFFCURVE",
"562 399 OFFCURVE",
"562 383 CURVE SMOOTH",
"562 325 OFFCURVE",
"589 300 OFFCURVE",
"603 300 CURVE SMOOTH",
"608 300 OFFCURVE",
"611 303 OFFCURVE",
"611 309 CURVE SMOOTH",
"611 314 OFFCURVE",
"609 321 OFFCURVE",
"603 330 CURVE",
"594 401 OFFCURVE",
"713 494 OFFCURVE",
"731 507 CURVE SMOOTH",
"777 540 OFFCURVE",
"841 580 OFFCURVE",
"889 588 CURVE",
"891 586 LINE",
"890 469 OFFCURVE",
"435 -181 OFFCURVE",
"330 -183 CURVE SMOOTH",
"314 -183 OFFCURVE",
"306 -156 OFFCURVE",
"305 -140 CURVE SMOOTH",
"305 -130 OFFCURVE",
"306 -124 OFFCURVE",
"308 -117 CURVE SMOOTH",
"325 -36 OFFCURVE",
"384 49 OFFCURVE",
"433 75 CURVE SMOOTH",
"438 78 OFFCURVE",
"442 79 OFFCURVE",
"445 79 CURVE SMOOTH",
"451 79 OFFCURVE",
"453 74 OFFCURVE",
"453 66 CURVE SMOOTH",
"453 49 OFFCURVE",
"441 18 OFFCURVE",
"437 9 CURVE SMOOTH",
"425 -19 OFFCURVE",
"425 -28 OFFCURVE",
"429 -28 CURVE SMOOTH",
"431 -28 OFFCURVE",
"434 -26 OFFCURVE",
"437 -23 CURVE SMOOTH",
"477 14 OFFCURVE",
"485 73 OFFCURVE",
"487 85 CURVE SMOOTH",
"489 108 OFFCURVE",
"381 140 OFFCURVE",
"370 142 CURVE",
"322 122 OFFCURVE",
"277 23 OFFCURVE",
"259 -24 CURVE",
"250 -35 OFFCURVE",
"246 -52 OFFCURVE",
"246 -71 CURVE SMOOTH",
"246 -118 OFFCURVE",
"270 -174 OFFCURVE",
"295 -183 CURVE",
"307 -208 OFFCURVE",
"331 -219 OFFCURVE",
"354 -219 CURVE SMOOTH"
);
},
{
closed = 1;
nodes = (
"262 -60 OFFCURVE",
"407 51 OFFCURVE",
"407 64 CURVE SMOOTH",
"407 71 OFFCURVE",
"400 91 OFFCURVE",
"389 91 CURVE SMOOTH",
"386 91 OFFCURVE",
"378 99 OFFCURVE",
"371 99 CURVE SMOOTH",
"370 99 LINE SMOOTH",
"298 84 OFFCURVE",
"223 75 OFFCURVE",
"175 70 CURVE SMOOTH",
"164 69 LINE",
"157 76 OFFCURVE",
"144 82 OFFCURVE",
"124 85 CURVE",
"125 87 OFFCURVE",
"131 106 OFFCURVE",
"142 120 CURVE SMOOTH",
"208 207 OFFCURVE",
"444 489 OFFCURVE",
"492 540 CURVE",
"493 543 OFFCURVE",
"493 545 OFFCURVE",
"493 548 CURVE",
"508 549 LINE",
"512 550 OFFCURVE",
"399 426 OFFCURVE",
"403 426 CURVE SMOOTH",
"408 427 OFFCURVE",
"528 552 OFFCURVE",
"533 552 CURVE",
"654 567 OFFCURVE",
"683 580 OFFCURVE",
"683 592 CURVE SMOOTH",
"683 604 OFFCURVE",
"652 615 OFFCURVE",
"659 623 CURVE SMOOTH",
"663 627 OFFCURVE",
"666 632 OFFCURVE",
"666 636 CURVE SMOOTH",
"666 638 OFFCURVE",
"665 639 OFFCURVE",
"663 639 CURVE SMOOTH",
"662 639 OFFCURVE",
"660 638 OFFCURVE",
"658 637 CURVE SMOOTH",
"653 634 OFFCURVE",
"659 600 OFFCURVE",
"490 593 CURVE SMOOTH",
"475 592 LINE",
"458 592 LINE",
"442 602 OFFCURVE",
"425 610 OFFCURVE",
"414 614 CURVE SMOOTH",
"410 615 OFFCURVE",
"406 616 OFFCURVE",
"404 616 CURVE SMOOTH",
"397 616 OFFCURVE",
"395 612 OFFCURVE",
"395 608 CURVE SMOOTH",
"395 604 OFFCURVE",
"397 599 OFFCURVE",
"398 595 CURVE SMOOTH",
"398 594 OFFCURVE",
"398 592 OFFCURVE",
"397 589 CURVE",
"318 586 LINE",
"321 591 OFFCURVE",
"323 596 OFFCURVE",
"323 601 CURVE SMOOTH",
"323 603 OFFCURVE",
"323 605 OFFCURVE",
"322 607 CURVE SMOOTH",
"320 614 OFFCURVE",
"318 617 OFFCURVE",
"316 617 CURVE SMOOTH",
"314 617 OFFCURVE",
"312 614 OFFCURVE",
"310 611 CURVE SMOOTH",
"306 603 OFFCURVE",
"275 598 OFFCURVE",
"252 597 CURVE SMOOTH",
"239 597 OFFCURVE",
"226 601 OFFCURVE",
"215 601 CURVE SMOOTH",
"205 601 OFFCURVE",
"198 597 OFFCURVE",
"198 584 CURVE",
"196 584 LINE",
"189 569 OFFCURVE",
"184 551 OFFCURVE",
"184 537 CURVE SMOOTH",
"184 523 OFFCURVE",
"189 512 OFFCURVE",
"199 512 CURVE SMOOTH",
"203 512 OFFCURVE",
"207 513 OFFCURVE",
"212 516 CURVE",
"377 534 LINE",
"303 435 OFFCURVE",
"91 157 OFFCURVE",
"68 81 CURVE SMOOTH",
"66 75 OFFCURVE",
"64 67 OFFCURVE",
"64 58 CURVE",
"19 53 OFFCURVE",
"-25 49 OFFCURVE",
"-35 47 CURVE SMOOTH",
"-61 43 OFFCURVE",
"-83 27 OFFCURVE",
"-83 18 CURVE SMOOTH",
"-83 13 OFFCURVE",
"-77 10 OFFCURVE",
"-64 12 CURVE SMOOTH",
"-48 14 OFFCURVE",
"30 23 OFFCURVE",
"52 24 CURVE SMOOTH",
"56 24 OFFCURVE",
"60 25 OFFCURVE",
"66 25 CURVE",
"71 9 OFFCURVE",
"81 -5 OFFCURVE",
"103 -9 CURVE",
"132 2 OFFCURVE",
"154 16 OFFCURVE",
"165 31 CURVE",
"196 34 LINE SMOOTH",
"184 33 OFFCURVE",
"174 33 OFFCURVE",
"167 33 CURVE",
"167 34 OFFCURVE",
"168 35 OFFCURVE",
"169 36 CURVE",
"325 46 LINE SMOOTH",
"327 46 OFFCURVE",
"301 6 OFFCURVE",
"278 -22 CURVE",
"303 3 OFFCURVE",
"322 30 OFFCURVE",
"337 46 CURVE",
"333 39 OFFCURVE",
"312 11 OFFCURVE",
"279 -26 CURVE SMOOTH",
"264 -42 OFFCURVE",
"254 -54 OFFCURVE",
"254 -60 CURVE"
);
},
{
closed = 1;
nodes = (
"572 434 OFFCURVE",
"573 437 OFFCURVE",
"574 439 CURVE SMOOTH",
"596 486 OFFCURVE",
"630 527 OFFCURVE",
"675 556 CURVE",
"670 554 OFFCURVE",
"665 551 OFFCURVE",
"662 549 CURVE SMOOTH",
"629 524 OFFCURVE",
"588 484 OFFCURVE",
"570 432 CURVE"
);
},
);
width = 839;
}
);
note = IJ;
unicode = 0132;
},
{
glyphname = J;
lastChange = "2021-10-25 22:52:02 +0000";
layers = (
{
layerId = "B9003040-D3EC-4996-96A5-33D5E21FF9E0";
paths = (
{
closed = 1;
nodes = (
"136 -219 OFFCURVE",
"254 -97 OFFCURVE",
"340 8 CURVE",
"302 -43 OFFCURVE",
"263 -90 OFFCURVE",
"224 -128 CURVE",
"247 -118 OFFCURVE",
"290 -59 OFFCURVE",
"342 10 CURVE SMOOTH",
"340 8 LINE",
"346 16 LINE",
"342 10 LINE SMOOTH",
"382 63 OFFCURVE",
"419 108 OFFCURVE",
"437 133 CURVE SMOOTH",
"498 216 OFFCURVE",
"591 383 OFFCURVE",
"611 418 CURVE SMOOTH",
"612 420 OFFCURVE",
"557 332 OFFCURVE",
"535 300 CURVE SMOOTH",
"434 145 LINE",
"496 243 OFFCURVE",
"555 348 OFFCURVE",
"609 445 CURVE",
"634 471 OFFCURVE",
"680 520 OFFCURVE",
"680 555 CURVE SMOOTH",
"680 566 OFFCURVE",
"675 576 OFFCURVE",
"662 583 CURVE",
"661 609 OFFCURVE",
"634 631 OFFCURVE",
"609 631 CURVE SMOOTH",
"605 631 OFFCURVE",
"602 630 OFFCURVE",
"598 629 CURVE SMOOTH",
"594 628 OFFCURVE",
"590 625 OFFCURVE",
"587 621 CURVE",
"597 622 OFFCURVE",
"606 622 OFFCURVE",
"616 622 CURVE SMOOTH",
"620 622 OFFCURVE",
"623 620 OFFCURVE",
"623 618 CURVE SMOOTH",
"623 616 OFFCURVE",
"622 615 OFFCURVE",
"619 614 CURVE",
"609 616 OFFCURVE",
"597 616 OFFCURVE",
"584 616 CURVE",
"587 621 LINE",
"512 618 OFFCURVE",
"445 597 OFFCURVE",
"389 564 CURVE",
"438 592 OFFCURVE",
"521 616 OFFCURVE",
"584 616 CURVE",
"584 615 OFFCURVE",
"584 614 OFFCURVE",
"583 613 CURVE",
"412 608 OFFCURVE",
"323 511 OFFCURVE",
"271 430 CURVE",
"271 432 LINE",
"268 427 OFFCURVE",
"266 422 OFFCURVE",
"269 427 CURVE SMOOTH",
"271 430 LINE",
"266 415 OFFCURVE",
"263 399 OFFCURVE",
"263 383 CURVE SMOOTH",
"263 325 OFFCURVE",
"290 300 OFFCURVE",
"304 300 CURVE SMOOTH",
"309 300 OFFCURVE",
"312 303 OFFCURVE",
"312 309 CURVE SMOOTH",
"312 314 OFFCURVE",
"310 321 OFFCURVE",
"304 330 CURVE",
"295 401 OFFCURVE",
"414 494 OFFCURVE",
"432 507 CURVE SMOOTH",
"478 540 OFFCURVE",
"542 580 OFFCURVE",
"590 588 CURVE",
"592 586 LINE",
"591 469 OFFCURVE",
"136 -181 OFFCURVE",
"31 -183 CURVE SMOOTH",
"15 -183 OFFCURVE",
"7 -156 OFFCURVE",
"6 -140 CURVE SMOOTH",
"6 -130 OFFCURVE",
"7 -124 OFFCURVE",
"9 -117 CURVE SMOOTH",
"26 -36 OFFCURVE",
"85 49 OFFCURVE",
"134 75 CURVE SMOOTH",
"139 78 OFFCURVE",
"143 79 OFFCURVE",
"146 79 CURVE SMOOTH",
"152 79 OFFCURVE",
"154 74 OFFCURVE",
"154 66 CURVE SMOOTH",
"154 49 OFFCURVE",
"142 18 OFFCURVE",
"138 9 CURVE SMOOTH",
"126 -19 OFFCURVE",
"126 -28 OFFCURVE",
"130 -28 CURVE SMOOTH",
"132 -28 OFFCURVE",
"135 -26 OFFCURVE",
"138 -23 CURVE SMOOTH",
"178 14 OFFCURVE",
"186 73 OFFCURVE",
"188 85 CURVE SMOOTH",
"190 108 OFFCURVE",
"82 140 OFFCURVE",
"71 142 CURVE",
"23 122 OFFCURVE",
"-22 23 OFFCURVE",
"-40 -24 CURVE",
"-49 -35 OFFCURVE",
"-53 -52 OFFCURVE",
"-53 -71 CURVE SMOOTH",
"-53 -118 OFFCURVE",
"-29 -174 OFFCURVE",
"-4 -183 CURVE",
"8 -208 OFFCURVE",
"32 -219 OFFCURVE",
"55 -219 CURVE SMOOTH"
);
},
{
closed = 1;
nodes = (
"273 434 OFFCURVE",
"274 437 OFFCURVE",
"275 439 CURVE SMOOTH",
"297 486 OFFCURVE",
"331 527 OFFCURVE",
"376 556 CURVE",
"371 554 OFFCURVE",
"366 551 OFFCURVE",
"363 549 CURVE SMOOTH",
"330 524 OFFCURVE",
"289 484 OFFCURVE",
"271 432 CURVE"
);
},
);
width = 540;
}
);
note = J;
unicode = 004A;
},
{
glyphname = K;
lastChange = "2021-10-25 22:52:02 +0000";
layers = (
{
layerId = "B9003040-D3EC-4996-96A5-33D5E21FF9E0";
paths = (
{
closed = 1;
nodes = (
"269 -38 OFFCURVE",
"346 82 OFFCURVE",
"401 165 CURVE",
"419 87 OFFCURVE",
"468 29 OFFCURVE",
"505 0 CURVE",
"506 -12 OFFCURVE",
"514 -26 OFFCURVE",
"550 -35 CURVE SMOOTH",
"566 -39 OFFCURVE",
"621 -3 OFFCURVE",
"614 8 CURVE SMOOTH",
"611 13 OFFCURVE",
"608 16 OFFCURVE",
"605 18 CURVE",
"629 41 OFFCURVE",
"651 68 OFFCURVE",
"659 89 CURVE SMOOTH",
"660 93 OFFCURVE",
"661 95 OFFCURVE",
"661 97 CURVE SMOOTH",
"661 100 OFFCURVE",
"659 101 OFFCURVE",
"657 101 CURVE SMOOTH",
"652 101 OFFCURVE",
"644 96 OFFCURVE",
"640 91 CURVE SMOOTH",
"633 83 OFFCURVE",
"618 60 OFFCURVE",
"588 60 CURVE SMOOTH",
"556 60 OFFCURVE",
"505 87 OFFCURVE",
"427 191 CURVE",
"434 190 OFFCURVE",
"442 190 OFFCURVE",
"452 191 CURVE",
"446 189 OFFCURVE",
"443 188 OFFCURVE",
"445 188 CURVE",
"456 191 LINE",
"452 191 LINE",
"531 218 LINE SMOOTH",
"560 228 OFFCURVE",
"628 248 OFFCURVE",
"675 274 CURVE SMOOTH",
"691 283 OFFCURVE",
"733 303 OFFCURVE",
"779 333 CURVE",
"721 293 OFFCURVE",
"658 256 OFFCURVE",
"598 233 CURVE",
"628 243 OFFCURVE",
"655 252 OFFCURVE",
"671 261 CURVE SMOOTH",
"785 323 OFFCURVE",
"856 364 OFFCURVE",
"913 445 CURVE",
"879 402 OFFCURVE",
"827 363 OFFCURVE",
"779 333 CURVE",
"873 397 OFFCURVE",
"947 475 OFFCURVE",
"947 546 CURVE SMOOTH",
"947 588 OFFCURVE",
"923 625 OFFCURVE",
"895 625 CURVE SMOOTH",
"872 625 OFFCURVE",
"866 620 OFFCURVE",
"866 611 CURVE SMOOTH",
"866 602 OFFCURVE",
"873 589 OFFCURVE",
"873 576 CURVE SMOOTH",
"873 515 OFFCURVE",
"740 389 OFFCURVE",
"687 351 CURVE SMOOTH",
"609 296 OFFCURVE",
"533 253 OFFCURVE",
"446 229 CURVE",
"499 306 OFFCURVE",
"546 395 OFFCURVE",
"564 426 CURVE SMOOTH",
"565 428 OFFCURVE",
"511 339 OFFCURVE",
"489 307 CURVE SMOOTH",
"472 281 OFFCURVE",
"465 271 OFFCURVE",
"465 272 CURVE SMOOTH",
"465 275 OFFCURVE",
"520 364 OFFCURVE",
"568 445 CURVE",
"593 471 OFFCURVE",
"639 520 OFFCURVE",
"639 555 CURVE SMOOTH",
"639 566 OFFCURVE",
"634 576 OFFCURVE",
"621 583 CURVE",
"620 609 OFFCURVE",
"593 631 OFFCURVE",
"568 631 CURVE SMOOTH",
"564 631 OFFCURVE",
"561 630 OFFCURVE",
"557 629 CURVE SMOOTH",
"547 626 OFFCURVE",
"542 617 OFFCURVE",
"542 607 CURVE SMOOTH",
"542 604 OFFCURVE",
"542 600 OFFCURVE",
"544 596 CURVE",
"510 603 OFFCURVE",
"477 607 OFFCURVE",
"445 607 CURVE SMOOTH",
"414 607 OFFCURVE",
"384 603 OFFCURVE",
"356 597 CURVE",
"378 602 OFFCURVE",
"405 604 OFFCURVE",
"433 604 CURVE SMOOTH",
"472 604 OFFCURVE",
"513 599 OFFCURVE",
"547 590 CURVE",
"544 596 LINE",
"557 593 OFFCURVE",
"570 589 OFFCURVE",
"584 585 CURVE SMOOTH",
"587 584 OFFCURVE",
"589 581 OFFCURVE",
"589 579 CURVE SMOOTH",
"589 577 OFFCURVE",
"588 576 OFFCURVE",
"585 576 CURVE",
"574 582 OFFCURVE",
"561 587 OFFCURVE",
"547 590 CURVE",
"548 589 OFFCURVE",
"549 587 OFFCURVE",
"551 586 CURVE",
"513 596 OFFCURVE",
"478 601 OFFCURVE",
"446 601 CURVE SMOOTH",
"335 601 OFFCURVE",
"255 550 OFFCURVE",
"197 501 CURVE SMOOTH",
"199 503 LINE SMOOTH",
"195 499 OFFCURVE",
"191 496 OFFCURVE",
"195 499 CURVE SMOOTH",
"196 500 LINE SMOOTH",
"182 479 OFFCURVE",
"171 452 OFFCURVE",
"171 424 CURVE SMOOTH",
"171 385 OFFCURVE",
"198 363 OFFCURVE",
"215 363 CURVE SMOOTH",
"224 363 OFFCURVE",
"230 368 OFFCURVE",
"230 379 CURVE SMOOTH",
"230 383 OFFCURVE",
"229 387 OFFCURVE",
"228 391 CURVE",
"240 461 OFFCURVE",
"354 521 OFFCURVE",
"374 529 CURVE SMOOTH",
"421 545 OFFCURVE",
"482 562 OFFCURVE",
"528 562 CURVE SMOOTH",
"534 562 OFFCURVE",
"540 562 OFFCURVE",
"545 561 CURVE",
"514 473 OFFCURVE",
"359 235 OFFCURVE",
"286 143 CURVE SMOOTH",
"252 101 OFFCURVE",
"166 3 OFFCURVE",
"110 -12 CURVE SMOOTH",
"96 -17 OFFCURVE",
"86 14 OFFCURVE",
"86 30 CURVE SMOOTH",
"86 44 OFFCURVE",
"88 49 OFFCURVE",
"89 62 CURVE",
"90 65 OFFCURVE",
"91 68 OFFCURVE",
"91 70 CURVE",
"121 134 OFFCURVE",
"180 194 OFFCURVE",
"222 209 CURVE SMOOTH",
"232 212 OFFCURVE",
"236 207 OFFCURVE",
"236 200 CURVE SMOOTH",
"236 194 OFFCURVE",
"233 185 OFFCURVE",
"229 178 CURVE SMOOTH",
"222 166 OFFCURVE",
"219 158 OFFCURVE",
"219 153 CURVE SMOOTH",
"219 148 OFFCURVE",
"222 146 OFFCURVE",
"225 146 CURVE SMOOTH",
"229 146 OFFCURVE",
"235 148 OFFCURVE",
"239 151 CURVE SMOOTH",
"265 170 OFFCURVE",
"269 182 OFFCURVE",
"269 191 CURVE SMOOTH",
"269 198 OFFCURVE",
"267 203 OFFCURVE",
"268 208 CURVE SMOOTH",
"272 220 OFFCURVE",
"246 226 OFFCURVE",
"223 242 CURVE",
"223 272 OFFCURVE",
"195 278 OFFCURVE",
"183 277 CURVE",
"140 268 OFFCURVE",
"90 213 OFFCURVE",
"66 163 CURVE",
"50 149 OFFCURVE",
"43 117 OFFCURVE",
"43 85 CURVE SMOOTH",
"43 45 OFFCURVE",
"53 6 OFFCURVE",
"70 3 CURVE",
"77 -32 OFFCURVE",
"103 -51 OFFCURVE",
"129 -49 CURVE SMOOTH"
);
},
{
closed = 1;
nodes = (
"489 195 OFFCURVE",
"533 209 OFFCURVE",
"582 227 CURVE",
"534 210 OFFCURVE",
"482 198 OFFCURVE",
"456 191 CURVE"
);
},
{
closed = 1;
nodes = (
"201 505 OFFCURVE",
"203 507 OFFCURVE",
"204 509 CURVE",
"238 547 OFFCURVE",
"281 576 OFFCURVE",
"331 591 CURVE SMOOTH",
"321 588 LINE SMOOTH",
"282 575 OFFCURVE",
"231 548 OFFCURVE",
"199 503 CURVE"
);
},
{
closed = 1;
nodes = (
"583 227 OFFCURVE",
"585 228 OFFCURVE",
"587 229 CURVE",
"585 228 OFFCURVE",
"583 227 OFFCURVE",
"582 227 CURVE"
);
},
{
closed = 1;
nodes = (
"590 230 OFFCURVE",
"594 231 OFFCURVE",
"598 233 CURVE",
"594 231 OFFCURVE",
"590 230 OFFCURVE",
"587 229 CURVE"
);
},
);
width = 712;
}
);
note = K;
unicode = 004B;
},
{
glyphname = L;
lastChange = "2021-10-25 22:52:02 +0000";
layers = (
{
layerId = "B9003040-D3EC-4996-96A5-33D5E21FF9E0";
paths = (
{
closed = 1;
nodes = (
"473 -18 OFFCURVE",
"493 -3 OFFCURVE",
"499 2 CURVE SMOOTH",
"520 22 OFFCURVE",
"538 47 OFFCURVE",
"538 68 CURVE SMOOTH",
"538 84 OFFCURVE",
"528 99 OFFCURVE",
"500 109 CURVE SMOOTH",
"479 117 OFFCURVE",
"457 122 OFFCURVE",
"433 124 CURVE",
"463 122 OFFCURVE",
"491 117 OFFCURVE",
"515 107 CURVE",
"499 122 OFFCURVE",
"444 129 OFFCURVE",
"415 129 CURVE SMOOTH",
"379 129 OFFCURVE",
"197 106 OFFCURVE",
"168 92 CURVE",
"166 92 OFFCURVE",
"165 91 OFFCURVE",
"164 91 CURVE",
"195 133 OFFCURVE",
"243 189 OFFCURVE",
"298 248 CURVE SMOOTH",
"324 277 OFFCURVE",
"405 385 OFFCURVE",
"418 399 CURVE SMOOTH",
"423 405 OFFCURVE",
"425 406 OFFCURVE",
"425 406 CURVE",
"425 401 OFFCURVE",
"374 332 OFFCURVE",
"362 319 CURVE SMOOTH",
"337 290 OFFCURVE",
"296 242 OFFCURVE",
"295 235 CURVE",
"312 253 OFFCURVE",
"430 397 OFFCURVE",
"493 463 CURVE SMOOTH",
"545 518 OFFCURVE",
"587 556 OFFCURVE",
"587 577 CURVE SMOOTH",
"587 598 OFFCURVE",
"541 628 OFFCURVE",
"518 639 CURVE",
"509 642 OFFCURVE",
"501 643 OFFCURVE",
"495 643 CURVE SMOOTH",
"477 643 OFFCURVE",
"472 632 OFFCURVE",
"472 619 CURVE SMOOTH",
"472 609 OFFCURVE",
"475 599 OFFCURVE",
"477 592 CURVE",
"374 463 OFFCURVE",
"256 316 OFFCURVE",
"157 190 CURVE SMOOTH",
"122 145 OFFCURVE",
"90 105 OFFCURVE",
"62 61 CURVE",
"59 59 OFFCURVE",
"59 55 OFFCURVE",
"59 50 CURVE SMOOTH",
"59 44 OFFCURVE",
"60 37 OFFCURVE",
"60 32 CURVE",
"62 33 OFFCURVE",
"64 33 OFFCURVE",
"66 33 CURVE",
"65 26 OFFCURVE",
"66 20 OFFCURVE",
"70 16 CURVE SMOOTH",
"77 8 OFFCURVE",
"83 -11 OFFCURVE",
"102 -11 CURVE SMOOTH",
"105 -11 OFFCURVE",
"109 -11 OFFCURVE",
"114 -9 CURVE SMOOTH",
"119 -7 OFFCURVE",
"232 23 OFFCURVE",
"259 29 CURVE SMOOTH",
"262 30 OFFCURVE",
"256 30 OFFCURVE",
"249 29 CURVE SMOOTH",
"225 24 OFFCURVE",
"167 10 OFFCURVE",
"144 4 CURVE",
"192 21 OFFCURVE",
"281 40 OFFCURVE",
"337 47 CURVE SMOOTH",
"366 50 OFFCURVE",
"391 52 OFFCURVE",
"411 52 CURVE SMOOTH",
"451 52 OFFCURVE",
"475 45 OFFCURVE",
"475 25 CURVE SMOOTH",
"475 18 OFFCURVE",
"472 10 OFFCURVE",
"467 0 CURVE SMOOTH",
"463 -7 OFFCURVE",
"461 -11 OFFCURVE",
"461 -14 CURVE SMOOTH",
"461 -17 OFFCURVE",
"463 -18 OFFCURVE",
"465 -18 CURVE SMOOTH"
);
},
{
closed = 1;
nodes = (
"219 103 OFFCURVE",
"300 116 OFFCURVE",
"320 119 CURVE SMOOTH",
"353 123 OFFCURVE",
"381 125 OFFCURVE",
"406 125 CURVE SMOOTH",
"415 125 OFFCURVE",
"423 125 OFFCURVE",
"431 124 CURVE",
"384 126 OFFCURVE",
"336 121 OFFCURVE",
"305 115 CURVE SMOOTH",
"275 108 OFFCURVE",
"207 99 OFFCURVE",
"178 94 CURVE"
);
}
);
width = 544;
}
);
note = L;
unicode = 004C;
},
{
glyphname = M;
lastChange = "2021-10-25 22:52:02 +0000";
layers = (
{
layerId = "B9003040-D3EC-4996-96A5-33D5E21FF9E0";
paths = (
{
closed = 1;
nodes = (
"833 -143 OFFCURVE",
"858 -129 OFFCURVE",
"858 -115 CURVE SMOOTH",
"858 -103 OFFCURVE",
"841 -91 OFFCURVE",
"804 -85 CURVE",
"804 -83 OFFCURVE",
"782 -77 OFFCURVE",
"762 -74 CURVE",
"765 -48 LINE",
"766 -64 OFFCURVE",
"769 -45 OFFCURVE",
"778 1 CURVE SMOOTH",
"792 82 OFFCURVE",
"887 305 OFFCURVE",
"907 340 CURVE SMOOTH",
"913 351 OFFCURVE",
"916 360 OFFCURVE",
"915 360 CURVE SMOOTH",
"914 360 OFFCURVE",
"914 359 OFFCURVE",
"913 358 CURVE",
"888 317 OFFCURVE",
"846 230 OFFCURVE",
"813 146 CURVE",
"842 232 OFFCURVE",
"885 327 OFFCURVE",
"945 406 CURVE SMOOTH",
"954 419 OFFCURVE",
"886 484 OFFCURVE",
"872 483 CURVE SMOOTH",
"847 480 OFFCURVE",
"665 294 OFFCURVE",
"653 283 CURVE",
"685 331 OFFCURVE",
"757 433 OFFCURVE",
"782 474 CURVE",
"782 495 OFFCURVE",
"732 531 OFFCURVE",
"712 531 CURVE",
"653 485 OFFCURVE",
"496 354 OFFCURVE",
"404 273 CURVE",
"483 382 OFFCURVE",
"579 495 OFFCURVE",
"646 566 CURVE",
"647 569 OFFCURVE",
"647 571 OFFCURVE",
"647 574 CURVE SMOOTH",
"647 603 OFFCURVE",
"592 632 OFFCURVE",
"568 640 CURVE SMOOTH",
"564 641 OFFCURVE",
"560 642 OFFCURVE",
"558 642 CURVE SMOOTH",
"552 642 OFFCURVE",
"550 639 OFFCURVE",
"550 635 CURVE SMOOTH",
"550 632 LINE",
"505 641 OFFCURVE",
"451 645 OFFCURVE",
"399 645 CURVE SMOOTH",
"331 645 OFFCURVE",
"265 639 OFFCURVE",
"222 629 CURVE SMOOTH",
"137 610 OFFCURVE",
"17 566 OFFCURVE",
"-9 482 CURVE SMOOTH",
"-12 473 OFFCURVE",
"-13 465 OFFCURVE",
"-13 457 CURVE SMOOTH",
"-13 423 OFFCURVE",
"11 404 OFFCURVE",
"27 404 CURVE SMOOTH",
"35 404 OFFCURVE",
"41 408 OFFCURVE",
"41 418 CURVE SMOOTH",
"41 422 OFFCURVE",
"40 427 OFFCURVE",
"37 433 CURVE",
"56 504 OFFCURVE",
"233 564 OFFCURVE",
"265 572 CURVE SMOOTH",
"345 589 OFFCURVE",
"443 601 OFFCURVE",
"506 601 CURVE SMOOTH",
"521 601 OFFCURVE",
"534 601 OFFCURVE",
"545 599 CURVE",
"538 574 OFFCURVE",
"504 538 OFFCURVE",
"488 520 CURVE",
"501 522 OFFCURVE",
"516 554 OFFCURVE",
"543 575 CURVE",
"480 490 OFFCURVE",
"210 140 OFFCURVE",
"210 73 CURVE SMOOTH",
"210 44 OFFCURVE",
"238 -5 OFFCURVE",
"285 -10 CURVE",
"293 -10 OFFCURVE",
"296 -8 OFFCURVE",
"296 -5 CURVE SMOOTH",
"296 -1 OFFCURVE",
"291 4 OFFCURVE",
"285 10 CURVE SMOOTH",
"278 16 OFFCURVE",
"275 26 OFFCURVE",
"275 38 CURVE SMOOTH",
"275 73 OFFCURVE",
"301 123 OFFCURVE",
"318 140 CURVE SMOOTH",
"340 162 OFFCURVE",
"378 194 OFFCURVE",
"449 260 CURVE",
"452 265 OFFCURVE",
"326 158 OFFCURVE",
"329 164 CURVE",
"422 255 OFFCURVE",
"689 473 OFFCURVE",
"691 475 CURVE",
"662 435 OFFCURVE",
"523 210 OFFCURVE",
"523 162 CURVE SMOOTH",
"523 138 OFFCURVE",
"538 105 OFFCURVE",
"563 103 CURVE",
"589 168 OFFCURVE",
"794 359 OFFCURVE",
"842 405 CURVE",
"830 383 OFFCURVE",
"722 109 OFFCURVE",
"722 -18 CURVE SMOOTH",
"722 -32 OFFCURVE",
"724 -45 OFFCURVE",
"727 -55 CURVE SMOOTH",
"734 -75 LINE",
"736 -108 OFFCURVE",
"741 -139 OFFCURVE",
"787 -148 CURVE"
);
},
{
closed = 1;
nodes = (
"765 -42 OFFCURVE",
"765 -35 OFFCURVE",
"766 -27 CURVE SMOOTH",
"767 14 OFFCURVE",
"787 79 OFFCURVE",
"813 146 CURVE",
"788 70 OFFCURVE",
"773 1 OFFCURVE",
"765 -46 CURVE"
);
}
);
width = 872;
}
);
note = M;
unicode = 004D;
},
{
glyphname = N;
lastChange = "2021-10-25 22:52:02 +0000";
layers = (
{
layerId = "B9003040-D3EC-4996-96A5-33D5E21FF9E0";
paths = (
{
closed = 1;
nodes = (
"596 -23 OFFCURVE",
"601 -22 OFFCURVE",
"601 -19 CURVE SMOOTH",
"601 -17 OFFCURVE",
"599 -15 OFFCURVE",
"595 -12 CURVE SMOOTH",
"585 -5 OFFCURVE",
"580 10 OFFCURVE",
"580 30 CURVE SMOOTH",
"580 85 OFFCURVE",
"616 180 OFFCURVE",
"667 265 CURVE SMOOTH",
"726 363 OFFCURVE",
"798 460 OFFCURVE",
"820 493 CURVE",
"822 514 OFFCURVE",
"774 548 OFFCURVE",
"754 547 CURVE",
"669 507 OFFCURVE",
"494 347 OFFCURVE",
"397 263 CURVE",
"384 247 OFFCURVE",
"369 232 OFFCURVE",
"355 216 CURVE",
"458 347 OFFCURVE",
"623 540 OFFCURVE",
"662 580 CURVE",
"663 583 OFFCURVE",
"664 586 OFFCURVE",
"664 589 CURVE SMOOTH",
"664 618 OFFCURVE",
"612 644 OFFCURVE",
"589 651 CURVE SMOOTH",
"585 652 OFFCURVE",
"582 653 OFFCURVE",
"579 653 CURVE SMOOTH",
"572 653 OFFCURVE",
"570 648 OFFCURVE",
"570 642 CURVE",
"549 646 OFFCURVE",
"526 648 OFFCURVE",
"502 650 CURVE",
"521 648 OFFCURVE",
"541 646 OFFCURVE",
"561 643 CURVE SMOOTH",
"568 642 OFFCURVE",
"573 640 OFFCURVE",
"573 637 CURVE SMOOTH",
"573 635 OFFCURVE",
"570 634 OFFCURVE",
"563 634 CURVE SMOOTH",
"561 634 OFFCURVE",
"558 635 OFFCURVE",
"555 635 CURVE SMOOTH",
"499 642 OFFCURVE",
"450 646 OFFCURVE",
"405 646 CURVE SMOOTH",
"365 646 OFFCURVE",
"330 643 OFFCURVE",
"298 638 CURVE SMOOTH",
"355 647 OFFCURVE",
"427 652 OFFCURVE",
"493 650 CURVE",
"465 652 OFFCURVE",
"438 653 OFFCURVE",
"413 653 CURVE SMOOTH",
"239 653 OFFCURVE",
"114 609 OFFCURVE",
"39 529 CURVE",
"91 580 OFFCURVE",
"178 611 OFFCURVE",
"242 627 CURVE SMOOTH",
"261 631 LINE SMOOTH",
"151 607 OFFCURVE",
"84 557 OFFCURVE",
"27 512 CURVE SMOOTH",
"20 507 OFFCURVE",
"29 518 OFFCURVE",
"35 525 CURVE SMOOTH",
"20 509 OFFCURVE",
"8 492 OFFCURVE",
"1 473 CURVE SMOOTH",
"-3 462 OFFCURVE",
"-5 452 OFFCURVE",
"-5 443 CURVE SMOOTH",
"-5 412 OFFCURVE",
"16 396 OFFCURVE",
"32 396 CURVE SMOOTH",
"40 396 OFFCURVE",
"47 401 OFFCURVE",
"47 412 CURVE SMOOTH",
"47 415 OFFCURVE",
"46 420 OFFCURVE",
"44 425 CURVE",
"68 497 OFFCURVE",
"249 564 OFFCURVE",
"282 572 CURVE SMOOTH",
"371 594 OFFCURVE",
"481 611 OFFCURVE",
"542 611 CURVE SMOOTH",
"550 611 OFFCURVE",
"557 611 OFFCURVE",
"563 610 CURVE",
"554 584 OFFCURVE",
"535 571 OFFCURVE",
"518 553 CURVE",
"531 555 OFFCURVE",
"531 563 OFFCURVE",
"559 586 CURVE",
"492 501 OFFCURVE",
"219 161 OFFCURVE",
"189 79 CURVE SMOOTH",
"184 65 OFFCURVE",
"176 44 OFFCURVE",
"176 26 CURVE SMOOTH",
"176 10 OFFCURVE",
"183 -2 OFFCURVE",
"206 -1 CURVE",
"260 7 OFFCURVE",
"299 29 OFFCURVE",
"299 47 CURVE SMOOTH",
"299 57 OFFCURVE",
"287 66 OFFCURVE",
"258 70 CURVE",
"297 126 OFFCURVE",
"318 143 OFFCURVE",
"390 215 CURVE",
"384 214 OFFCURVE",
"326 153 OFFCURVE",
"315 151 CURVE",
"380 228 OFFCURVE",
"694 488 OFFCURVE",
"729 491 CURVE",
"706 461 OFFCURVE",
"604 306 OFFCURVE",
"552 189 CURVE",
"554 197 OFFCURVE",
"574 245 OFFCURVE",
"573 244 CURVE",
"554 214 OFFCURVE",
"521 131 OFFCURVE",
"521 65 CURVE SMOOTH",
"521 20 OFFCURVE",
"537 -17 OFFCURVE",
"586 -22 CURVE SMOOTH"
);
}
);
width = 679;
}
);
note = N;
unicode = 004E;
},
{
glyphname = Eng;
lastChange = "2021-10-25 22:52:02 +0000";
layers = (
{
background = {
paths = (
{
closed = 1;
nodes = (
"587 598 OFFCURVE",
"541 628 OFFCURVE",
"518 639 CURVE",
"459 656 OFFCURVE",
"471 611 OFFCURVE",
"477 592 CURVE",
"374 463 OFFCURVE",
"256 316 OFFCURVE",
"157 190 CURVE SMOOTH",
"122 145 OFFCURVE",
"90 105 OFFCURVE",
"62 61 CURVE",
"55 55 OFFCURVE",
"64 22 OFFCURVE",
"70 16 CURVE SMOOTH",
"78 7 OFFCURVE",
"85 -19 OFFCURVE",
"114 -9 CURVE SMOOTH",
"112 -10 OFFCURVE",
"167 86 OFFCURVE",
"168 87 CURVE",
"166 87 OFFCURVE",
"165 91 OFFCURVE",
"164 91 CURVE",
"195 133 OFFCURVE",
"243 189 OFFCURVE",
"298 248 CURVE SMOOTH",
"324 277 OFFCURVE",
"405 385 OFFCURVE",
"418 399 CURVE SMOOTH",
"448 432 OFFCURVE",
"376 335 OFFCURVE",
"362 319 CURVE SMOOTH",
"337 290 OFFCURVE",
"296 242 OFFCURVE",
"295 235 CURVE",
"312 253 OFFCURVE",
"430 397 OFFCURVE",
"493 463 CURVE SMOOTH",
"545 518 OFFCURVE",
"587 556 OFFCURVE",
"587 577 CURVE SMOOTH"
);
}
);
};
layerId = "B9003040-D3EC-4996-96A5-33D5E21FF9E0";
paths = (
{
closed = 1;
nodes = (
"336 -362 OFFCURVE",
"432 -227 OFFCURVE",
"502 -112 CURVE",
"472 -167 OFFCURVE",
"441 -217 OFFCURVE",
"410 -258 CURVE",
"425 -249 OFFCURVE",
"510 -91 OFFCURVE",
"510 -94 CURVE SMOOTH",
"510 -95 OFFCURVE",
"508 -100 OFFCURVE",
"503 -110 CURVE SMOOTH",
"502 -112 LINE",
"507 -103 LINE",
"503 -110 LINE",
"496 -122 LINE",
"496 -122 OFFCURVE",
"568 0 OFFCURVE",
"579 22 CURVE SMOOTH",
"703 266 OFFCURVE",
"777 445 OFFCURVE",
"792 482 CURVE SMOOTH",
"793 485 OFFCURVE",
"749 391 OFFCURVE",
"732 356 CURVE SMOOTH",
"576 35 LINE",
"701 295 OFFCURVE",
"748 407 OFFCURVE",
"791 511 CURVE",
"810 539 OFFCURVE",
"847 593 OFFCURVE",
"847 630 CURVE SMOOTH",
"847 642 OFFCURVE",
"843 653 OFFCURVE",
"833 660 CURVE",
"819 661 OFFCURVE",
"806 670 OFFCURVE",
"792 670 CURVE SMOOTH",
"787 670 OFFCURVE",
"781 669 OFFCURVE",
"776 665 CURVE",
"764 625 LINE SMOOTH",
"691 361 OFFCURVE",
"340 -315 OFFCURVE",
"257 -317 CURVE SMOOTH",
"245 -317 OFFCURVE",
"219 -293 OFFCURVE",
"213 -271 CURVE SMOOTH",
"212 -265 OFFCURVE",
"210 -253 OFFCURVE",
"210 -237 CURVE SMOOTH",
"210 -231 OFFCURVE",
"210 -224 OFFCURVE",
"211 -216 CURVE SMOOTH",
"214 -178 OFFCURVE",
"268 -102 OFFCURVE",
"308 -79 CURVE SMOOTH",
"319 -72 OFFCURVE",
"328 -70 OFFCURVE",
"335 -70 CURVE SMOOTH",
"346 -70 OFFCURVE",
"351 -76 OFFCURVE",
"353 -69 CURVE",
"354 -49 OFFCURVE",
"266 -20 OFFCURVE",
"256 -19 CURVE",
"217 -36 OFFCURVE",
"179 -125 OFFCURVE",
"165 -167 CURVE",
"159 -175 OFFCURVE",
"157 -185 OFFCURVE",
"157 -197 CURVE SMOOTH",
"157 -242 OFFCURVE",
"191 -307 OFFCURVE",
"213 -317 CURVE",
"221 -342 OFFCURVE",
"255 -353 OFFCURVE",
"272 -356 CURVE"
);
},
{
closed = 1;
nodes = (
"78 -36 OFFCURVE",
"137 70 OFFCURVE",
"138 70 CURVE",
"136 71 OFFCURVE",
"138 76 OFFCURVE",
"136 76 CURVE",
"166 121 OFFCURVE",
"208 179 OFFCURVE",
"257 238 CURVE SMOOTH",
"279 268 OFFCURVE",
"354 383 OFFCURVE",
"366 398 CURVE SMOOTH",
"370 403 OFFCURVE",
"372 405 OFFCURVE",
"372 404 CURVE SMOOTH",
"372 400 OFFCURVE",
"323 325 OFFCURVE",
"311 312 CURVE",
"290 282 OFFCURVE",
"252 232 OFFCURVE",
"251 223 CURVE",
"265 241 OFFCURVE",
"373 392 OFFCURVE",
"427 459 CURVE SMOOTH",
"471 514 OFFCURVE",
"504 553 OFFCURVE",
"511 578 CURVE SMOOTH",
"513 586 OFFCURVE",
"514 591 OFFCURVE",
"514 596 CURVE SMOOTH",
"514 608 OFFCURVE",
"509 615 OFFCURVE",
"504 628 CURVE",
"493 642 OFFCURVE",
"484 648 OFFCURVE",
"477 648 CURVE SMOOTH",
"466 648 OFFCURVE",
"460 636 OFFCURVE",
"458 621 CURVE",
"364 486 OFFCURVE",
"256 333 OFFCURVE",
"165 200 CURVE SMOOTH",
"132 153 OFFCURVE",
"104 111 OFFCURVE",
"74 63 CURVE",
"68 57 OFFCURVE",
"63 15 OFFCURVE",
"65 7 CURVE",
"66 -7 OFFCURVE",
"60 -40 OFFCURVE",
"80 -36 CURVE"
);
},
{
closed = 1;
nodes = (
"498 4 OFFCURVE",
"514 7 OFFCURVE",
"523 9 CURVE",
"541 17 OFFCURVE",
"548 25 OFFCURVE",
"548 33 CURVE SMOOTH",
"548 45 OFFCURVE",
"533 56 OFFCURVE",
"525 61 CURVE",
"525 154 OFFCURVE",
"525 255 OFFCURVE",
"525 352 CURVE SMOOTH",
"525 492 LINE SMOOTH",
"524 540 OFFCURVE",
"524 583 OFFCURVE",
"520 627 CURVE",
"521 634 OFFCURVE",
"499 651 OFFCURVE",
"493 652 CURVE SMOOTH",
"487 653 OFFCURVE",
"479 658 OFFCURVE",
"471 658 CURVE SMOOTH",
"465 658 OFFCURVE",
"458 655 OFFCURVE",
"453 645 CURVE",
"466 555 LINE",
"468 555 OFFCURVE",
"470 553 OFFCURVE",
"471 554 CURVE",
"471 545 OFFCURVE",
"472 534 OFFCURVE",
"472 523 CURVE SMOOTH",
"472 483 OFFCURVE",
"469 434 OFFCURVE",
"465 381 CURVE SMOOTH",
"464 348 OFFCURVE",
"467 235 OFFCURVE",
"466 219 CURVE SMOOTH",
"466 213 OFFCURVE",
"465 211 OFFCURVE",
"465 211 CURVE",
"463 211 OFFCURVE",
"461 286 OFFCURVE",
"461 300 CURVE SMOOTH",
"462 320 OFFCURVE",
"463 347 OFFCURVE",
"463 367 CURVE SMOOTH",
"463 380 OFFCURVE",
"462 389 OFFCURVE",
"461 391 CURVE",
"459 370 OFFCURVE",
"457 214 OFFCURVE",
"451 138 CURVE SMOOTH",
"448 98 OFFCURVE",
"444 65 OFFCURVE",
"444 42 CURVE SMOOTH",
"444 29 OFFCURVE",
"445 19 OFFCURVE",
"449 13 CURVE",
"455 7 OFFCURVE",
"468 4 OFFCURVE",
"483 4 CURVE SMOOTH"
);
}
);
width = 697;
}
);
unicode = 014A;
},
{
glyphname = O;
lastChange = "2021-10-25 22:52:02 +0000";
layers = (
{
layerId = "B9003040-D3EC-4996-96A5-33D5E21FF9E0";
paths = (
{
closed = 1;
nodes = (
"237 -32 OFFCURVE",
"353 38 OFFCURVE",
"443 143 CURVE SMOOTH",
"450 152 OFFCURVE",
"564 274 OFFCURVE",
"622 402 CURVE SMOOTH",
"624 406 OFFCURVE",
"558 303 OFFCURVE",
"541 279 CURVE SMOOTH",
"513 240 OFFCURVE",
"474 197 OFFCURVE",
"455 179 CURVE",
"521 264 OFFCURVE",
"673 465 OFFCURVE",
"685 570 CURVE SMOOTH",
"690 611 OFFCURVE",
"656 632 OFFCURVE",
"623 632 CURVE SMOOTH",
"617 632 OFFCURVE",
"608 633 OFFCURVE",
"599 633 CURVE SMOOTH",
"591 633 OFFCURVE",
"583 632 OFFCURVE",
"578 628 CURVE SMOOTH",
"568 618 OFFCURVE",
"605 622 OFFCURVE",
"602 591 CURVE SMOOTH",
"600 578 OFFCURVE",
"597 564 OFFCURVE",
"592 548 CURVE",
"571 593 OFFCURVE",
"516 631 OFFCURVE",
"476 630 CURVE",
"264 513 OFFCURVE",
"124 357 OFFCURVE",
"52 158 CURVE SMOOTH",
"47 145 OFFCURVE",
"45 128 OFFCURVE",
"45 111 CURVE SMOOTH",
"45 60 OFFCURVE",
"67 3 OFFCURVE",
"114 8 CURVE",
"136 -16 OFFCURVE",
"151 -32 OFFCURVE",
"178 -32 CURVE SMOOTH"
);
},
{
closed = 1;
nodes = (
"155 8 OFFCURVE",
"158 10 OFFCURVE",
"163 13 CURVE",
"160 12 OFFCURVE",
"157 11 OFFCURVE",
"154 11 CURVE SMOOTH",
"132 11 OFFCURVE",
"115 42 OFFCURVE",
"115 68 CURVE SMOOTH",
"115 73 OFFCURVE",
"116 78 OFFCURVE",
"117 82 CURVE SMOOTH",
"182 294 OFFCURVE",
"332 435 OFFCURVE",
"432 509 CURVE SMOOTH",
"471 537 OFFCURVE",
"501 550 OFFCURVE",
"523 550 CURVE SMOOTH",
"532 550 OFFCURVE",
"539 548 OFFCURVE",
"546 544 CURVE SMOOTH",
"558 536 OFFCURVE",
"570 526 OFFCURVE",
"580 518 CURVE",
"565 482 OFFCURVE",
"542 442 OFFCURVE",
"516 400 CURVE",
"543 436 LINE",
"505 383 LINE",
"516 400 LINE",
"477 348 OFFCURVE",
"426 274 OFFCURVE",
"391 230 CURVE SMOOTH",
"300 119 OFFCURVE",
"203 38 OFFCURVE",
"164 14 CURVE",
"233 47 OFFCURVE",
"359 176 OFFCURVE",
"455 311 CURVE SMOOTH",
"383 210 OFFCURVE",
"326 131 OFFCURVE",
"280 91 CURVE SMOOTH",
"241 58 OFFCURVE",
"196 25 OFFCURVE",
"172 12 CURVE SMOOTH",
"164 7 OFFCURVE",
"158 6 OFFCURVE",
"156 6 CURVE SMOOTH",
"155 6 LINE"
);
},
{
closed = 1;
nodes = (
"473 338 LINE SMOOTH",
"467 329 OFFCURVE",
"461 319 OFFCURVE",
"455 311 CURVE"
);
}
);
width = 516;
}
);
note = O;
unicode = 004F;
},
{
glyphname = Oslash;
lastChange = "2021-10-25 22:52:02 +0000";
layers = (
{
layerId = "B9003040-D3EC-4996-96A5-33D5E21FF9E0";
paths = (
{
closed = 1;
nodes = (
"14 -113 OFFCURVE",
"30 -104 OFFCURVE",
"46 -79 CURVE SMOOTH",
"53 -68 OFFCURVE",
"81 -32 OFFCURVE",
"112 8 CURVE",
"114 8 LINE",
"136 -16 OFFCURVE",
"170 -32 OFFCURVE",
"198 -32 CURVE SMOOTH",
"257 -32 OFFCURVE",
"373 38 OFFCURVE",
"463 143 CURVE SMOOTH",
"470 152 OFFCURVE",
"584 274 OFFCURVE",
"642 402 CURVE SMOOTH",
"644 406 OFFCURVE",
"578 303 OFFCURVE",
"561 279 CURVE SMOOTH",
"533 240 OFFCURVE",
"494 188 OFFCURVE",
"475 170 CURVE",
"542 255 OFFCURVE",
"693 465 OFFCURVE",
"705 570 CURVE SMOOTH",
"709 601 OFFCURVE",
"690 621 OFFCURVE",
"666 629 CURVE",
"675 638 OFFCURVE",
"680 645 OFFCURVE",
"682 647 CURVE SMOOTH",
"684 650 OFFCURVE",
"709 663 OFFCURVE",
"714 675 CURVE SMOOTH",
"717 682 OFFCURVE",
"720 688 OFFCURVE",
"695 688 CURVE SMOOTH",
"690 688 LINE SMOOTH",
"666 687 OFFCURVE",
"652 676 OFFCURVE",
"642 658 CURVE",
"624 633 LINE",
"614 634 OFFCURVE",
"604 633 OFFCURVE",
"598 628 CURVE SMOOTH",
"593 623 OFFCURVE",
"601 621 OFFCURVE",
"610 616 CURVE",
"574 575 LINE",
"548 607 OFFCURVE",
"507 631 OFFCURVE",
"476 630 CURVE",
"264 513 OFFCURVE",
"124 357 OFFCURVE",
"52 158 CURVE SMOOTH",
"47 144 OFFCURVE",
"45 128 OFFCURVE",
"45 111 CURVE SMOOTH",
"45 79 OFFCURVE",
"53 45 OFFCURVE",
"71 25 CURVE",
"69 23 LINE SMOOTH",
"61 14 OFFCURVE",
"-20 -79 OFFCURVE",
"-22 -83 CURVE SMOOTH",
"-27 -95 OFFCURVE",
"-16 -113 OFFCURVE",
"2 -113 CURVE SMOOTH"
);
},
{
closed = 1;
nodes = (
"31 -29 OFFCURVE",
"52 -6 OFFCURVE",
"75 21 CURVE",
"76 20 LINE",
"20 -43 LINE"
);
},
{
closed = 1;
nodes = (
"175 8 OFFCURVE",
"178 10 OFFCURVE",
"183 13 CURVE",
"180 12 OFFCURVE",
"176 11 OFFCURVE",
"173 11 CURVE SMOOTH",
"159 11 OFFCURVE",
"143 21 OFFCURVE",
"133 34 CURVE",
"161 68 OFFCURVE",
"189 103 OFFCURVE",
"206 122 CURVE",
"190 103 OFFCURVE",
"189 98 OFFCURVE",
"160 62 CURVE",
"184 87 OFFCURVE",
"232 147 OFFCURVE",
"243 160 CURVE SMOOTH",
"262 183 OFFCURVE",
"448 387 OFFCURVE",
"572 524 CURVE",
"583 516 OFFCURVE",
"592 508 OFFCURVE",
"596 509 CURVE",
"581 476 OFFCURVE",
"560 439 OFFCURVE",
"536 400 CURVE",
"563 436 LINE",
"545 411 OFFCURVE",
"528 386 OFFCURVE",
"511 363 CURVE SMOOTH",
"520 375 OFFCURVE",
"528 388 OFFCURVE",
"536 400 CURVE",
"497 348 OFFCURVE",
"446 274 OFFCURVE",
"411 230 CURVE SMOOTH",
"320 119 OFFCURVE",
"223 38 OFFCURVE",
"184 14 CURVE",
"253 48 OFFCURVE",
"379 176 OFFCURVE",
"475 311 CURVE SMOOTH",
"403 210 OFFCURVE",
"346 131 OFFCURVE",
"300 91 CURVE SMOOTH",
"261 58 OFFCURVE",
"216 25 OFFCURVE",
"192 12 CURVE SMOOTH",
"184 7 OFFCURVE",
"178 6 OFFCURVE",
"176 6 CURVE SMOOTH",
"175 6 LINE"
);
},
{
closed = 1;
nodes = (
"116 67 OFFCURVE",
"116 68 OFFCURVE",
"116 69 CURVE",
"147 105 OFFCURVE",
"175 137 OFFCURVE",
"183 145 CURVE",
"177 140 OFFCURVE",
"145 105 OFFCURVE",
"116 74 CURVE",
"116 77 OFFCURVE",
"116 79 OFFCURVE",
"117 82 CURVE SMOOTH",
"182 294 OFFCURVE",
"332 435 OFFCURVE",
"432 509 CURVE SMOOTH",
"471 537 OFFCURVE",
"501 550 OFFCURVE",
"523 550 CURVE SMOOTH",
"532 550 OFFCURVE",
"539 548 OFFCURVE",
"546 544 CURVE",
"439 423 OFFCURVE",
"279 252 OFFCURVE",
"259 229 CURVE SMOOTH",
"247 216 OFFCURVE",
"179 137 OFFCURVE",
"117 66 CURVE"
);
},
{
closed = 1;
nodes = (
"599 522 LINE SMOOTH",
"598 530 OFFCURVE",
"596 539 OFFCURVE",
"592 547 CURVE",
"619 577 LINE",
"616 559 OFFCURVE",
"609 539 OFFCURVE",
"599 517 CURVE"
);
}
);
width = 532;
}
);
note = Oslash;
unicode = 00D8;
},
{
glyphname = OE;
lastChange = "2021-10-25 22:52:02 +0000";
layers = (
{
layerId = "B9003040-D3EC-4996-96A5-33D5E21FF9E0";
paths = (
{
closed = 1;
nodes = (
"478 -49 OFFCURVE",
"513 -44 OFFCURVE",
"530 -32 CURVE SMOOTH",
"535 -29 OFFCURVE",
"538 -19 OFFCURVE",
"538 -14 CURVE",
"691 28 OFFCURVE",
"908 150 OFFCURVE",
"1000 235 CURVE SMOOTH",
"1023 256 OFFCURVE",
"1030 271 OFFCURVE",
"1020 271 CURVE SMOOTH",
"1016 271 OFFCURVE",
"1009 268 OFFCURVE",
"999 263 CURVE SMOOTH",
"972 248 OFFCURVE",
"916 218 OFFCURVE",
"851 186 CURVE",
"908 217 OFFCURVE",
"958 247 OFFCURVE",
"970 258 CURVE",
"936 240 OFFCURVE",
"770 150 OFFCURVE",
"746 138 CURVE SMOOTH",
"733 131 LINE SMOOTH",
"772 150 OFFCURVE",
"813 168 OFFCURVE",
"851 186 CURVE",
"741 127 LINE SMOOTH",
"704 108 OFFCURVE",
"638 77 OFFCURVE",
"615 71 CURVE SMOOTH",
"610 70 OFFCURVE",
"643 88 OFFCURVE",
"663 97 CURVE SMOOTH",
"670 100 OFFCURVE",
"679 104 OFFCURVE",
"688 109 CURVE",
"623 80 OFFCURVE",
"560 63 OFFCURVE",
"517 63 CURVE SMOOTH",
"499 63 OFFCURVE",
"485 66 OFFCURVE",
"476 73 CURVE",
"473 102 OFFCURVE",
"624 171 OFFCURVE",
"717 196 CURVE SMOOTH",
"729 199 OFFCURVE",
"766 228 OFFCURVE",
"766 243 CURVE SMOOTH",
"766 246 OFFCURVE",
"764 249 OFFCURVE",
"759 250 CURVE SMOOTH",
"705 266 OFFCURVE",
"629 290 OFFCURVE",
"572 312 CURVE",
"590 340 OFFCURVE",
"607 371 OFFCURVE",
"622 402 CURVE SMOOTH",
"623 405 OFFCURVE",
"590 353 OFFCURVE",
"565 314 CURVE",
"557 317 LINE",
"588 362 OFFCURVE",
"619 411 OFFCURVE",
"643 456 CURVE",
"650 459 OFFCURVE",
"658 461 OFFCURVE",
"666 464 CURVE SMOOTH",
"818 529 OFFCURVE",
"981 550 OFFCURVE",
"1094 550 CURVE SMOOTH",
"1122 550 OFFCURVE",
"1142 547 OFFCURVE",
"1142 536 CURVE SMOOTH",
"1142 527 OFFCURVE",
"1129 512 OFFCURVE",
"1097 488 CURVE SMOOTH",
"1029 436 OFFCURVE",
"897 369 OFFCURVE",
"821 363 CURVE SMOOTH",
"808 362 OFFCURVE",
"802 366 OFFCURVE",
"802 372 CURVE SMOOTH",
"802 389 OFFCURVE",
"848 428 OFFCURVE",
"859 438 CURVE SMOOTH",
"894 467 OFFCURVE",
"896 475 OFFCURVE",
"888 475 CURVE SMOOTH",
"886 475 OFFCURVE",
"882 474 OFFCURVE",
"879 473 CURVE SMOOTH",
"814 452 OFFCURVE",
"768 393 OFFCURVE",
"759 380 CURVE SMOOTH",
"756 376 OFFCURVE",
"755 372 OFFCURVE",
"755 367 CURVE SMOOTH",
"755 340 OFFCURVE",
"789 299 OFFCURVE",
"798 293 CURVE",
"860 290 OFFCURVE",
"1018 376 OFFCURVE",
"1067 418 CURVE",
"1111 410 OFFCURVE",
"1220 499 OFFCURVE",
"1230 545 CURVE SMOOTH",
"1233 562 OFFCURVE",
"1204 594 OFFCURVE",
"1200 589 CURVE SMOOTH",
"1195 582 OFFCURVE",
"1196 576 OFFCURVE",
"1190 567 CURVE SMOOTH",
"1185 558 OFFCURVE",
"1176 548 OFFCURVE",
"1170 545 CURVE",
"1176 553 OFFCURVE",
"1190 567 OFFCURVE",
"1190 591 CURVE SMOOTH",
"1190 601 OFFCURVE",
"1188 613 OFFCURVE",
"1181 627 CURVE",
"1160 636 OFFCURVE",
"1132 640 OFFCURVE",
"1099 640 CURVE SMOOTH",
"1012 640 OFFCURVE",
"890 613 OFFCURVE",
"774 575 CURVE SMOOTH",
"680 544 LINE",
"683 553 OFFCURVE",
"684 562 OFFCURVE",
"685 570 CURVE SMOOTH",
"690 611 OFFCURVE",
"656 632 OFFCURVE",
"623 632 CURVE SMOOTH",
"617 632 OFFCURVE",
"608 633 OFFCURVE",
"599 633 CURVE SMOOTH",
"591 633 OFFCURVE",
"583 632 OFFCURVE",
"578 628 CURVE SMOOTH",
"568 618 OFFCURVE",
"605 622 OFFCURVE",
"602 591 CURVE SMOOTH",
"600 578 OFFCURVE",
"597 564 OFFCURVE",
"592 548 CURVE",
"571 593 OFFCURVE",
"516 631 OFFCURVE",
"476 630 CURVE",
"264 513 OFFCURVE",
"124 357 OFFCURVE",
"52 158 CURVE SMOOTH",
"47 145 OFFCURVE",
"45 128 OFFCURVE",
"45 111 CURVE SMOOTH",
"45 60 OFFCURVE",
"67 3 OFFCURVE",
"114 8 CURVE",
"136 -16 OFFCURVE",
"151 -32 OFFCURVE",
"178 -32 CURVE SMOOTH",
"225 -32 OFFCURVE",
"308 11 OFFCURVE",
"385 82 CURVE",
"384 54 OFFCURVE",
"392 22 OFFCURVE",
"403 -1 CURVE",
"404 -6 OFFCURVE",
"395 5 OFFCURVE",
"391 -6 CURVE SMOOTH",
"383 -31 OFFCURVE",
"417 -49 OFFCURVE",
"453 -49 CURVE SMOOTH"
);
},
{
closed = 1;
nodes = (
"155 8 OFFCURVE",
"158 10 OFFCURVE",
"163 13 CURVE",
"160 12 OFFCURVE",
"157 11 OFFCURVE",
"154 11 CURVE SMOOTH",
"132 11 OFFCURVE",
"115 42 OFFCURVE",
"115 68 CURVE SMOOTH",
"115 73 OFFCURVE",
"116 78 OFFCURVE",
"117 82 CURVE SMOOTH",
"182 294 OFFCURVE",
"332 435 OFFCURVE",
"432 509 CURVE SMOOTH",
"471 537 OFFCURVE",
"501 550 OFFCURVE",
"523 550 CURVE SMOOTH",
"532 550 OFFCURVE",
"539 548 OFFCURVE",
"546 544 CURVE SMOOTH",
"558 536 OFFCURVE",
"570 526 OFFCURVE",
"580 518 CURVE",
"565 482 OFFCURVE",
"542 442 OFFCURVE",
"516 400 CURVE",
"543 436 LINE",
"525 411 OFFCURVE",
"508 386 OFFCURVE",
"491 363 CURVE SMOOTH",
"500 375 OFFCURVE",
"508 388 OFFCURVE",
"516 400 CURVE",
"477 348 OFFCURVE",
"426 274 OFFCURVE",
"391 230 CURVE SMOOTH",
"300 119 OFFCURVE",
"203 38 OFFCURVE",
"164 14 CURVE",
"233 48 OFFCURVE",
"359 176 OFFCURVE",
"455 311 CURVE SMOOTH",
"383 210 OFFCURVE",
"326 131 OFFCURVE",
"280 91 CURVE SMOOTH",
"241 58 OFFCURVE",
"196 25 OFFCURVE",
"172 12 CURVE SMOOTH",
"164 7 OFFCURVE",
"158 6 OFFCURVE",
"156 6 CURVE SMOOTH",
"155 6 LINE"
);
},
{
closed = 1;
nodes = (
"476 181 LINE",
"484 184 OFFCURVE",
"492 187 OFFCURVE",
"500 189 CURVE",
"472 177 LINE"
);
},
{
closed = 1;
nodes = (
"517 261 LINE",
"525 258 LINE",
"500 225 OFFCURVE",
"470 194 OFFCURVE",
"455 179 CURVE"
);
},
{
closed = 1;
nodes = (
"497 207 OFFCURVE",
"515 229 OFFCURVE",
"534 255 CURVE",
"567 244 OFFCURVE",
"599 237 OFFCURVE",
"615 235 CURVE",
"594 225 OFFCURVE",
"569 218 OFFCURVE",
"551 209 CURVE",
"532 205 OFFCURVE",
"508 198 OFFCURVE",
"482 188 CURVE"
);
},
{
closed = 1;
nodes = (
"535 202 OFFCURVE",
"555 208 OFFCURVE",
"572 214 CURVE",
"599 220 OFFCURVE",
"615 225 OFFCURVE",
"631 228 CURVE SMOOTH",
"636 229 OFFCURVE",
"645 226 OFFCURVE",
"645 223 CURVE SMOOTH",
"645 222 OFFCURVE",
"643 221 OFFCURVE",
"638 220 CURVE SMOOTH",
"616 218 OFFCURVE",
"561 207 OFFCURVE",
"518 195 CURVE"
);
},
{
closed = 1;
nodes = (
"703 116 OFFCURVE",
"718 123 OFFCURVE",
"733 131 CURVE",
"715 123 OFFCURVE",
"701 116 OFFCURVE",
"688 109 CURVE"
);
},
{
closed = 1;
nodes = (
"679 538 LINE",
"693 543 LINE",
"678 537 LINE"
);
},
{
closed = 1;
nodes = (
"732 555 OFFCURVE",
"768 567 OFFCURVE",
"797 575 CURVE SMOOTH",
"924 612 OFFCURVE",
"1040 629 OFFCURVE",
"1113 627 CURVE SMOOTH",
"1120 627 OFFCURVE",
"1124 626 OFFCURVE",
"1124 624 CURVE SMOOTH",
"1124 622 OFFCURVE",
"1116 620 OFFCURVE",
"1098 620 CURVE SMOOTH",
"1012 620 OFFCURVE",
"844 587 OFFCURVE",
"705 544 CURVE"
);
}
);
width = 936;
}
);
note = OE;
unicode = 0152;
},
{
glyphname = P;
lastChange = "2021-10-25 22:52:02 +0000";
layers = (
{
layerId = "B9003040-D3EC-4996-96A5-33D5E21FF9E0";
paths = (
{
closed = 1;
nodes = (
"309 -11 OFFCURVE",
"334 2 OFFCURVE",
"334 16 CURVE SMOOTH",
"334 26 OFFCURVE",
"320 36 OFFCURVE",
"290 41 CURVE",
"288 45 OFFCURVE",
"287 51 OFFCURVE",
"287 57 CURVE SMOOTH",
"287 109 OFFCURVE",
"367 216 OFFCURVE",
"417 282 CURVE SMOOTH",
"507 399 OFFCURVE",
"616 534 OFFCURVE",
"646 566 CURVE",
"716 551 OFFCURVE",
"803 515 OFFCURVE",
"803 460 CURVE SMOOTH",
"803 359 OFFCURVE",
"575 242 OFFCURVE",
"425 210 CURVE SMOOTH",
"422 209 OFFCURVE",
"420 207 OFFCURVE",
"418 206 CURVE SMOOTH",
"413 203 OFFCURVE",
"411 201 OFFCURVE",
"411 197 CURVE",
"414 192 OFFCURVE",
"416 188 OFFCURVE",
"437 188 CURVE SMOOTH",
"476 188 OFFCURVE",
"529 195 OFFCURVE",
"585 209 CURVE SMOOTH",
"570 205 OFFCURVE",
"554 203 OFFCURVE",
"539 201 CURVE",
"541 202 LINE",
"563 208 OFFCURVE",
"650 233 OFFCURVE",
"689 248 CURVE SMOOTH",
"695 250 OFFCURVE",
"735 264 OFFCURVE",
"778 302 CURVE SMOOTH",
"786 309 LINE SMOOTH",
"743 267 OFFCURVE",
"676 235 OFFCURVE",
"609 215 CURVE SMOOTH",
"633 222 OFFCURVE",
"655 227 OFFCURVE",
"668 233 CURVE SMOOTH",
"724 260 OFFCURVE",
"756 272 OFFCURVE",
"787 303 CURVE SMOOTH",
"803 318 OFFCURVE",
"821 335 OFFCURVE",
"833 373 CURVE",
"816 340 OFFCURVE",
"802 324 OFFCURVE",
"788 311 CURVE",
"818 341 OFFCURVE",
"837 376 OFFCURVE",
"837 417 CURVE SMOOTH",
"837 425 OFFCURVE",
"836 434 OFFCURVE",
"834 443 CURVE",
"842 459 OFFCURVE",
"846 475 OFFCURVE",
"846 489 CURVE SMOOTH",
"846 574 OFFCURVE",
"705 617 OFFCURVE",
"613 617 CURVE",
"597 628 OFFCURVE",
"579 636 OFFCURVE",
"568 640 CURVE SMOOTH",
"564 641 OFFCURVE",
"560 642 OFFCURVE",
"558 642 CURVE SMOOTH",
"552 642 OFFCURVE",
"550 639 OFFCURVE",
"550 635 CURVE SMOOTH",
"550 632 LINE",
"521 638 OFFCURVE",
"489 641 OFFCURVE",
"457 643 CURVE",
"489 641 OFFCURVE",
"522 636 OFFCURVE",
"556 630 CURVE SMOOTH",
"562 629 OFFCURVE",
"564 628 OFFCURVE",
"564 627 CURVE SMOOTH",
"564 626 OFFCURVE",
"561 625 OFFCURVE",
"557 626 CURVE SMOOTH",
"495 638 OFFCURVE",
"438 643 OFFCURVE",
"387 643 CURVE SMOOTH",
"301 643 OFFCURVE",
"229 629 OFFCURVE",
"170 609 CURVE SMOOTH",
"113 590 OFFCURVE",
"73 565 OFFCURVE",
"29 541 CURVE SMOOTH",
"32 543 LINE",
"25 539 LINE",
"29 541 LINE",
"12 524 OFFCURVE",
"-2 505 OFFCURVE",
"-9 482 CURVE SMOOTH",
"-12 473 OFFCURVE",
"-13 465 OFFCURVE",
"-13 457 CURVE SMOOTH",
"-13 423 OFFCURVE",
"11 404 OFFCURVE",
"27 404 CURVE SMOOTH",
"35 404 OFFCURVE",
"41 408 OFFCURVE",
"41 418 CURVE SMOOTH",
"41 422 OFFCURVE",
"40 427 OFFCURVE",
"37 433 CURVE",
"56 504 OFFCURVE",
"233 564 OFFCURVE",
"265 572 CURVE SMOOTH",
"345 589 OFFCURVE",
"443 601 OFFCURVE",
"506 601 CURVE SMOOTH",
"521 601 OFFCURVE",
"534 601 OFFCURVE",
"545 599 CURVE",
"538 574 OFFCURVE",
"504 538 OFFCURVE",
"488 520 CURVE",
"501 522 OFFCURVE",
"516 554 OFFCURVE",
"543 575 CURVE",
"482 493 OFFCURVE",
"231 162 OFFCURVE",
"206 81 CURVE SMOOTH",
"203 72 OFFCURVE",
"201 60 OFFCURVE",
"201 47 CURVE SMOOTH",
"201 22 OFFCURVE",
"210 -4 OFFCURVE",
"241 -9 CURVE SMOOTH",
"251 -10 OFFCURVE",
"261 -11 OFFCURVE",
"270 -11 CURVE SMOOTH"
);
},
{
closed = 1;
nodes = (
"40 549 LINE SMOOTH",
"72 571 OFFCURVE",
"106 591 OFFCURVE",
"144 606 CURVE",
"103 590 OFFCURVE",
"61 571 OFFCURVE",
"32 543 CURVE"
);
},
{
closed = 1;
nodes = (
"146 606 OFFCURVE",
"147 607 OFFCURVE",
"149 608 CURVE",
"147 607 OFFCURVE",
"146 606 OFFCURVE",
"144 606 CURVE"
);
},
{
closed = 1;
nodes = (
"162 612 OFFCURVE",
"166 614 OFFCURVE",
"171 615 CURVE",
"166 614 OFFCURVE",
"162 612 OFFCURVE",
"158 611 CURVE"
);
},
{
closed = 1;
nodes = (
"193 622 OFFCURVE",
"208 625 OFFCURVE",
"222 629 CURVE SMOOTH",
"265 638 OFFCURVE",
"328 645 OFFCURVE",
"394 645 CURVE SMOOTH",
"406 645 OFFCURVE",
"419 644 OFFCURVE",
"431 644 CURVE",
"413 645 OFFCURVE",
"395 646 OFFCURVE",
"378 646 CURVE SMOOTH",
"304 646 OFFCURVE",
"238 636 OFFCURVE",
"177 617 CURVE SMOOTH"
);
}
);
width = 727;
}
);
note = P;
unicode = 0050;
},
{
glyphname = Thorn;
lastChange = "2021-10-25 22:52:02 +0000";
layers = (
{
layerId = "B9003040-D3EC-4996-96A5-33D5E21FF9E0";
paths = (
{
closed = 1;
nodes = (
"282 -41 OFFCURVE",
"307 -28 OFFCURVE",
"307 -14 CURVE SMOOTH",
"307 -4 OFFCURVE",
"293 6 OFFCURVE",
"263 11 CURVE",
"262 14 OFFCURVE",
"261 17 OFFCURVE",
"261 21 CURVE SMOOTH",
"261 89 OFFCURVE",
"440 335 OFFCURVE",
"489 390 CURVE SMOOTH",
"508 411 OFFCURVE",
"560 482 OFFCURVE",
"584 512 CURVE",
"585 512 OFFCURVE",
"587 512 OFFCURVE",
"589 511 CURVE",
"575 491 OFFCURVE",
"552 461 OFFCURVE",
"545 453 CURVE SMOOTH",
"523 428 OFFCURVE",
"488 384 OFFCURVE",
"487 378 CURVE",
"497 389 OFFCURVE",
"547 452 OFFCURVE",
"596 510 CURVE",
"667 493 OFFCURVE",
"751 454 OFFCURVE",
"751 407 CURVE SMOOTH",
"751 306 OFFCURVE",
"523 189 OFFCURVE",
"373 157 CURVE SMOOTH",
"370 156 OFFCURVE",
"368 154 OFFCURVE",
"366 153 CURVE SMOOTH",
"361 150 OFFCURVE",
"359 148 OFFCURVE",
"359 144 CURVE",
"362 139 OFFCURVE",
"364 135 OFFCURVE",
"385 135 CURVE SMOOTH",
"424 135 OFFCURVE",
"477 142 OFFCURVE",
"533 156 CURVE SMOOTH",
"518 152 OFFCURVE",
"502 150 OFFCURVE",
"487 148 CURVE",
"489 149 LINE",
"511 155 OFFCURVE",
"598 180 OFFCURVE",
"637 195 CURVE SMOOTH",
"643 197 OFFCURVE",
"683 211 OFFCURVE",
"726 249 CURVE SMOOTH",
"734 256 LINE SMOOTH",
"691 214 OFFCURVE",
"624 182 OFFCURVE",
"557 162 CURVE SMOOTH",
"581 169 OFFCURVE",
"603 174 OFFCURVE",
"616 180 CURVE SMOOTH",
"672 207 OFFCURVE",
"704 219 OFFCURVE",
"735 250 CURVE SMOOTH",
"751 265 OFFCURVE",
"769 282 OFFCURVE",
"781 320 CURVE",
"764 287 OFFCURVE",
"750 271 OFFCURVE",
"736 258 CURVE",
"767 289 OFFCURVE",
"793 333 OFFCURVE",
"793 378 CURVE SMOOTH",
"793 385 OFFCURVE",
"792 392 OFFCURVE",
"791 399 CURVE",
"799 414 OFFCURVE",
"802 428 OFFCURVE",
"802 442 CURVE SMOOTH",
"802 505 OFFCURVE",
"719 545 OFFCURVE",
"642 563 CURVE",
"660 582 LINE SMOOTH",
"705 631 OFFCURVE",
"741 666 OFFCURVE",
"741 685 CURVE SMOOTH",
"741 703 OFFCURVE",
"701 730 OFFCURVE",
"681 740 CURVE",
"673 742 OFFCURVE",
"667 743 OFFCURVE",
"662 743 CURVE SMOOTH",
"646 743 OFFCURVE",
"641 733 OFFCURVE",
"641 722 CURVE SMOOTH",
"641 714 OFFCURVE",
"644 704 OFFCURVE",
"646 698 CURVE",
"556 582 OFFCURVE",
"456 459 OFFCURVE",
"370 346 CURVE SMOOTH",
"288 233 OFFCURVE",
"193 96 OFFCURVE",
"180 51 CURVE SMOOTH",
"177 42 OFFCURVE",
"175 29 OFFCURVE",
"175 16 CURVE SMOOTH",
"175 -9 OFFCURVE",
"184 -34 OFFCURVE",
"215 -39 CURVE SMOOTH",
"225 -40 OFFCURVE",
"234 -41 OFFCURVE",
"243 -41 CURVE SMOOTH"
);
},
);
width = 727;
}
);
note = Thorn;
unicode = 00DE;
},
{
glyphname = Q;
lastChange = "2021-10-25 22:52:02 +0000";
layers = (
{
layerId = "B9003040-D3EC-4996-96A5-33D5E21FF9E0";
paths = (
{
closed = 1;
nodes = (
"237 -32 OFFCURVE",
"353 38 OFFCURVE",
"443 143 CURVE SMOOTH",
"450 152 OFFCURVE",
"564 274 OFFCURVE",
"622 402 CURVE SMOOTH",
"624 406 OFFCURVE",
"558 303 OFFCURVE",
"541 279 CURVE SMOOTH",
"513 240 OFFCURVE",
"474 197 OFFCURVE",
"455 179 CURVE",
"521 264 OFFCURVE",
"673 465 OFFCURVE",
"685 570 CURVE SMOOTH",
"690 611 OFFCURVE",
"656 632 OFFCURVE",
"623 632 CURVE SMOOTH",
"617 632 OFFCURVE",
"608 633 OFFCURVE",
"599 633 CURVE SMOOTH",
"591 633 OFFCURVE",
"583 632 OFFCURVE",
"578 628 CURVE SMOOTH",
"568 618 OFFCURVE",
"605 622 OFFCURVE",
"602 591 CURVE SMOOTH",
"600 578 OFFCURVE",
"597 564 OFFCURVE",
"592 548 CURVE",
"571 593 OFFCURVE",
"516 631 OFFCURVE",
"476 630 CURVE",
"264 513 OFFCURVE",
"124 357 OFFCURVE",
"52 158 CURVE SMOOTH",
"47 145 OFFCURVE",
"45 128 OFFCURVE",
"45 111 CURVE SMOOTH",
"45 60 OFFCURVE",
"67 3 OFFCURVE",
"114 8 CURVE",
"136 -16 OFFCURVE",
"151 -32 OFFCURVE",
"178 -32 CURVE SMOOTH"
);
},
{
closed = 1;
nodes = (
"-66 -169 OFFCURVE",
"-51 -159 OFFCURVE",
"-35 -155 CURVE SMOOTH",
"-22 -152 OFFCURVE",
"-6 -150 OFFCURVE",
"6 -150 CURVE SMOOTH",
"15 -150 OFFCURVE",
"22 -151 OFFCURVE",
"24 -153 CURVE SMOOTH",
"27 -156 OFFCURVE",
"29 -158 OFFCURVE",
"31 -158 CURVE SMOOTH",
"33 -158 OFFCURVE",
"34 -155 OFFCURVE",
"35 -147 CURVE SMOOTH",
"35 -140 OFFCURVE",
"31 -133 OFFCURVE",
"24 -127 CURVE",
"164 -93 LINE SMOOTH",
"266 -70 OFFCURVE",
"385 -44 OFFCURVE",
"502 -33 CURVE SMOOTH",
"514 -32 OFFCURVE",
"519 -30 OFFCURVE",
"519 -28 CURVE SMOOTH",
"519 -26 OFFCURVE",
"513 -24 OFFCURVE",
"503 -23 CURVE SMOOTH",
"403 -15 OFFCURVE",
"72 -60 OFFCURVE",
"-95 -87 CURVE",
"-98 -86 OFFCURVE",
"-101 -86 OFFCURVE",
"-103 -86 CURVE SMOOTH",
"-113 -86 OFFCURVE",
"-118 -92 OFFCURVE",
"-118 -102 CURVE SMOOTH",
"-118 -117 OFFCURVE",
"-107 -140 OFFCURVE",
"-93 -157 CURVE",
"-91 -156 LINE",
"-88 -165 OFFCURVE",
"-84 -169 OFFCURVE",
"-77 -169 CURVE SMOOTH"
);
},
{
closed = 1;
nodes = (
"155 8 OFFCURVE",
"158 10 OFFCURVE",
"163 13 CURVE",
"160 12 OFFCURVE",
"157 11 OFFCURVE",
"154 11 CURVE SMOOTH",
"132 11 OFFCURVE",
"115 42 OFFCURVE",
"115 68 CURVE SMOOTH",
"115 73 OFFCURVE",
"116 78 OFFCURVE",
"117 82 CURVE SMOOTH",
"182 294 OFFCURVE",
"332 435 OFFCURVE",
"432 509 CURVE SMOOTH",
"471 537 OFFCURVE",
"501 550 OFFCURVE",
"523 550 CURVE SMOOTH",
"532 550 OFFCURVE",
"539 548 OFFCURVE",
"546 544 CURVE SMOOTH",
"558 536 OFFCURVE",
"570 526 OFFCURVE",
"580 518 CURVE",
"565 482 OFFCURVE",
"542 442 OFFCURVE",
"516 400 CURVE",
"543 436 LINE",
"525 411 OFFCURVE",
"508 386 OFFCURVE",
"491 363 CURVE SMOOTH",
"500 375 OFFCURVE",
"508 388 OFFCURVE",
"516 400 CURVE",
"477 348 OFFCURVE",
"426 274 OFFCURVE",
"391 230 CURVE SMOOTH",
"300 119 OFFCURVE",
"203 38 OFFCURVE",
"164 14 CURVE",
"233 48 OFFCURVE",
"359 176 OFFCURVE",
"455 311 CURVE SMOOTH",
"383 210 OFFCURVE",
"326 131 OFFCURVE",
"280 91 CURVE SMOOTH",
"241 58 OFFCURVE",
"196 25 OFFCURVE",
"172 12 CURVE SMOOTH",
"164 7 OFFCURVE",
"158 6 OFFCURVE",
"156 6 CURVE SMOOTH",
"155 6 LINE"
);
}
);
width = 537;
}
);
note = Q;
unicode = 0051;
},
{
glyphname = R;
lastChange = "2021-10-25 22:52:02 +0000";
layers = (
{
layerId = "B9003040-D3EC-4996-96A5-33D5E21FF9E0";
paths = (
{
closed = 1;
nodes = (
"566 -39 OFFCURVE",
"621 -3 OFFCURVE",
"614 8 CURVE SMOOTH",
"611 13 OFFCURVE",
"608 16 OFFCURVE",
"605 18 CURVE",
"629 41 OFFCURVE",
"651 68 OFFCURVE",
"659 89 CURVE SMOOTH",
"660 93 OFFCURVE",
"661 95 OFFCURVE",
"661 97 CURVE SMOOTH",
"661 100 OFFCURVE",
"659 101 OFFCURVE",
"657 101 CURVE SMOOTH",
"652 101 OFFCURVE",
"644 96 OFFCURVE",
"640 91 CURVE SMOOTH",
"633 83 OFFCURVE",
"618 60 OFFCURVE",
"588 60 CURVE SMOOTH",
"556 60 OFFCURVE",
"506 87 OFFCURVE",
"429 188 CURVE",
"437 188 LINE SMOOTH",
"476 188 OFFCURVE",
"529 195 OFFCURVE",
"585 209 CURVE SMOOTH",
"570 205 OFFCURVE",
"554 203 OFFCURVE",
"539 201 CURVE",
"541 202 LINE",
"563 208 OFFCURVE",
"650 233 OFFCURVE",
"689 248 CURVE SMOOTH",
"695 250 OFFCURVE",
"735 264 OFFCURVE",
"778 302 CURVE SMOOTH",
"786 309 LINE SMOOTH",
"743 267 OFFCURVE",
"676 235 OFFCURVE",
"609 215 CURVE SMOOTH",
"633 222 OFFCURVE",
"655 227 OFFCURVE",
"668 233 CURVE SMOOTH",
"724 260 OFFCURVE",
"756 272 OFFCURVE",
"787 303 CURVE SMOOTH",
"803 318 OFFCURVE",
"821 335 OFFCURVE",
"833 373 CURVE",
"816 340 OFFCURVE",
"802 324 OFFCURVE",
"788 311 CURVE",
"818 341 OFFCURVE",
"837 376 OFFCURVE",
"837 417 CURVE SMOOTH",
"837 425 OFFCURVE",
"836 434 OFFCURVE",
"834 443 CURVE",
"842 459 OFFCURVE",
"846 475 OFFCURVE",
"846 489 CURVE SMOOTH",
"846 574 OFFCURVE",
"705 617 OFFCURVE",
"613 617 CURVE",
"597 628 OFFCURVE",
"579 636 OFFCURVE",
"568 640 CURVE SMOOTH",
"564 641 OFFCURVE",
"560 642 OFFCURVE",
"558 642 CURVE SMOOTH",
"552 642 OFFCURVE",
"550 639 OFFCURVE",
"550 635 CURVE SMOOTH",
"550 632 LINE",
"521 638 OFFCURVE",
"489 641 OFFCURVE",
"457 643 CURVE",
"489 641 OFFCURVE",
"522 636 OFFCURVE",
"556 630 CURVE SMOOTH",
"562 629 OFFCURVE",
"564 628 OFFCURVE",
"564 627 CURVE SMOOTH",
"564 626 OFFCURVE",
"561 625 OFFCURVE",
"557 626 CURVE SMOOTH",
"495 638 OFFCURVE",
"438 643 OFFCURVE",
"387 643 CURVE SMOOTH",
"301 643 OFFCURVE",
"229 629 OFFCURVE",
"170 609 CURVE SMOOTH",
"113 590 OFFCURVE",
"73 565 OFFCURVE",
"29 541 CURVE SMOOTH",
"32 543 LINE",
"25 539 LINE",
"29 541 LINE",
"12 524 OFFCURVE",
"-2 505 OFFCURVE",
"-9 482 CURVE SMOOTH",
"-12 473 OFFCURVE",
"-13 465 OFFCURVE",
"-13 457 CURVE SMOOTH",
"-13 423 OFFCURVE",
"11 404 OFFCURVE",
"27 404 CURVE SMOOTH",
"35 404 OFFCURVE",
"41 408 OFFCURVE",
"41 418 CURVE SMOOTH",
"41 422 OFFCURVE",
"40 427 OFFCURVE",
"37 433 CURVE",
"56 504 OFFCURVE",
"233 564 OFFCURVE",
"265 572 CURVE SMOOTH",
"345 589 OFFCURVE",
"443 601 OFFCURVE",
"506 601 CURVE SMOOTH",
"521 601 OFFCURVE",
"534 601 OFFCURVE",
"545 599 CURVE",
"538 574 OFFCURVE",
"504 538 OFFCURVE",
"488 520 CURVE",
"501 522 OFFCURVE",
"516 554 OFFCURVE",
"543 575 CURVE",
"482 493 OFFCURVE",
"231 162 OFFCURVE",
"206 81 CURVE SMOOTH",
"203 72 OFFCURVE",
"201 60 OFFCURVE",
"201 47 CURVE SMOOTH",
"201 22 OFFCURVE",
"210 -4 OFFCURVE",
"241 -9 CURVE SMOOTH",
"251 -10 OFFCURVE",
"261 -11 OFFCURVE",
"270 -11 CURVE SMOOTH",
"309 -11 OFFCURVE",
"334 2 OFFCURVE",
"334 16 CURVE SMOOTH",
"334 26 OFFCURVE",
"320 36 OFFCURVE",
"290 41 CURVE",
"288 45 OFFCURVE",
"287 51 OFFCURVE",
"287 57 CURVE SMOOTH",
"287 109 OFFCURVE",
"367 216 OFFCURVE",
"417 282 CURVE SMOOTH",
"507 399 OFFCURVE",
"616 534 OFFCURVE",
"646 566 CURVE",
"716 551 OFFCURVE",
"803 515 OFFCURVE",
"803 460 CURVE SMOOTH",
"803 359 OFFCURVE",
"575 242 OFFCURVE",
"425 210 CURVE SMOOTH",
"422 209 OFFCURVE",
"420 207 OFFCURVE",
"418 206 CURVE SMOOTH",
"415 204 LINE",
"411 207 OFFCURVE",
"406 209 OFFCURVE",
"403 209 CURVE SMOOTH",
"399 209 OFFCURVE",
"396 206 OFFCURVE",
"396 199 CURVE SMOOTH",
"396 193 LINE",
"409 102 OFFCURVE",
"463 33 OFFCURVE",
"505 0 CURVE",
"506 -12 OFFCURVE",
"513 -26 OFFCURVE",
"550 -35 CURVE SMOOTH"
);
},
{
closed = 1;
nodes = (
"40 549 LINE SMOOTH",
"72 572 OFFCURVE",
"106 591 OFFCURVE",
"144 606 CURVE",
"103 590 OFFCURVE",
"61 571 OFFCURVE",
"32 543 CURVE"
);
},
{
closed = 1;
nodes = (
"146 606 OFFCURVE",
"147 607 OFFCURVE",
"149 608 CURVE",
"147 607 OFFCURVE",
"146 606 OFFCURVE",
"144 606 CURVE"
);
},
{
closed = 1;
nodes = (
"162 612 OFFCURVE",
"166 614 OFFCURVE",
"171 615 CURVE",
"166 614 OFFCURVE",
"162 612 OFFCURVE",
"158 611 CURVE"
);
},
{
closed = 1;
nodes = (
"193 622 OFFCURVE",
"208 625 OFFCURVE",
"222 629 CURVE SMOOTH",
"265 638 OFFCURVE",
"328 645 OFFCURVE",
"394 645 CURVE SMOOTH",
"406 645 OFFCURVE",
"419 644 OFFCURVE",
"431 644 CURVE",
"413 645 OFFCURVE",
"395 646 OFFCURVE",
"378 646 CURVE SMOOTH",
"304 646 OFFCURVE",
"238 636 OFFCURVE",
"177 617 CURVE SMOOTH"
);
}
);
width = 712;
}
);
note = R;
unicode = 0052;
},
{
glyphname = S;
lastChange = "2021-10-25 22:52:02 +0000";
layers = (
{
layerId = "B9003040-D3EC-4996-96A5-33D5E21FF9E0";
paths = (
{
closed = 1;
nodes = (
"52 -109 OFFCURVE",
"68 -100 OFFCURVE",
"68 -85 CURVE SMOOTH",
"68 -79 OFFCURVE",
"66 -72 OFFCURVE",
"60 -64 CURVE",
"64 -66 OFFCURVE",
"149 30 OFFCURVE",
"374 76 CURVE SMOOTH",
"388 79 OFFCURVE",
"397 106 OFFCURVE",
"397 131 CURVE SMOOTH",
"397 146 OFFCURVE",
"394 160 OFFCURVE",
"387 167 CURVE SMOOTH",
"350 206 OFFCURVE",
"236 236 OFFCURVE",
"157 308 CURVE SMOOTH",
"147 318 OFFCURVE",
"142 329 OFFCURVE",
"142 340 CURVE SMOOTH",
"142 381 OFFCURVE",
"197 431 OFFCURVE",
"246 457 CURVE",
"339 518 OFFCURVE",
"514 556 OFFCURVE",
"603 556 CURVE SMOOTH",
"638 556 OFFCURVE",
"661 551 OFFCURVE",
"660 538 CURVE",
"634 490 OFFCURVE",
"488 370 OFFCURVE",
"424 341 CURVE SMOOTH",
"417 337 OFFCURVE",
"397 325 OFFCURVE",
"397 318 CURVE SMOOTH",
"397 315 OFFCURVE",
"401 313 OFFCURVE",
"410 313 CURVE SMOOTH",
"460 313 OFFCURVE",
"577 378 OFFCURVE",
"654 446 CURVE",
"642 431 OFFCURVE",
"629 416 OFFCURVE",
"613 403 CURVE",
"616 402 OFFCURVE",
"619 401 OFFCURVE",
"623 401 CURVE SMOOTH",
"665 401 OFFCURVE",
"751 481 OFFCURVE",
"760 528 CURVE SMOOTH",
"764 547 OFFCURVE",
"735 590 OFFCURVE",
"732 585 CURVE SMOOTH",
"728 578 OFFCURVE",
"728 571 OFFCURVE",
"723 562 CURVE",
"722 559 LINE",
"715 591 OFFCURVE",
"695 638 OFFCURVE",
"670 643 CURVE SMOOTH",
"660 645 OFFCURVE",
"650 646 OFFCURVE",
"637 646 CURVE SMOOTH",
"590 646 OFFCURVE",
"525 633 OFFCURVE",
"454 613 CURVE",
"529 632 OFFCURVE",
"595 639 OFFCURVE",
"640 640 CURVE SMOOTH",
"646 640 OFFCURVE",
"650 639 OFFCURVE",
"650 637 CURVE SMOOTH",
"650 635 OFFCURVE",
"644 633 OFFCURVE",
"631 632 CURVE SMOOTH",
"565 630 OFFCURVE",
"436 604 OFFCURVE",
"318 562 CURVE",
"358 580 OFFCURVE",
"398 596 OFFCURVE",
"437 608 CURVE SMOOTH",
"371 588 OFFCURVE",
"297 563 OFFCURVE",
"226 528 CURVE",
"208 517 LINE",
"208 517 OFFCURVE",
"209 517 OFFCURVE",
"211 518 CURVE SMOOTH",
"244 534 OFFCURVE",
"280 549 OFFCURVE",
"318 562 CURVE",
"284 547 OFFCURVE",
"250 530 OFFCURVE",
"218 513 CURVE SMOOTH",
"118 457 OFFCURVE",
"32 386 OFFCURVE",
"32 324 CURVE SMOOTH",
"32 306 OFFCURVE",
"39 288 OFFCURVE",
"56 272 CURVE SMOOTH",
"129 200 OFFCURVE",
"258 168 OFFCURVE",
"289 148 CURVE",
"263 133 OFFCURVE",
"212 102 OFFCURVE",
"160 68 CURVE",
"203 100 OFFCURVE",
"245 129 OFFCURVE",
"261 136 CURVE SMOOTH",
"267 138 OFFCURVE",
"269 141 OFFCURVE",
"269 143 CURVE SMOOTH",
"269 145 OFFCURVE",
"267 146 OFFCURVE",
"265 146 CURVE SMOOTH",
"264 146 OFFCURVE",
"263 146 OFFCURVE",
"262 145 CURVE",
"234 128 OFFCURVE",
"150 68 OFFCURVE",
"83 17 CURVE",
"160 68 LINE",
"110 31 OFFCURVE",
"60 -9 OFFCURVE",
"48 -24 CURVE SMOOTH",
"43 -30 OFFCURVE",
"50 -15 OFFCURVE",
"55 -9 CURVE",
"83 17 LINE",
"40 -14 OFFCURVE",
"4 -40 OFFCURVE",
"-8 -54 CURVE SMOOTH",
"-13 -61 OFFCURVE",
"-19 -67 OFFCURVE",
"-19 -74 CURVE SMOOTH",
"-19 -79 OFFCURVE",
"-17 -84 OFFCURVE",
"-10 -91 CURVE SMOOTH",
"2 -104 OFFCURVE",
"19 -109 OFFCURVE",
"34 -109 CURVE SMOOTH"
);
},
{
closed = 1;
nodes = (
"443 609 OFFCURVE",
"448 611 OFFCURVE",
"454 613 CURVE",
"448 611 OFFCURVE",
"443 609 OFFCURVE",
"437 608 CURVE"
);
}
);
width = 463;
}
);
note = S;
unicode = 0053;
},
{
glyphname = Germandbls;
lastChange = "2021-10-25 22:52:02 +0000";
layers = (
{
layerId = "B9003040-D3EC-4996-96A5-33D5E21FF9E0";
paths = (
{
closed = 1;
nodes = (
"87 -57 OFFCURVE",
"150 31 OFFCURVE",
"195 84 CURVE SMOOTH",
"199 88 OFFCURVE",
"201 92 OFFCURVE",
"201 94 CURVE SMOOTH",
"201 95 OFFCURVE",
"201 95 OFFCURVE",
"200 95 CURVE SMOOTH",
"199 95 OFFCURVE",
"194 90 OFFCURVE",
"183 78 CURVE SMOOTH",
"164 57 OFFCURVE",
"123 -4 OFFCURVE",
"97 -36 CURVE SMOOTH",
"85 -51 LINE",
"209 148 OFFCURVE",
"404 455 OFFCURVE",
"617 575 CURVE SMOOTH",
"670 605 OFFCURVE",
"717 618 OFFCURVE",
"754 618 CURVE SMOOTH",
"805 618 OFFCURVE",
"837 594 OFFCURVE",
"837 557 CURVE SMOOTH",
"837 526 OFFCURVE",
"816 487 OFFCURVE",
"768 446 CURVE SMOOTH",
"658 350 OFFCURVE",
"459 391 OFFCURVE",
"470 331 CURVE SMOOTH",
"479 280 OFFCURVE",
"534 238 OFFCURVE",
"534 195 CURVE SMOOTH",
"534 113 OFFCURVE",
"335 35 OFFCURVE",
"247 31 CURVE SMOOTH",
"240 31 OFFCURVE",
"225 31 OFFCURVE",
"225 38 CURVE SMOOTH",
"225 43 OFFCURVE",
"232 51 OFFCURVE",
"252 65 CURVE SMOOTH",
"261 71 OFFCURVE",
"265 76 OFFCURVE",
"265 79 CURVE SMOOTH",
"265 82 OFFCURVE",
"261 84 OFFCURVE",
"254 84 CURVE SMOOTH",
"231 84 OFFCURVE",
"178 64 OFFCURVE",
"169 24 CURVE SMOOTH",
"161 -15 OFFCURVE",
"206 -33 OFFCURVE",
"239 -32 CURVE SMOOTH",
"385 -27 OFFCURVE",
"569 69 OFFCURVE",
"576 147 CURVE SMOOTH",
"583 213 OFFCURVE",
"533 266 OFFCURVE",
"533 293 CURVE",
"618 302 OFFCURVE",
"805 372 OFFCURVE",
"862 480 CURVE",
"849 448 OFFCURVE",
"826 422 OFFCURVE",
"790 393 CURVE SMOOTH",
"782 386 OFFCURVE",
"774 381 OFFCURVE",
"766 375 CURVE",
"812 405 OFFCURVE",
"844 420 OFFCURVE",
"873 499 CURVE SMOOTH",
"879 516 OFFCURVE",
"882 532 OFFCURVE",
"882 547 CURVE SMOOTH",
"882 613 OFFCURVE",
"824 658 OFFCURVE",
"729 658 CURVE SMOOTH",
"691 658 OFFCURVE",
"647 651 OFFCURVE",
"599 635 CURVE SMOOTH",
"351 553 OFFCURVE",
"145 195 OFFCURVE",
"29 -30 CURVE SMOOTH",
"26 -36 OFFCURVE",
"25 -42 OFFCURVE",
"25 -49 CURVE SMOOTH",
"25 -67 OFFCURVE",
"36 -87 OFFCURVE",
"62 -108 CURVE"
);
},
);
width = 679;
}
);
unicode = 1E9E;
},
{
glyphname = Schwa;
lastChange = "2021-10-25 22:52:02 +0000";
layers = (
{
layerId = "B9003040-D3EC-4996-96A5-33D5E21FF9E0";
paths = (
{
closed = 1;
nodes = (
"224 -15 OFFCURVE",
"350 18 OFFCURVE",
"464 72 CURVE SMOOTH",
"510 93 OFFCURVE",
"577 125 OFFCURVE",
"621 150 CURVE SMOOTH",
"630 155 OFFCURVE",
"621 155 OFFCURVE",
"612 150 CURVE SMOOTH",
"589 137 OFFCURVE",
"563 124 OFFCURVE",
"537 112 CURVE",
"637 168 OFFCURVE",
"718 228 OFFCURVE",
"788 341 CURVE SMOOTH",
"821 394 OFFCURVE",
"844 453 OFFCURVE",
"844 504 CURVE SMOOTH",
"844 565 OFFCURVE",
"811 615 OFFCURVE",
"723 633 CURVE",
"737 633 OFFCURVE",
"749 640 OFFCURVE",
"749 651 CURVE SMOOTH",
"749 667 OFFCURVE",
"718 676 OFFCURVE",
"686 676 CURVE SMOOTH",
"661 676 OFFCURVE",
"629 673 OFFCURVE",
"614 665 CURVE",
"610 662 OFFCURVE",
"607 660 OFFCURVE",
"607 656 CURVE SMOOTH",
"607 655 LINE",
"460 614 OFFCURVE",
"255 492 OFFCURVE",
"171 408 CURVE SMOOTH",
"150 386 OFFCURVE",
"144 372 OFFCURVE",
"154 372 CURVE SMOOTH",
"158 372 OFFCURVE",
"165 375 OFFCURVE",
"174 380 CURVE SMOOTH",
"227 410 OFFCURVE",
"275 436 OFFCURVE",
"320 459 CURVE",
"264 427 OFFCURVE",
"214 396 OFFCURVE",
"203 385 CURVE",
"235 402 OFFCURVE",
"390 492 OFFCURVE",
"414 504 CURVE SMOOTH",
"436 515 LINE",
"401 499 OFFCURVE",
"362 481 OFFCURVE",
"320 459 CURVE",
"353 478 OFFCURVE",
"387 498 OFFCURVE",
"418 514 CURVE SMOOTH",
"453 534 OFFCURVE",
"535 569 OFFCURVE",
"568 568 CURVE SMOOTH",
"573 568 OFFCURVE",
"515 551 OFFCURVE",
"496 542 CURVE SMOOTH",
"482 535 OFFCURVE",
"461 527 OFFCURVE",
"436 515 CURVE SMOOTH",
"547 564 OFFCURVE",
"625 584 OFFCURVE",
"676 584 CURVE SMOOTH",
"736 584 OFFCURVE",
"760 557 OFFCURVE",
"760 516 CURVE SMOOTH",
"760 493 OFFCURVE",
"752 464 OFFCURVE",
"737 433 CURVE SMOOTH",
"628 201 OFFCURVE",
"336 95 OFFCURVE",
"144 68 CURVE SMOOTH",
"136 67 OFFCURVE",
"129 66 OFFCURVE",
"123 66 CURVE SMOOTH",
"97 66 OFFCURVE",
"80 74 OFFCURVE",
"80 91 CURVE SMOOTH",
"80 104 OFFCURVE",
"91 122 OFFCURVE",
"117 147 CURVE SMOOTH",
"177 203 OFFCURVE",
"297 264 OFFCURVE",
"369 290 CURVE SMOOTH",
"515 343 OFFCURVE",
"728 369 OFFCURVE",
"735 382 CURVE SMOOTH",
"740 391 OFFCURVE",
"717 395 OFFCURVE",
"678 395 CURVE SMOOTH",
"608 395 OFFCURVE",
"486 382 OFFCURVE",
"382 362 CURVE SMOOTH",
"277 341 OFFCURVE",
"178 263 OFFCURVE",
"136 218 CURVE",
"92 223 OFFCURVE",
"-1 127 OFFCURVE",
"-4 81 CURVE SMOOTH",
"-5 63 OFFCURVE",
"29 34 OFFCURVE",
"32 39 CURVE SMOOTH",
"35 46 OFFCURVE",
"34 52 OFFCURVE",
"38 61 CURVE SMOOTH",
"42 70 OFFCURVE",
"49 81 OFFCURVE",
"55 85 CURVE",
"52 79 OFFCURVE",
"48 69 OFFCURVE",
"48 56 CURVE SMOOTH",
"48 40 OFFCURVE",
"54 19 OFFCURVE",
"70 -6 CURVE",
"88 -12 OFFCURVE",
"110 -15 OFFCURVE",
"136 -15 CURVE SMOOTH"
);
},
{
closed = 1;
nodes = (
"128 -2 OFFCURVE",
"117 1 OFFCURVE",
"117 3 CURVE SMOOTH",
"117 4 OFFCURVE",
"121 5 OFFCURVE",
"131 5 CURVE SMOOTH",
"225 5 OFFCURVE",
"397 50 OFFCURVE",
"526 110 CURVE",
"501 96 OFFCURVE",
"468 80 OFFCURVE",
"442 68 CURVE SMOOTH",
"325 17 OFFCURVE",
"195 3 OFFCURVE",
"137 -1 CURVE SMOOTH"
);
}
);
width = 744;
}
);
unicode = 018F;
},
{
glyphname = T;
lastChange = "2021-10-25 22:52:02 +0000";
layers = (
{
layerId = "B9003040-D3EC-4996-96A5-33D5E21FF9E0";
paths = (
{
closed = 1;
nodes = (
"267 -19 OFFCURVE",
"274 -16 OFFCURVE",
"274 -11 CURVE SMOOTH",
"274 -3 OFFCURVE",
"250 13 OFFCURVE",
"249 34 CURVE SMOOTH",
"242 220 OFFCURVE",
"528 447 OFFCURVE",
"661 543 CURVE",
"710 547 OFFCURVE",
"826 530 OFFCURVE",
"874 522 CURVE SMOOTH",
"886 520 OFFCURVE",
"893 524 OFFCURVE",
"893 531 CURVE SMOOTH",
"893 537 OFFCURVE",
"887 545 OFFCURVE",
"875 552 CURVE SMOOTH",
"846 569 OFFCURVE",
"778 588 OFFCURVE",
"714 593 CURVE",
"711 617 OFFCURVE",
"653 621 OFFCURVE",
"639 621 CURVE SMOOTH",
"630 621 OFFCURVE",
"620 618 OFFCURVE",
"603 607 CURVE",
"604 606 OFFCURVE",
"605 606 OFFCURVE",
"607 606 CURVE",
"624 602 OFFCURVE",
"630 601 OFFCURVE",
"630 600 CURVE",
"629 600 LINE SMOOTH",
"625 600 OFFCURVE",
"610 602 OFFCURVE",
"604 603 CURVE SMOOTH",
"542 615 OFFCURVE",
"486 620 OFFCURVE",
"436 620 CURVE SMOOTH",
"269 620 OFFCURVE",
"157 565 OFFCURVE",
"67 515 CURVE",
"68 517 LINE",
"63 513 OFFCURVE",
"60 511 OFFCURVE",
"65 514 CURVE SMOOTH",
"67 515 LINE",
"50 499 OFFCURVE",
"38 480 OFFCURVE",
"31 458 CURVE SMOOTH",
"28 449 OFFCURVE",
"27 441 OFFCURVE",
"27 433 CURVE SMOOTH",
"27 399 OFFCURVE",
"52 379 OFFCURVE",
"68 379 CURVE SMOOTH",
"75 379 OFFCURVE",
"81 384 OFFCURVE",
"81 393 CURVE SMOOTH",
"81 397 OFFCURVE",
"80 402 OFFCURVE",
"77 408 CURVE",
"96 479 OFFCURVE",
"273 540 OFFCURVE",
"305 547 CURVE SMOOTH",
"385 565 OFFCURVE",
"474 568 OFFCURVE",
"546 568 CURVE",
"532 557 OFFCURVE",
"506 536 OFFCURVE",
"501 529 CURVE",
"519 545 OFFCURVE",
"541 560 OFFCURVE",
"547 565 CURVE SMOOTH",
"458 490 OFFCURVE",
"173 192 OFFCURVE",
"173 62 CURVE SMOOTH",
"173 17 OFFCURVE",
"211 -16 OFFCURVE",
"244 -19 CURVE"
);
},
{
closed = 1;
nodes = (
"80 524 LINE",
"118 551 OFFCURVE",
"162 575 OFFCURVE",
"210 591 CURVE",
"159 575 OFFCURVE",
"105 552 OFFCURVE",
"68 517 CURVE"
);
},
{
closed = 1;
nodes = (
"255 604 LINE SMOOTH",
"240 600 OFFCURVE",
"225 596 OFFCURVE",
"210 591 CURVE SMOOTH"
);
},
{
closed = 1;
nodes = (
"255 604 LINE SMOOTH",
"258 604 OFFCURVE",
"261 605 OFFCURVE",
"264 606 CURVE",
"261 605 OFFCURVE",
"258 604 OFFCURVE",
"256 604 CURVE SMOOTH"
);
},
{
closed = 1;
nodes = (
"308 615 OFFCURVE",
"362 622 OFFCURVE",
"417 624 CURVE",
"363 623 OFFCURVE",
"312 616 OFFCURVE",
"264 606 CURVE"
);
},
{
closed = 1;
nodes = (
"560 618 OFFCURVE",
"512 623 OFFCURVE",
"463 624 CURVE SMOOTH",
"508 623 OFFCURVE",
"556 616 OFFCURVE",
"603 607 CURVE"
);
}
);
width = 578;
}
);
note = T;
unicode = 0054;
},
{
glyphname = U;
lastChange = "2021-10-25 22:52:02 +0000";
layers = (
{
layerId = "B9003040-D3EC-4996-96A5-33D5E21FF9E0";
paths = (
{
closed = 1;
nodes = (
"620 -40 OFFCURVE",
"625 -36 OFFCURVE",
"625 -32 CURVE SMOOTH",
"625 -29 OFFCURVE",
"623 -26 OFFCURVE",
"619 -24 CURVE",
"601 -11 OFFCURVE",
"588 0 OFFCURVE",
"588 24 CURVE SMOOTH",
"588 51 OFFCURVE",
"603 92 OFFCURVE",
"645 166 CURVE SMOOTH",
"711 284 OFFCURVE",
"802 399 OFFCURVE",
"827 439 CURVE",
"828 465 OFFCURVE",
"767 509 OFFCURVE",
"743 508 CURVE",
"685 460 OFFCURVE",
"664 408 OFFCURVE",
"614 355 CURVE SMOOTH",
"503 236 OFFCURVE",
"462 184 OFFCURVE",
"344 93 CURVE SMOOTH",
"332 84 OFFCURVE",
"299 65 OFFCURVE",
"281 65 CURVE SMOOTH",
"273 65 OFFCURVE",
"267 68 OFFCURVE",
"267 78 CURVE SMOOTH",
"267 86 OFFCURVE",
"271 98 OFFCURVE",
"280 115 CURVE SMOOTH",
"344 240 OFFCURVE",
"628 516 OFFCURVE",
"679 568 CURVE",
"680 571 OFFCURVE",
"681 573 OFFCURVE",
"681 576 CURVE SMOOTH",
"681 607 OFFCURVE",
"612 644 OFFCURVE",
"589 651 CURVE SMOOTH",
"586 652 OFFCURVE",
"583 652 OFFCURVE",
"581 652 CURVE SMOOTH",
"569 652 OFFCURVE",
"559 644 OFFCURVE",
"559 637 CURVE",
"567 638 OFFCURVE",
"576 636 OFFCURVE",
"576 634 CURVE SMOOTH",
"576 633 OFFCURVE",
"572 632 OFFCURVE",
"562 632 CURVE SMOOTH",
"251 630 OFFCURVE",
"120 495 OFFCURVE",
"84 420 CURVE SMOOTH",
"80 412 OFFCURVE",
"83 429 OFFCURVE",
"87 436 CURVE SMOOTH",
"100 463 OFFCURVE",
"119 489 OFFCURVE",
"147 513 CURVE",
"106 481 OFFCURVE",
"73 443 OFFCURVE",
"73 394 CURVE SMOOTH",
"73 351 OFFCURVE",
"103 330 OFFCURVE",
"122 330 CURVE SMOOTH",
"130 330 OFFCURVE",
"136 334 OFFCURVE",
"136 342 CURVE SMOOTH",
"136 346 OFFCURVE",
"134 353 OFFCURVE",
"129 360 CURVE",
"134 435 OFFCURVE",
"270 507 OFFCURVE",
"300 521 CURVE SMOOTH",
"352 545 OFFCURVE",
"510 615 OFFCURVE",
"563 610 CURVE",
"554 584 OFFCURVE",
"535 571 OFFCURVE",
"518 553 CURVE",
"531 555 OFFCURVE",
"531 563 OFFCURVE",
"559 586 CURVE",
"492 501 OFFCURVE",
"238 249 OFFCURVE",
"189 79 CURVE SMOOTH",
"185 65 OFFCURVE",
"183 53 OFFCURVE",
"183 42 CURVE SMOOTH",
"183 9 OFFCURVE",
"203 -5 OFFCURVE",
"231 -5 CURVE SMOOTH",
"256 -5 OFFCURVE",
"286 6 OFFCURVE",
"313 22 CURVE SMOOTH",
"429 92 OFFCURVE",
"503 164 OFFCURVE",
"633 306 CURVE",
"609 268 OFFCURVE",
"590 215 OFFCURVE",
"576 172 CURVE",
"574 176 OFFCURVE",
"579 188 OFFCURVE",
"592 232 CURVE",
"580 207 OFFCURVE",
"546 120 OFFCURVE",
"546 51 CURVE SMOOTH",
"546 4 OFFCURVE",
"562 -34 OFFCURVE",
"610 -39 CURVE SMOOTH"
);
},
{
closed = 1;
nodes = (
"151 515 OFFCURVE",
"154 518 OFFCURVE",
"158 521 CURVE",
"154 518 OFFCURVE",
"151 515 OFFCURVE",
"147 513 CURVE"
);
},
{
closed = 1;
nodes = (
"196 548 OFFCURVE",
"239 566 OFFCURVE",
"273 583 CURVE SMOOTH",
"280 587 LINE",
"232 567 OFFCURVE",
"193 546 OFFCURVE",
"160 523 CURVE SMOOTH"
);
},
{
closed = 1;
nodes = (
"354 614 OFFCURVE",
"447 632 OFFCURVE",
"559 637 CURVE",
"551 638 OFFCURVE",
"542 638 OFFCURVE",
"533 638 CURVE SMOOTH",
"450 638 OFFCURVE",
"339 611 OFFCURVE",
"280 587 CURVE"
);
}
);
width = 716;
}
);
note = U;
unicode = 0055;
},
{
glyphname = V;
lastChange = "2021-10-25 22:52:02 +0000";
layers = (
{
layerId = "B9003040-D3EC-4996-96A5-33D5E21FF9E0";
paths = (
{
closed = 1;
nodes = (
"345 -31 OFFCURVE",
"361 -26 OFFCURVE",
"378 -16 CURVE",
"393 -14 OFFCURVE",
"410 -8 OFFCURVE",
"427 0 CURVE",
"421 -5 LINE SMOOTH",
"413 -12 OFFCURVE",
"445 6 OFFCURVE",
"455 12 CURVE SMOOTH",
"507 45 OFFCURVE",
"582 112 OFFCURVE",
"671 220 CURVE SMOOTH",
"724 284 OFFCURVE",
"759 333 OFFCURVE",
"799 406 CURVE",
"766 360 OFFCURVE",
"730 306 OFFCURVE",
"690 253 CURVE SMOOTH",
"654 206 OFFCURVE",
"616 165 OFFCURVE",
"579 129 CURVE",
"685 244 OFFCURVE",
"791 398 OFFCURVE",
"843 487 CURVE SMOOTH",
"845 491 OFFCURVE",
"810 419 OFFCURVE",
"808 409 CURVE",
"829 446 OFFCURVE",
"862 500 OFFCURVE",
"880 536 CURVE SMOOTH",
"882 539 OFFCURVE",
"882 543 OFFCURVE",
"882 547 CURVE SMOOTH",
"882 573 OFFCURVE",
"846 610 OFFCURVE",
"802 624 CURVE SMOOTH",
"782 630 OFFCURVE",
"771 612 OFFCURVE",
"775 593 CURVE SMOOTH",
"777 583 OFFCURVE",
"796 574 OFFCURVE",
"792 566 CURVE SMOOTH",
"747 472 OFFCURVE",
"604 234 OFFCURVE",
"484 124 CURVE SMOOTH",
"479 119 OFFCURVE",
"385 11 OFFCURVE",
"340 11 CURVE SMOOTH",
"329 11 OFFCURVE",
"322 17 OFFCURVE",
"318 30 CURVE SMOOTH",
"317 35 OFFCURVE",
"316 40 OFFCURVE",
"316 45 CURVE SMOOTH",
"316 156 OFFCURVE",
"551 433 OFFCURVE",
"607 494 CURVE SMOOTH",
"610 497 OFFCURVE",
"611 501 OFFCURVE",
"611 506 CURVE SMOOTH",
"611 538 OFFCURVE",
"558 596 OFFCURVE",
"522 592 CURVE SMOOTH",
"373 574 OFFCURVE",
"153 482 OFFCURVE",
"82 391 CURVE SMOOTH",
"65 370 OFFCURVE",
"58 350 OFFCURVE",
"58 332 CURVE SMOOTH",
"58 298 OFFCURVE",
"84 275 OFFCURVE",
"105 275 CURVE SMOOTH",
"110 275 OFFCURVE",
"115 276 OFFCURVE",
"119 279 CURVE SMOOTH",
"131 289 OFFCURVE",
"140 294 OFFCURVE",
"138 326 CURVE SMOOTH",
"133 407 OFFCURVE",
"418 537 OFFCURVE",
"502 554 CURVE SMOOTH",
"510 556 OFFCURVE",
"516 556 OFFCURVE",
"520 556 CURVE SMOOTH",
"527 556 OFFCURVE",
"530 554 OFFCURVE",
"530 552 CURVE SMOOTH",
"530 543 OFFCURVE",
"506 523 OFFCURVE",
"498 511 CURVE SMOOTH",
"494 505 OFFCURVE",
"351 306 OFFCURVE",
"342 289 CURVE",
"401 366 OFFCURVE",
"476 473 OFFCURVE",
"491 474 CURVE",
"375 318 OFFCURVE",
"234 163 OFFCURVE",
"234 84 CURVE SMOOTH",
"234 79 OFFCURVE",
"235 74 OFFCURVE",
"236 69 CURVE SMOOTH",
"251 16 OFFCURVE",
"283 -31 OFFCURVE",
"330 -31 CURVE SMOOTH"
);
},
{
closed = 1;
nodes = (
"453 19 OFFCURVE",
"513 64 OFFCURVE",
"579 129 CURVE",
"528 73 OFFCURVE",
"476 27 OFFCURVE",
"430 2 CURVE"
);
}
);
width = 699;
}
);
note = V;
unicode = 0056;
},
{
glyphname = W;
lastChange = "2021-10-25 22:52:02 +0000";
layers = (
{
layerId = "B9003040-D3EC-4996-96A5-33D5E21FF9E0";
paths = (
{
closed = 1;
nodes = (
"274 -26 OFFCURVE",
"301 -3 OFFCURVE",
"301 22 CURVE SMOOTH",
"301 24 OFFCURVE",
"301 27 OFFCURVE",
"300 30 CURVE",
"300 32 OFFCURVE",
"354 101 OFFCURVE",
"376 125 CURVE",
"364 116 OFFCURVE",
"315 61 OFFCURVE",
"294 42 CURVE",
"358 131 OFFCURVE",
"567 325 OFFCURVE",
"661 388 CURVE",
"635 356 OFFCURVE",
"587 249 OFFCURVE",
"569 167 CURVE SMOOTH",
"563 141 OFFCURVE",
"560 127 OFFCURVE",
"560 114 CURVE SMOOTH",
"560 106 OFFCURVE",
"561 99 OFFCURVE",
"563 89 CURVE SMOOTH",
"571 48 OFFCURVE",
"629 10 OFFCURVE",
"681 0 CURVE",
"707 2 OFFCURVE",
"737 20 OFFCURVE",
"770 48 CURVE",
"771 45 OFFCURVE",
"773 45 OFFCURVE",
"777 48 CURVE SMOOTH",
"825 88 OFFCURVE",
"899 165 OFFCURVE",
"945 229 CURVE SMOOTH",
"990 291 OFFCURVE",
"1018 333 OFFCURVE",
"1058 406 CURVE",
"1028 364 LINE",
"1058 410 OFFCURVE",
"1085 453 OFFCURVE",
"1105 487 CURVE SMOOTH",
"1107 491 OFFCURVE",
"1072 419 OFFCURVE",
"1070 409 CURVE",
"1091 446 OFFCURVE",
"1124 500 OFFCURVE",
"1142 536 CURVE SMOOTH",
"1144 539 OFFCURVE",
"1144 543 OFFCURVE",
"1144 547 CURVE SMOOTH",
"1144 573 OFFCURVE",
"1108 610 OFFCURVE",
"1064 624 CURVE SMOOTH",
"1044 630 OFFCURVE",
"1033 612 OFFCURVE",
"1037 593 CURVE SMOOTH",
"1039 583 OFFCURVE",
"1058 574 OFFCURVE",
"1054 566 CURVE SMOOTH",
"1009 472 OFFCURVE",
"866 234 OFFCURVE",
"746 124 CURVE SMOOTH",
"700 82 OFFCURVE",
"671 65 OFFCURVE",
"654 65 CURVE SMOOTH",
"640 65 OFFCURVE",
"634 76 OFFCURVE",
"634 94 CURVE SMOOTH",
"634 125 OFFCURVE",
"652 179 OFFCURVE",
"677 234 CURVE SMOOTH",
"708 304 OFFCURVE",
"753 376 OFFCURVE",
"778 407 CURVE SMOOTH",
"791 423 OFFCURVE",
"724 466 OFFCURVE",
"705 464 CURVE SMOOTH",
"655 458 OFFCURVE",
"417 218 OFFCURVE",
"380 183 CURVE SMOOTH",
"344 149 OFFCURVE",
"331 139 OFFCURVE",
"331 142 CURVE SMOOTH",
"331 145 OFFCURVE",
"353 172 OFFCURVE",
"371 200 CURVE SMOOTH",
"420 279 OFFCURVE",
"527 407 OFFCURVE",
"607 494 CURVE SMOOTH",
"610 497 OFFCURVE",
"611 501 OFFCURVE",
"611 506 CURVE SMOOTH",
"611 538 OFFCURVE",
"558 596 OFFCURVE",
"522 592 CURVE SMOOTH",
"373 574 OFFCURVE",
"154 482 OFFCURVE",
"82 391 CURVE SMOOTH",
"65 370 OFFCURVE",
"58 350 OFFCURVE",
"58 332 CURVE SMOOTH",
"58 298 OFFCURVE",
"84 275 OFFCURVE",
"105 275 CURVE SMOOTH",
"110 275 OFFCURVE",
"115 276 OFFCURVE",
"119 279 CURVE SMOOTH",
"131 289 OFFCURVE",
"140 294 OFFCURVE",
"138 326 CURVE SMOOTH",
"133 407 OFFCURVE",
"418 537 OFFCURVE",
"502 554 CURVE SMOOTH",
"510 556 OFFCURVE",
"516 556 OFFCURVE",
"520 556 CURVE SMOOTH",
"527 556 OFFCURVE",
"530 554 OFFCURVE",
"530 552 CURVE SMOOTH",
"530 543 OFFCURVE",
"506 523 OFFCURVE",
"498 511 CURVE SMOOTH",
"415 383 LINE SMOOTH",
"410 376 OFFCURVE",
"496 481 OFFCURVE",
"491 474 CURVE SMOOTH",
"350 272 OFFCURVE",
"208 105 OFFCURVE",
"208 31 CURVE SMOOTH",
"208 2 OFFCURVE",
"225 -26 OFFCURVE",
"255 -26 CURVE SMOOTH"
);
},
{
closed = 1;
nodes = (
"770 51 OFFCURVE",
"772 57 OFFCURVE",
"777 61 CURVE SMOOTH",
"788 71 OFFCURVE",
"858 126 OFFCURVE",
"935 235 CURVE SMOOTH",
"1028 364 LINE",
"953 251 OFFCURVE",
"854 117 OFFCURVE",
"770 48 CURVE"
);
}
);
width = 955;
}
);
note = W;
unicode = 0057;
},
{
glyphname = X;
lastChange = "2021-10-25 22:52:02 +0000";
layers = (
{
layerId = "B9003040-D3EC-4996-96A5-33D5E21FF9E0";
paths = (
{
closed = 1;
nodes = (
"596 -8 OFFCURVE",
"623 15 OFFCURVE",
"650 34 CURVE SMOOTH",
"657 39 OFFCURVE",
"661 46 OFFCURVE",
"661 51 CURVE SMOOTH",
"661 54 OFFCURVE",
"659 56 OFFCURVE",
"657 56 CURVE SMOOTH",
"655 56 OFFCURVE",
"654 55 OFFCURVE",
"652 54 CURVE SMOOTH",
"625 38 OFFCURVE",
"605 31 OFFCURVE",
"589 31 CURVE SMOOTH",
"558 31 OFFCURVE",
"547 60 OFFCURVE",
"547 98 CURVE SMOOTH",
"547 158 OFFCURVE",
"574 244 OFFCURVE",
"590 278 CURVE",
"731 368 OFFCURVE",
"890 470 OFFCURVE",
"995 535 CURVE",
"998 534 OFFCURVE",
"1002 534 OFFCURVE",
"1005 534 CURVE SMOOTH",
"1035 534 OFFCURVE",
"1063 565 OFFCURVE",
"1069 582 CURVE SMOOTH",
"1072 590 OFFCURVE",
"1073 599 OFFCURVE",
"1073 607 CURVE SMOOTH",
"1073 628 OFFCURVE",
"1065 646 OFFCURVE",
"1052 637 CURVE SMOOTH",
"1019 613 OFFCURVE",
"728 423 OFFCURVE",
"606 316 CURVE",
"652 406 OFFCURVE",
"751 538 OFFCURVE",
"766 554 CURVE",
"757 581 OFFCURVE",
"725 602 OFFCURVE",
"696 598 CURVE",
"693 599 LINE",
"700 601 OFFCURVE",
"696 607 OFFCURVE",
"689 607 CURVE SMOOTH",
"603 608 OFFCURVE",
"525 587 OFFCURVE",
"463 549 CURVE",
"513 577 OFFCURVE",
"596 602 OFFCURVE",
"660 602 CURVE SMOOTH",
"672 602 OFFCURVE",
"683 601 OFFCURVE",
"693 599 CURVE",
"691 598 OFFCURVE",
"689 598 OFFCURVE",
"686 598 CURVE SMOOTH",
"496 604 OFFCURVE",
"400 501 OFFCURVE",
"344 415 CURVE SMOOTH",
"345 417 LINE",
"342 412 LINE",
"344 415 LINE",
"340 400 OFFCURVE",
"337 385 OFFCURVE",
"337 369 CURVE SMOOTH",
"337 310 OFFCURVE",
"363 285 OFFCURVE",
"378 285 CURVE SMOOTH",
"383 285 OFFCURVE",
"386 288 OFFCURVE",
"386 294 CURVE SMOOTH",
"386 299 OFFCURVE",
"384 306 OFFCURVE",
"378 315 CURVE",
"369 386 OFFCURVE",
"488 479 OFFCURVE",
"505 492 CURVE SMOOTH",
"556 529 OFFCURVE",
"627 572 OFFCURVE",
"676 575 CURVE",
"615 495 OFFCURVE",
"566 408 OFFCURVE",
"526 320 CURVE SMOOTH",
"519 303 OFFCURVE",
"509 280 OFFCURVE",
"500 254 CURVE",
"352 142 OFFCURVE",
"214 48 OFFCURVE",
"83 48 CURVE SMOOTH",
"52 48 OFFCURVE",
"18 57 OFFCURVE",
"18 87 CURVE SMOOTH",
"18 140 OFFCURVE",
"198 209 OFFCURVE",
"271 228 CURVE",
"189 209 OFFCURVE",
"169 204 OFFCURVE",
"137 192 CURVE",
"174 210 OFFCURVE",
"234 226 OFFCURVE",
"294 235 CURVE SMOOTH",
"315 238 OFFCURVE",
"340 249 OFFCURVE",
"340 256 CURVE SMOOTH",
"340 259 OFFCURVE",
"334 262 OFFCURVE",
"316 262 CURVE SMOOTH",
"302 262 OFFCURVE",
"280 260 OFFCURVE",
"248 256 CURVE SMOOTH",
"113 237 OFFCURVE",
"-12 165 OFFCURVE",
"-12 84 CURVE SMOOTH",
"-12 25 OFFCURVE",
"54 -6 OFFCURVE",
"105 -6 CURVE SMOOTH",
"251 -6 OFFCURVE",
"373 104 OFFCURVE",
"485 205 CURVE",
"475 169 OFFCURVE",
"468 131 OFFCURVE",
"468 98 CURVE SMOOTH",
"468 38 OFFCURVE",
"490 -8 OFFCURVE",
"558 -8 CURVE SMOOTH"
);
},
{
closed = 1;
nodes = (
"348 424 LINE SMOOTH",
"373 476 OFFCURVE",
"411 520 OFFCURVE",
"463 549 CURVE SMOOTH",
"453 544 OFFCURVE",
"444 539 OFFCURVE",
"437 534 CURVE SMOOTH",
"404 510 OFFCURVE",
"364 471 OFFCURVE",
"346 421 CURVE"
);
}
);
width = 660;
}
);
note = X;
unicode = 0058;
},
{
glyphname = Y;
lastChange = "2021-10-25 22:52:02 +0000";
layers = (
{
layerId = "B9003040-D3EC-4996-96A5-33D5E21FF9E0";
paths = (
{
closed = 1;
nodes = (
"246 -293 OFFCURVE",
"332 -228 OFFCURVE",
"321 -222 CURVE SMOOTH",
"318 -220 OFFCURVE",
"314 -219 OFFCURVE",
"310 -219 CURVE",
"335 -203 OFFCURVE",
"439 -112 OFFCURVE",
"477 -67 CURVE SMOOTH",
"508 -30 OFFCURVE",
"530 2 OFFCURVE",
"545 23 CURVE",
"533 8 OFFCURVE",
"518 -7 OFFCURVE",
"509 -20 CURVE SMOOTH",
"445 -100 OFFCURVE",
"380 -166 OFFCURVE",
"310 -219 CURVE",
"304 -222 OFFCURVE",
"440 -95 OFFCURVE",
"490 -37 CURVE SMOOTH",
"559 42 LINE",
"558 40 LINE",
"553 33 LINE",
"564 46 LINE",
"584 53 OFFCURVE",
"605 61 OFFCURVE",
"621 66 CURVE SMOOTH",
"630 68 OFFCURVE",
"634 73 OFFCURVE",
"634 77 CURVE SMOOTH",
"634 82 OFFCURVE",
"629 86 OFFCURVE",
"620 86 CURVE SMOOTH",
"617 86 LINE",
"591 84 LINE",
"668 192 OFFCURVE",
"718 283 OFFCURVE",
"718 283 CURVE",
"722 294 OFFCURVE",
"670 324 OFFCURVE",
"645 326 CURVE",
"661 345 OFFCURVE",
"672 361 OFFCURVE",
"670 361 CURVE SMOOTH",
"668 361 OFFCURVE",
"660 354 OFFCURVE",
"644 337 CURVE SMOOTH",
"533 218 OFFCURVE",
"462 184 OFFCURVE",
"344 93 CURVE SMOOTH",
"332 84 OFFCURVE",
"299 65 OFFCURVE",
"281 65 CURVE SMOOTH",
"273 65 OFFCURVE",
"267 68 OFFCURVE",
"267 78 CURVE SMOOTH",
"267 86 OFFCURVE",
"271 98 OFFCURVE",
"280 115 CURVE SMOOTH",
"344 240 OFFCURVE",
"628 516 OFFCURVE",
"679 568 CURVE",
"680 571 OFFCURVE",
"681 573 OFFCURVE",
"681 576 CURVE SMOOTH",
"681 607 OFFCURVE",
"612 644 OFFCURVE",
"589 651 CURVE SMOOTH",
"586 652 OFFCURVE",
"583 652 OFFCURVE",
"581 652 CURVE SMOOTH",
"569 652 OFFCURVE",
"559 644 OFFCURVE",
"559 637 CURVE",
"567 638 OFFCURVE",
"576 636 OFFCURVE",
"576 634 CURVE SMOOTH",
"576 633 OFFCURVE",
"572 632 OFFCURVE",
"562 632 CURVE SMOOTH",
"251 630 OFFCURVE",
"120 495 OFFCURVE",
"84 420 CURVE SMOOTH",
"80 412 OFFCURVE",
"83 429 OFFCURVE",
"87 436 CURVE SMOOTH",
"102 466 OFFCURVE",
"124 496 OFFCURVE",
"158 520 CURVE SMOOTH",
"112 487 OFFCURVE",
"73 447 OFFCURVE",
"73 394 CURVE SMOOTH",
"73 351 OFFCURVE",
"103 330 OFFCURVE",
"122 330 CURVE SMOOTH",
"130 330 OFFCURVE",
"136 334 OFFCURVE",
"136 342 CURVE SMOOTH",
"136 346 OFFCURVE",
"134 353 OFFCURVE",
"129 360 CURVE",
"134 435 OFFCURVE",
"270 507 OFFCURVE",
"300 521 CURVE SMOOTH",
"352 545 OFFCURVE",
"510 615 OFFCURVE",
"563 610 CURVE",
"554 584 OFFCURVE",
"535 571 OFFCURVE",
"518 553 CURVE",
"531 555 OFFCURVE",
"531 563 OFFCURVE",
"559 586 CURVE",
"492 501 OFFCURVE",
"238 249 OFFCURVE",
"189 79 CURVE SMOOTH",
"185 65 OFFCURVE",
"183 53 OFFCURVE",
"183 42 CURVE SMOOTH",
"183 9 OFFCURVE",
"203 -5 OFFCURVE",
"231 -5 CURVE SMOOTH",
"256 -5 OFFCURVE",
"286 6 OFFCURVE",
"313 22 CURVE SMOOTH",
"409 80 OFFCURVE",
"489 135 OFFCURVE",
"588 234 CURVE",
"566 193 OFFCURVE",
"545 155 OFFCURVE",
"546 155 CURVE",
"529 130 OFFCURVE",
"512 103 OFFCURVE",
"491 75 CURVE",
"342 20 OFFCURVE",
"211 -76 OFFCURVE",
"157 -156 CURVE",
"156 -159 OFFCURVE",
"156 -162 OFFCURVE",
"156 -166 CURVE SMOOTH",
"156 -188 OFFCURVE",
"171 -214 OFFCURVE",
"191 -235 CURVE",
"189 -239 LINE SMOOTH",
"187 -243 OFFCURVE",
"186 -247 OFFCURVE",
"186 -251 CURVE SMOOTH",
"186 -272 OFFCURVE",
"214 -283 OFFCURVE",
"231 -288 CURVE SMOOTH"
);
},
{
closed = 1;
nodes = (
"226 -238 OFFCURVE",
"223 -231 OFFCURVE",
"223 -223 CURVE SMOOTH",
"223 -157 OFFCURVE",
"395 -14 OFFCURVE",
"453 8 CURVE",
"454 8 OFFCURVE",
"460 10 OFFCURVE",
"484 39 CURVE",
"471 18 OFFCURVE",
"451 -2 OFFCURVE",
"434 -21 CURVE SMOOTH",
"375 -88 OFFCURVE",
"285 -190 OFFCURVE",
"232 -244 CURVE"
);
},
{
closed = 1;
nodes = (
"196 548 OFFCURVE",
"239 566 OFFCURVE",
"273 583 CURVE SMOOTH",
"280 587 LINE",
"232 567 OFFCURVE",
"193 546 OFFCURVE",
"160 522 CURVE"
);
},
{
closed = 1;
nodes = (
"354 614 OFFCURVE",
"447 632 OFFCURVE",
"559 637 CURVE",
"551 638 OFFCURVE",
"542 638 OFFCURVE",
"533 638 CURVE SMOOTH",
"450 638 OFFCURVE",
"339 611 OFFCURVE",
"280 587 CURVE"
);
}
);
width = 679;
}
);
note = Y;
unicode = 0059;
},
{
glyphname = Z;
lastChange = "2021-10-25 22:52:02 +0000";
layers = (
{
layerId = "B9003040-D3EC-4996-96A5-33D5E21FF9E0";
paths = (
{
closed = 1;
nodes = (
"79 -43 OFFCURVE",
"94 -39 OFFCURVE",
"130 -17 CURVE SMOOTH",
"207 31 OFFCURVE",
"275 46 OFFCURVE",
"331 46 CURVE SMOOTH",
"417 46 OFFCURVE",
"473 10 OFFCURVE",
"486 6 CURVE",
"492 -1 OFFCURVE",
"497 4 OFFCURVE",
"497 12 CURVE SMOOTH",
"497 15 OFFCURVE",
"497 17 OFFCURVE",
"496 19 CURVE SMOOTH",
"484 51 OFFCURVE",
"451 71 OFFCURVE",
"409 82 CURVE",
"424 80 OFFCURVE",
"438 76 OFFCURVE",
"450 71 CURVE",
"436 85 OFFCURVE",
"369 92 OFFCURVE",
"347 92 CURVE SMOOTH",
"346 92 LINE SMOOTH",
"368 90 OFFCURVE",
"389 87 OFFCURVE",
"409 82 CURVE",
"392 84 OFFCURVE",
"375 85 OFFCURVE",
"357 85 CURVE SMOOTH",
"324 85 OFFCURVE",
"291 82 OFFCURVE",
"268 81 CURVE SMOOTH",
"240 80 OFFCURVE",
"199 73 OFFCURVE",
"147 56 CURVE",
"194 83 OFFCURVE",
"306 90 OFFCURVE",
"345 92 CURVE",
"262 97 OFFCURVE",
"169 78 OFFCURVE",
"127 50 CURVE",
"193 103 OFFCURVE",
"314 190 OFFCURVE",
"451 300 CURVE SMOOTH",
"518 354 OFFCURVE",
"691 468 OFFCURVE",
"732 510 CURVE SMOOTH",
"737 515 OFFCURVE",
"739 521 OFFCURVE",
"739 530 CURVE SMOOTH",
"739 563 OFFCURVE",
"704 618 OFFCURVE",
"681 618 CURVE SMOOTH",
"621 617 OFFCURVE",
"421 585 OFFCURVE",
"301 585 CURVE SMOOTH",
"256 585 OFFCURVE",
"223 590 OFFCURVE",
"212 602 CURVE SMOOTH",
"210 604 OFFCURVE",
"197 613 OFFCURVE",
"190 613 CURVE SMOOTH",
"187 613 OFFCURVE",
"185 611 OFFCURVE",
"185 607 CURVE SMOOTH",
"185 577 OFFCURVE",
"233 481 OFFCURVE",
"284 481 CURVE SMOOTH",
"329 481 OFFCURVE",
"380 494 OFFCURVE",
"435 510 CURVE",
"376 498 OFFCURVE",
"344 491 OFFCURVE",
"344 492 CURVE SMOOTH",
"344 493 OFFCURVE",
"377 501 OFFCURVE",
"451 520 CURVE SMOOTH",
"517 537 OFFCURVE",
"588 558 OFFCURVE",
"659 569 CURVE",
"534 462 OFFCURVE",
"21 51 OFFCURVE",
"19 36 CURVE SMOOTH",
"15 7 OFFCURVE",
"41 -43 OFFCURVE",
"67 -43 CURVE SMOOTH"
);
}
);
width = 520;
}
);
note = Z;
unicode = 005A;
},
{
glyphname = A.ss01;
lastChange = "2021-10-25 22:52:02 +0000";
layers = (
{
layerId = "B9003040-D3EC-4996-96A5-33D5E21FF9E0";
paths = (
{
closed = 1;
nodes = (
"913 -114 OFFCURVE",
"940 -105 OFFCURVE",
"940 -92 CURVE SMOOTH",
"940 -83 OFFCURVE",
"922 -71 OFFCURVE",
"884 -61 CURVE",
"884 -60 OFFCURVE",
"860 -52 OFFCURVE",
"839 -47 CURVE",
"840 -40 OFFCURVE",
"841 -33 OFFCURVE",
"844 -23 CURVE",
"844 -40 OFFCURVE",
"848 -26 OFFCURVE",
"858 15 CURVE SMOOTH",
"870 64 OFFCURVE",
"929 193 OFFCURVE",
"966 265 CURVE",
"1001 271 OFFCURVE",
"1071 293 OFFCURVE",
"1040 293 CURVE SMOOTH",
"1036 293 OFFCURVE",
"1030 293 OFFCURVE",
"1023 292 CURVE SMOOTH",
"1018 291 OFFCURVE",
"1002 290 OFFCURVE",
"979 289 CURVE",
"984 299 OFFCURVE",
"989 307 OFFCURVE",
"992 312 CURVE SMOOTH",
"998 322 OFFCURVE",
"1001 331 OFFCURVE",
"1000 331 CURVE SMOOTH",
"999 331 OFFCURVE",
"999 330 OFFCURVE",
"998 329 CURVE SMOOTH",
"990 318 OFFCURVE",
"982 305 OFFCURVE",
"972 288 CURVE",
"968 288 LINE",
"986 318 OFFCURVE",
"1007 347 OFFCURVE",
"1030 373 CURVE",
"1089 453 OFFCURVE",
"1157 542 OFFCURVE",
"1158 552 CURVE SMOOTH",
"1160 584 OFFCURVE",
"1132 614 OFFCURVE",
"1102 614 CURVE SMOOTH",
"1096 614 OFFCURVE",
"1089 613 OFFCURVE",
"1083 610 CURVE",
"1077 614 OFFCURVE",
"1069 617 OFFCURVE",
"1061 620 CURVE",
"1072 620 OFFCURVE",
"1069 627 OFFCURVE",
"1059 629 CURVE SMOOTH",
"988 643 OFFCURVE",
"921 650 OFFCURVE",
"859 650 CURVE SMOOTH",
"767 650 OFFCURVE",
"686 635 OFFCURVE",
"614 607 CURVE SMOOTH",
"640 617 OFFCURVE",
"666 623 OFFCURVE",
"689 629 CURVE SMOOTH",
"733 638 OFFCURVE",
"799 645 OFFCURVE",
"867 645 CURVE SMOOTH",
"937 645 OFFCURVE",
"1010 638 OFFCURVE",
"1061 620 CURVE",
"1058 620 OFFCURVE",
"1055 620 OFFCURVE",
"1050 621 CURVE SMOOTH",
"976 637 OFFCURVE",
"911 644 OFFCURVE",
"853 644 CURVE SMOOTH",
"691 644 OFFCURVE",
"585 590 OFFCURVE",
"496 541 CURVE",
"498 543 LINE",
"493 540 OFFCURVE",
"489 537 OFFCURVE",
"489 537 CURVE",
"492 539 LINE",
"496 541 LINE",
"478 524 OFFCURVE",
"465 505 OFFCURVE",
"458 482 CURVE SMOOTH",
"455 472 OFFCURVE",
"454 463 OFFCURVE",
"454 455 CURVE SMOOTH",
"454 419 OFFCURVE",
"478 397 OFFCURVE",
"492 397 CURVE SMOOTH",
"498 397 OFFCURVE",
"502 401 OFFCURVE",
"502 409 CURVE SMOOTH",
"502 413 OFFCURVE",
"501 418 OFFCURVE",
"498 425 CURVE",
"517 496 OFFCURVE",
"700 564 OFFCURVE",
"732 572 CURVE SMOOTH",
"806 588 OFFCURVE",
"901 605 OFFCURVE",
"974 605 CURVE SMOOTH",
"1004 605 OFFCURVE",
"1030 603 OFFCURVE",
"1049 596 CURVE",
"955 522 LINE",
"965 522 OFFCURVE",
"1019 566 OFFCURVE",
"1034 576 CURVE",
"999 547 OFFCURVE",
"919 475 OFFCURVE",
"710 275 CURVE",
"634 271 OFFCURVE",
"543 266 OFFCURVE",
"481 265 CURVE SMOOTH",
"448 264 OFFCURVE",
"408 263 OFFCURVE",
"365 263 CURVE SMOOTH",
"295 263 OFFCURVE",
"216 266 OFFCURVE",
"148 273 CURVE",
"212 287 OFFCURVE",
"275 312 OFFCURVE",
"273 326 CURVE SMOOTH",
"271 333 OFFCURVE",
"270 336 OFFCURVE",
"268 336 CURVE SMOOTH",
"266 336 OFFCURVE",
"264 334 OFFCURVE",
"261 330 CURVE SMOOTH",
"256 324 OFFCURVE",
"182 309 OFFCURVE",
"159 305 CURVE SMOOTH",
"154 304 OFFCURVE",
"147 303 OFFCURVE",
"140 303 CURVE SMOOTH",
"117 303 OFFCURVE",
"88 308 OFFCURVE",
"64 308 CURVE SMOOTH",
"48 308 OFFCURVE",
"35 306 OFFCURVE",
"29 299 CURVE",
"28 299 OFFCURVE",
"27 299 OFFCURVE",
"26 300 CURVE",
"13 281 OFFCURVE",
"0 249 OFFCURVE",
"0 231 CURVE SMOOTH",
"0 221 OFFCURVE",
"3 215 OFFCURVE",
"11 215 CURVE SMOOTH",
"13 215 OFFCURVE",
"16 216 OFFCURVE",
"20 217 CURVE",
"54 213 OFFCURVE",
"106 211 OFFCURVE",
"175 211 CURVE SMOOTH",
"248 211 OFFCURVE",
"340 213 OFFCURVE",
"447 216 CURVE SMOOTH",
"516 218 OFFCURVE",
"589 222 OFFCURVE",
"661 228 CURVE",
"646 214 LINE SMOOTH",
"595 165 OFFCURVE",
"384 9 OFFCURVE",
"251 -22 CURVE SMOOTH",
"230 -27 OFFCURVE",
"209 -30 OFFCURVE",
"189 -30 CURVE SMOOTH",
"143 -30 OFFCURVE",
"106 -15 OFFCURVE",
"106 16 CURVE SMOOTH",
"106 30 OFFCURVE",
"113 47 OFFCURVE",
"131 68 CURVE SMOOTH",
"161 103 OFFCURVE",
"208 127 OFFCURVE",
"240 142 CURVE",
"191 122 OFFCURVE",
"176 117 OFFCURVE",
"157 106 CURVE",
"182 124 OFFCURVE",
"221 140 OFFCURVE",
"260 151 CURVE SMOOTH",
"274 154 OFFCURVE",
"288 162 OFFCURVE",
"288 166 CURVE SMOOTH",
"288 168 OFFCURVE",
"285 170 OFFCURVE",
"277 170 CURVE SMOOTH",
"268 170 OFFCURVE",
"252 168 OFFCURVE",
"226 162 CURVE SMOOTH",
"185 152 OFFCURVE",
"144 137 OFFCURVE",
"114 114 CURVE SMOOTH",
"83 91 OFFCURVE",
"65 54 OFFCURVE",
"65 18 CURVE SMOOTH",
"65 -24 OFFCURVE",
"89 -64 OFFCURVE",
"147 -78 CURVE SMOOTH",
"178 -86 OFFCURVE",
"214 -87 OFFCURVE",
"247 -87 CURVE SMOOTH",
"294 -87 OFFCURVE",
"343 -69 OFFCURVE",
"389 -48 CURVE SMOOTH",
"412 -37 OFFCURVE",
"441 -19 OFFCURVE",
"462 -3 CURVE",
"441 -14 OFFCURVE",
"409 -36 OFFCURVE",
"375 -51 CURVE SMOOTH",
"335 -69 OFFCURVE",
"293 -84 OFFCURVE",
"244 -84 CURVE SMOOTH",
"241 -84 OFFCURVE",
"295 -76 OFFCURVE",
"314 -70 CURVE SMOOTH",
"405 -42 OFFCURVE",
"458 -4 OFFCURVE",
"523 44 CURVE SMOOTH",
"580 87 OFFCURVE",
"659 159 OFFCURVE",
"739 235 CURVE",
"789 240 OFFCURVE",
"839 246 OFFCURVE",
"886 253 CURVE",
"839 162 OFFCURVE",
"797 72 OFFCURVE",
"797 9 CURVE SMOOTH",
"797 -4 OFFCURVE",
"799 -16 OFFCURVE",
"803 -27 CURVE SMOOTH",
"810 -45 LINE",
"811 -72 OFFCURVE",
"816 -99 OFFCURVE",
"864 -112 CURVE"
);
},
{
closed = 1;
nodes = (
"708 273 LINE SMOOTH",
"707 273 OFFCURVE",
"706 272 OFFCURVE",
"706 272 CURVE",
"673 270 OFFCURVE",
"617 267 OFFCURVE",
"595 267 CURVE"
);
},
{
closed = 1;
nodes = (
"844 -20 OFFCURVE",
"844 -14 OFFCURVE",
"845 -7 CURVE SMOOTH",
"847 26 OFFCURVE",
"866 69 OFFCURVE",
"894 132 CURVE",
"867 59 OFFCURVE",
"853 15 OFFCURVE",
"844 -23 CURVE"
);
},
{
closed = 1;
nodes = (
"507 549 LINE SMOOTH",
"534 568 OFFCURVE",
"563 586 OFFCURVE",
"595 599 CURVE",
"559 585 OFFCURVE",
"524 567 OFFCURVE",
"498 543 CURVE"
);
},
{
closed = 1;
nodes = (
"909 174 OFFCURVE",
"929 219 OFFCURVE",
"953 263 CURVE",
"955 263 OFFCURVE",
"957 263 OFFCURVE",
"958 264 CURVE",
"937 225 OFFCURVE",
"914 178 OFFCURVE",
"894 132 CURVE"
);
},
{
closed = 1;
nodes = (
"782 277 OFFCURVE",
"783 278 OFFCURVE",
"784 278 CURVE SMOOTH",
"824 281 OFFCURVE",
"852 283 OFFCURVE",
"842 284 CURVE",
"786 280 LINE",
"887 377 OFFCURVE",
"984 471 OFFCURVE",
"1036 507 CURVE",
"1017 489 OFFCURVE",
"972 420 OFFCURVE",
"948 372 CURVE SMOOTH",
"933 343 OFFCURVE",
"917 314 OFFCURVE",
"902 284 CURVE",
"865 281 OFFCURVE",
"825 279 OFFCURVE",
"782 276 CURVE"
);
}
);
width = 973;
}
);
note = A.1;
},
{
glyphname = AE.ss01;
lastChange = "2021-10-25 22:52:02 +0000";
layers = (
{
background = {
hints = (
{
horizontal = 1;
place = "{-43, 21}";
target = up;
type = BottomGhost;
},
{
horizontal = 1;
place = "{353, 50}";
type = Stem;
},
{
horizontal = 1;
place = "{596, 9}";
type = Stem;
},
{
horizontal = 1;
place = "{614, 14}";
type = Stem;
},
{
horizontal = 1;
place = "{614, 35}";
type = Stem;
},
{
place = "{487, 37}";
type = Stem;
}
);
paths = (
{
closed = 1;
nodes = (
"1101 127 LINE SMOOTH",
"1064 108 OFFCURVE",
"998 77 OFFCURVE",
"975 71 CURVE SMOOTH",
"970 70 OFFCURVE",
"1004 88 OFFCURVE",
"1023 97 CURVE SMOOTH",
"1030 100 OFFCURVE",
"1039 104 OFFCURVE",
"1048 109 CURVE",
"955 68 OFFCURVE",
"866 50 OFFCURVE",
"836 73 CURVE",
"833 102 OFFCURVE",
"985 171 OFFCURVE",
"1077 196 CURVE SMOOTH",
"1092 200 OFFCURVE",
"1144 243 OFFCURVE",
"1119 250 CURVE SMOOTH",
"1055 269 OFFCURVE",
"957 293 OFFCURVE",
"902 324 CURVE SMOOTH",
"896 327 OFFCURVE",
"893 332 OFFCURVE",
"893 338 CURVE",
"955 420 LINE",
"978 439 OFFCURVE",
"1003 455 OFFCURVE",
"1026 464 CURVE SMOOTH",
"1172 526 OFFCURVE",
"1328 548 OFFCURVE",
"1439 550 CURVE SMOOTH",
"1500 551 OFFCURVE",
"1535 546 OFFCURVE",
"1458 488 CURVE SMOOTH",
"1389 436 OFFCURVE",
"1257 369 OFFCURVE",
"1181 363 CURVE SMOOTH",
"1128 360 OFFCURVE",
"1204 425 OFFCURVE",
"1219 438 CURVE SMOOTH",
"1264 475 OFFCURVE",
"1254 478 OFFCURVE",
"1239 473 CURVE SMOOTH",
"1175 452 OFFCURVE",
"1128 393 OFFCURVE",
"1119 380 CURVE SMOOTH",
"1102 356 OFFCURVE",
"1148 300 OFFCURVE",
"1158 293 CURVE",
"1220 290 OFFCURVE",
"1378 376 OFFCURVE",
"1427 418 CURVE",
"1471 410 OFFCURVE",
"1580 499 OFFCURVE",
"1590 545 CURVE SMOOTH",
"1593 562 OFFCURVE",
"1564 594 OFFCURVE",
"1560 589 CURVE SMOOTH",
"1555 582 OFFCURVE",
"1556 576 OFFCURVE",
"1550 567 CURVE SMOOTH",
"1545 558 OFFCURVE",
"1536 548 OFFCURVE",
"1530 545 CURVE",
"1538 557 OFFCURVE",
"1564 580 OFFCURVE",
"1542 627 CURVE",
"1466 659 OFFCURVE",
"1294 627 OFFCURVE",
"1134 575 CURVE SMOOTH",
"1104 565 OFFCURVE",
"1076 557 OFFCURVE",
"1047 548 CURVE",
"1048 550 OFFCURVE",
"1048 551 OFFCURVE",
"1048 552 CURVE SMOOTH",
"1050 591 OFFCURVE",
"1010 626 OFFCURVE",
"973 610 CURVE",
"967 614 OFFCURVE",
"959 617 OFFCURVE",
"951 620 CURVE",
"962 620 OFFCURVE",
"959 627 OFFCURVE",
"949 629 CURVE SMOOTH",
"773 664 OFFCURVE",
"624 654 OFFCURVE",
"504 607 CURVE SMOOTH",
"530 617 OFFCURVE",
"556 623 OFFCURVE",
"579 629 CURVE SMOOTH",
"668 648 OFFCURVE",
"850 655 OFFCURVE",
"951 620 CURVE",
"948 620 OFFCURVE",
"945 620 OFFCURVE",
"940 621 CURVE SMOOTH",
"658 682 OFFCURVE",
"507 608 OFFCURVE",
"386 541 CURVE",
"388 543 LINE",
"381 539 OFFCURVE",
"375 535 OFFCURVE",
"382 539 CURVE SMOOTH",
"386 541 LINE",
"368 524 OFFCURVE",
"355 505 OFFCURVE",
"348 482 CURVE SMOOTH",
"324 403 OFFCURVE",
"417 378 OFFCURVE",
"394 433 CURVE",
"413 504 OFFCURVE",
"590 564 OFFCURVE",
"622 572 CURVE SMOOTH",
"726 594 OFFCURVE",
"871 619 OFFCURVE",
"939 596 CURVE",
"845 522 LINE",
"855 522 OFFCURVE",
"909 566 OFFCURVE",
"924 576 CURVE",
"886 545 OFFCURVE",
"805 474 OFFCURVE",
"604 285 CURVE",
"514 284 OFFCURVE",
"495 248 OFFCURVE",
"575 253 CURVE",
"496 177 OFFCURVE",
"286 37 OFFCURVE",
"167 37 CURVE SMOOTH",
"129 37 OFFCURVE",
"87 51 OFFCURVE",
"87 95 CURVE SMOOTH",
"87 173 OFFCURVE",
"311 275 OFFCURVE",
"401 304 CURVE",
"300 276 OFFCURVE",
"275 268 OFFCURVE",
"235 250 CURVE",
"281 277 OFFCURVE",
"355 301 OFFCURVE",
"430 314 CURVE SMOOTH",
"480 323 OFFCURVE",
"553 374 OFFCURVE",
"373 345 CURVE SMOOTH",
"205 317 OFFCURVE",
"49 210 OFFCURVE",
"49 90 CURVE SMOOTH",
"49 4 OFFCURVE",
"130 -42 OFFCURVE",
"193 -43 CURVE",
"196 -42 OFFCURVE",
"233 -34 OFFCURVE",
"252 -28 CURVE SMOOTH",
"356 5 OFFCURVE",
"451 62 OFFCURVE",
"538 137 CURVE",
"501 102 OFFCURVE",
"461 66 OFFCURVE",
"419 38 CURVE",
"476 75 OFFCURVE",
"537 123 OFFCURVE",
"599 190 CURVE SMOOTH",
"606 197 OFFCURVE",
"617 212 OFFCURVE",
"609 204 CURVE SMOOTH",
"586 181 OFFCURVE",
"563 158 OFFCURVE",
"538 137 CURVE",
"582 178 OFFCURVE",
"621 220 OFFCURVE",
"654 255 CURVE",
"693 251 OFFCURVE",
"741 244 OFFCURVE",
"750 243 CURVE",
"749 241 OFFCURVE",
"731 192 OFFCURVE",
"724 179 CURVE",
"725 185 OFFCURVE",
"735 216 OFFCURVE",
"739 228 CURVE",
"711 165 OFFCURVE",
"701 113 OFFCURVE",
"701 74 CURVE SMOOTH",
"701 27 OFFCURVE",
"720 -22 OFFCURVE",
"760 -23 CURVE SMOOTH",
"768 -24 OFFCURVE",
"771 -22 OFFCURVE",
"772 -18 CURVE",
"804 -32 OFFCURVE",
"843 -29 OFFCURVE",
"898 -14 CURVE SMOOTH",
"1051 27 OFFCURVE",
"1268 150 OFFCURVE",
"1360 235 CURVE SMOOTH",
"1393 265 OFFCURVE",
"1393 281 OFFCURVE",
"1359 263 CURVE SMOOTH",
"1332 248 OFFCURVE",
"1276 218 OFFCURVE",
"1211 186 CURVE",
"1268 217 OFFCURVE",
"1318 247 OFFCURVE",
"1330 258 CURVE",
"1296 240 OFFCURVE",
"1130 150 OFFCURVE",
"1106 138 CURVE SMOOTH",
"1093 131 LINE",
"1211 186 LINE"
);
},
{
closed = 1;
nodes = (
"881 449 OFFCURVE",
"798 338 OFFCURVE",
"766 271 CURVE",
"750 273 OFFCURVE",
"687 280 OFFCURVE",
"672 280 CURVE",
"817 430 OFFCURVE",
"854 458 OFFCURVE",
"928 509 CURVE"
);
},
{
closed = 1;
nodes = (
"954 225 OFFCURVE",
"929 218 OFFCURVE",
"911 209 CURVE",
"880 202 OFFCURVE",
"836 189 OFFCURVE",
"792 166 CURVE",
"802 189 OFFCURVE",
"815 216 OFFCURVE",
"831 247 CURVE SMOOTH",
"838 260 OFFCURVE",
"849 277 OFFCURVE",
"863 297 CURVE",
"873 254 OFFCURVE",
"937 240 OFFCURVE",
"975 235 CURVE"
);
},
{
closed = 1;
nodes = (
"1489 627 OFFCURVE",
"1490 619 OFFCURVE",
"1462 620 CURVE SMOOTH",
"1377 621 OFFCURVE",
"1206 588 OFFCURVE",
"1065 544 CURVE",
"1092 555 OFFCURVE",
"1128 567 OFFCURVE",
"1157 575 CURVE SMOOTH",
"1284 612 OFFCURVE",
"1400 629 OFFCURVE",
"1474 627 CURVE SMOOTH"
);
},
{
closed = 1;
nodes = (
"266 -43 OFFCURVE",
"334 -13 OFFCURVE",
"400 26 CURVE SMOOTH",
"329 -16 OFFCURVE",
"259 -35 OFFCURVE",
"195 -43 CURVE"
);
},
{
closed = 1;
nodes = (
"983 226 OFFCURVE",
"922 207 OFFCURVE",
"878 195 CURVE",
"895 202 OFFCURVE",
"915 208 OFFCURVE",
"933 214 CURVE SMOOTH",
"959 220 OFFCURVE",
"963 226 OFFCURVE",
"980 228 CURVE SMOOTH",
"988 229 OFFCURVE",
"1020 230 OFFCURVE",
"1005 228 CURVE SMOOTH"
);
},
{
closed = 1;
nodes = (
"834 178 OFFCURVE",
"809 166 OFFCURVE",
"785 150 CURVE",
"788 157 LINE",
"810 170 OFFCURVE",
"835 182 OFFCURVE",
"860 189 CURVE"
);
},
{
closed = 1;
nodes = (
"460 590 OFFCURVE",
"418 570 OFFCURVE",
"388 543 CURVE",
"397 549 LINE SMOOTH",
"428 571 OFFCURVE",
"463 591 OFFCURVE",
"501 606 CURVE"
);
},
{
closed = 1;
nodes = (
"1075 123 OFFCURVE",
"1061 116 OFFCURVE",
"1048 109 CURVE",
"1063 116 OFFCURVE",
"1078 123 OFFCURVE",
"1093 131 CURVE"
);
},
{
closed = 1;
nodes = (
"1053 543 LINE",
"1049 541 OFFCURVE",
"1045 540 OFFCURVE",
"1042 538 CURVE",
"1043 540 LINE"
);
},
{
closed = 1;
nodes = (
"400 26 LINE",
"419 38 LINE"
);
},
{
closed = 1;
nodes = (
"742 233 OFFCURVE",
"741 232 OFFCURVE",
"740 229 CURVE",
"740 230 OFFCURVE",
"741 231 OFFCURVE",
"742 233 CURVE"
);
}
);
};
layerId = "B9003040-D3EC-4996-96A5-33D5E21FF9E0";
paths = (
{
closed = 1;
nodes = (
"294 -87 OFFCURVE",
"343 -69 OFFCURVE",
"389 -48 CURVE SMOOTH",
"412 -37 OFFCURVE",
"441 -19 OFFCURVE",
"462 -3 CURVE",
"441 -14 OFFCURVE",
"409 -36 OFFCURVE",
"375 -51 CURVE SMOOTH",
"335 -69 OFFCURVE",
"293 -84 OFFCURVE",
"244 -84 CURVE SMOOTH",
"241 -84 OFFCURVE",
"295 -76 OFFCURVE",
"314 -70 CURVE SMOOTH",
"405 -42 OFFCURVE",
"458 -4 OFFCURVE",
"523 44 CURVE SMOOTH",
"580 87 OFFCURVE",
"659 159 OFFCURVE",
"739 235 CURVE",
"789 240 OFFCURVE",
"839 246 OFFCURVE",
"886 253 CURVE SMOOTH",
"908 256 LINE",
"897 244 LINE",
"857 191 OFFCURVE",
"812 119 OFFCURVE",
"812 69 CURVE SMOOTH",
"812 63 OFFCURVE",
"812 57 OFFCURVE",
"813 52 CURVE",
"855 -2 LINE",
"863 -7 OFFCURVE",
"872 -9 OFFCURVE",
"880 -10 CURVE",
"903 -10 OFFCURVE",
"910 -7 OFFCURVE",
"910 -3 CURVE SMOOTH",
"910 0 OFFCURVE",
"907 4 OFFCURVE",
"903 9 CURVE",
"957 22 LINE SMOOTH",
"960 23 OFFCURVE",
"954 24 OFFCURVE",
"947 22 CURVE SMOOTH",
"901 12 LINE",
"901 13 OFFCURVE",
"900 13 OFFCURVE",
"899 14 CURVE",
"947 27 OFFCURVE",
"1004 41 OFFCURVE",
"1053 47 CURVE SMOOTH",
"1081 50 OFFCURVE",
"1105 52 OFFCURVE",
"1125 52 CURVE SMOOTH",
"1175 52 OFFCURVE",
"1199 42 OFFCURVE",
"1199 20 CURVE SMOOTH",
"1199 12 OFFCURVE",
"1195 2 OFFCURVE",
"1189 -9 CURVE SMOOTH",
"1184 -18 OFFCURVE",
"1182 -23 OFFCURVE",
"1182 -26 CURVE SMOOTH",
"1182 -27 OFFCURVE",
"1183 -28 OFFCURVE",
"1184 -28 CURVE SMOOTH",
"1190 -28 OFFCURVE",
"1204 -17 OFFCURVE",
"1209 -12 CURVE SMOOTH",
"1232 9 OFFCURVE",
"1253 33 OFFCURVE",
"1253 53 CURVE SMOOTH",
"1253 66 OFFCURVE",
"1243 79 OFFCURVE",
"1217 88 CURVE SMOOTH",
"1199 95 OFFCURVE",
"1179 99 OFFCURVE",
"1158 102 CURVE SMOOTH",
"1148 103 OFFCURVE",
"1137 103 OFFCURVE",
"1127 103 CURVE SMOOTH",
"1044 103 OFFCURVE",
"946 84 OFFCURVE",
"889 71 CURVE",
"895 106 OFFCURVE",
"916 169 OFFCURVE",
"990 254 CURVE",
"1000 255 OFFCURVE",
"1146 266 OFFCURVE",
"1187 268 CURVE",
"1167 257 OFFCURVE",
"1224 267 OFFCURVE",
"1252 284 CURVE SMOOTH",
"1258 288 OFFCURVE",
"1245 311 OFFCURVE",
"1234 311 CURVE SMOOTH",
"1231 311 OFFCURVE",
"1223 319 OFFCURVE",
"1216 319 CURVE SMOOTH",
"1215 319 LINE SMOOTH",
"1153 306 OFFCURVE",
"1088 300 OFFCURVE",
"1040 293 CURVE SMOOTH",
"1037 293 OFFCURVE",
"1031 293 OFFCURVE",
"1023 292 CURVE SMOOTH",
"1022 292 LINE",
"1085 362 OFFCURVE",
"1232 479 OFFCURVE",
"1321 543 CURVE",
"1370 547 OFFCURVE",
"1486 530 OFFCURVE",
"1534 522 CURVE SMOOTH",
"1546 520 OFFCURVE",
"1553 524 OFFCURVE",
"1553 531 CURVE SMOOTH",
"1553 537 OFFCURVE",
"1547 545 OFFCURVE",
"1535 552 CURVE SMOOTH",
"1506 569 OFFCURVE",
"1438 588 OFFCURVE",
"1374 593 CURVE",
"1371 617 OFFCURVE",
"1319 621 OFFCURVE",
"1299 621 CURVE SMOOTH",
"1281 621 OFFCURVE",
"1263 608 OFFCURVE",
"1254 603 CURVE SMOOTH",
"1248 599 LINE",
"1238 608 OFFCURVE",
"1225 614 OFFCURVE",
"1212 614 CURVE SMOOTH",
"1205 614 OFFCURVE",
"1199 612 OFFCURVE",
"1193 610 CURVE",
"1187 614 OFFCURVE",
"1179 617 OFFCURVE",
"1171 620 CURVE",
"1168 620 OFFCURVE",
"1165 620 OFFCURVE",
"1160 621 CURVE SMOOTH",
"1086 637 OFFCURVE",
"1021 644 OFFCURVE",
"963 644 CURVE SMOOTH",
"801 644 OFFCURVE",
"695 590 OFFCURVE",
"606 541 CURVE",
"588 524 OFFCURVE",
"575 505 OFFCURVE",
"568 482 CURVE SMOOTH",
"565 472 OFFCURVE",
"564 463 OFFCURVE",
"564 455 CURVE SMOOTH",
"564 419 OFFCURVE",
"588 397 OFFCURVE",
"602 397 CURVE SMOOTH",
"608 397 OFFCURVE",
"612 401 OFFCURVE",
"612 409 CURVE SMOOTH",
"612 413 OFFCURVE",
"611 418 OFFCURVE",
"608 425 CURVE",
"627 496 OFFCURVE",
"810 564 OFFCURVE",
"842 572 CURVE SMOOTH",
"916 588 OFFCURVE",
"1011 605 OFFCURVE",
"1084 605 CURVE SMOOTH",
"1114 605 OFFCURVE",
"1140 603 OFFCURVE",
"1159 596 CURVE",
"1091 581 OFFCURVE",
"984 532 OFFCURVE",
"896 474 CURVE",
"906 474 OFFCURVE",
"1091 581 OFFCURVE",
"1144 576 CURVE",
"1041 557 OFFCURVE",
"919 475 OFFCURVE",
"710 275 CURVE",
"634 271 OFFCURVE",
"543 266 OFFCURVE",
"481 265 CURVE SMOOTH",
"448 264 OFFCURVE",
"408 263 OFFCURVE",
"365 263 CURVE SMOOTH",
"295 263 OFFCURVE",
"216 266 OFFCURVE",
"148 273 CURVE",
"212 287 OFFCURVE",
"275 312 OFFCURVE",
"273 326 CURVE SMOOTH",
"271 333 OFFCURVE",
"270 336 OFFCURVE",
"268 336 CURVE SMOOTH",
"266 336 OFFCURVE",
"264 334 OFFCURVE",
"261 330 CURVE SMOOTH",
"256 324 OFFCURVE",
"182 309 OFFCURVE",
"159 305 CURVE SMOOTH",
"154 304 OFFCURVE",
"147 303 OFFCURVE",
"140 303 CURVE SMOOTH",
"117 303 OFFCURVE",
"88 308 OFFCURVE",
"64 308 CURVE SMOOTH",
"48 308 OFFCURVE",
"35 306 OFFCURVE",
"29 299 CURVE",
"28 299 OFFCURVE",
"27 299 OFFCURVE",
"26 300 CURVE",
"13 281 OFFCURVE",
"0 249 OFFCURVE",
"0 231 CURVE SMOOTH",
"0 221 OFFCURVE",
"3 215 OFFCURVE",
"11 215 CURVE SMOOTH",
"13 215 OFFCURVE",
"16 216 OFFCURVE",
"20 217 CURVE",
"54 213 OFFCURVE",
"106 211 OFFCURVE",
"175 211 CURVE SMOOTH",
"248 211 OFFCURVE",
"340 213 OFFCURVE",
"447 216 CURVE SMOOTH",
"516 218 OFFCURVE",
"589 222 OFFCURVE",
"661 228 CURVE",
"646 214 LINE SMOOTH",
"594 166 OFFCURVE",
"384 9 OFFCURVE",
"251 -22 CURVE SMOOTH",
"230 -27 OFFCURVE",
"209 -30 OFFCURVE",
"189 -30 CURVE SMOOTH",
"143 -30 OFFCURVE",
"106 -15 OFFCURVE",
"106 16 CURVE SMOOTH",
"106 30 OFFCURVE",
"113 47 OFFCURVE",
"131 68 CURVE SMOOTH",
"161 103 OFFCURVE",
"208 127 OFFCURVE",
"240 142 CURVE",
"191 122 OFFCURVE",
"176 117 OFFCURVE",
"157 106 CURVE",
"182 124 OFFCURVE",
"221 140 OFFCURVE",
"260 151 CURVE SMOOTH",
"274 154 OFFCURVE",
"288 162 OFFCURVE",
"288 166 CURVE SMOOTH",
"288 168 OFFCURVE",
"285 170 OFFCURVE",
"277 170 CURVE SMOOTH",
"268 170 OFFCURVE",
"252 168 OFFCURVE",
"226 162 CURVE SMOOTH",
"185 152 OFFCURVE",
"144 137 OFFCURVE",
"114 114 CURVE SMOOTH",
"83 91 OFFCURVE",
"65 54 OFFCURVE",
"65 18 CURVE SMOOTH",
"65 -24 OFFCURVE",
"89 -64 OFFCURVE",
"147 -78 CURVE SMOOTH",
"178 -86 OFFCURVE",
"214 -87 OFFCURVE",
"247 -87 CURVE SMOOTH"
);
},
{
closed = 1;
nodes = (
"708 273 LINE SMOOTH",
"709 273 OFFCURVE",
"706 272 OFFCURVE",
"706 272 CURVE",
"673 270 OFFCURVE",
"617 267 OFFCURVE",
"595 267 CURVE"
);
},
{
closed = 1;
nodes = (
"602 539 LINE",
"606 541 LINE",
"608 543 LINE",
"599 537 LINE"
);
},
{
closed = 1;
nodes = (
"617 549 LINE SMOOTH",
"644 567 OFFCURVE",
"673 586 OFFCURVE",
"705 599 CURVE",
"669 585 OFFCURVE",
"634 567 OFFCURVE",
"608 543 CURVE"
);
},
{
closed = 1;
nodes = (
"782 277 OFFCURVE",
"783 278 OFFCURVE",
"784 278 CURVE SMOOTH",
"824 281 OFFCURVE",
"852 283 OFFCURVE",
"842 284 CURVE",
"786 280 LINE",
"975 462 OFFCURVE",
"1120 521 OFFCURVE",
"1205 567 CURVE",
"1191 556 OFFCURVE",
"1166 536 OFFCURVE",
"1161 529 CURVE",
"1179 545 OFFCURVE",
"1201 559 OFFCURVE",
"1207 564 CURVE SMOOTH",
"1112 485 OFFCURVE",
"982 345 OFFCURVE",
"934 286 CURVE",
"860 280 OFFCURVE",
"822 279 OFFCURVE",
"782 276 CURVE"
);
},
{
closed = 1;
nodes = (
"750 617 OFFCURVE",
"776 623 OFFCURVE",
"799 629 CURVE SMOOTH",
"843 638 OFFCURVE",
"909 645 OFFCURVE",
"977 645 CURVE SMOOTH",
"1047 645 OFFCURVE",
"1120 638 OFFCURVE",
"1171 620 CURVE",
"1182 620 OFFCURVE",
"1179 627 OFFCURVE",
"1169 629 CURVE SMOOTH",
"1098 643 OFFCURVE",
"1031 650 OFFCURVE",
"969 650 CURVE SMOOTH",
"877 650 OFFCURVE",
"796 635 OFFCURVE",
"724 607 CURVE SMOOTH"
);
}
);
width = 1294;
}
);
note = AE;
},
{
glyphname = B.ss01;
lastChange = "2021-10-25 22:52:02 +0000";
layers = (
{
layerId = "B9003040-D3EC-4996-96A5-33D5E21FF9E0";
paths = (
{
closed = 1;
nodes = (
"634 -27 OFFCURVE",
"807 69 OFFCURVE",
"820 136 CURVE SMOOTH",
"821 140 OFFCURVE",
"821 143 OFFCURVE",
"821 146 CURVE SMOOTH",
"821 201 OFFCURVE",
"733 231 OFFCURVE",
"685 231 CURVE",
"748 247 OFFCURVE",
"815 265 OFFCURVE",
"879 289 CURVE",
"862 280 OFFCURVE",
"846 274 OFFCURVE",
"837 271 CURVE SMOOTH",
"818 265 OFFCURVE",
"784 253 OFFCURVE",
"788 253 CURVE SMOOTH",
"811 255 OFFCURVE",
"902 291 OFFCURVE",
"937 310 CURVE SMOOTH",
"953 319 LINE",
"964 325 LINE SMOOTH",
"996 342 OFFCURVE",
"1025 359 OFFCURVE",
"1051 380 CURVE SMOOTH",
"1064 391 OFFCURVE",
"1076 400 OFFCURVE",
"1087 410 CURVE SMOOTH",
"1099 421 OFFCURVE",
"1109 430 OFFCURVE",
"1114 437 CURVE SMOOTH",
"1130 455 OFFCURVE",
"1138 471 OFFCURVE",
"1138 488 CURVE SMOOTH",
"1138 501 OFFCURVE",
"1133 515 OFFCURVE",
"1121 531 CURVE",
"1108 624 OFFCURVE",
"1031 654 OFFCURVE",
"933 654 CURVE SMOOTH",
"774 654 OFFCURVE",
"561 575 OFFCURVE",
"486 560 CURVE SMOOTH",
"421 547 OFFCURVE",
"249 520 OFFCURVE",
"138 520 CURVE SMOOTH",
"88 520 OFFCURVE",
"51 525 OFFCURVE",
"39 539 CURVE SMOOTH",
"37 541 OFFCURVE",
"24 550 OFFCURVE",
"17 550 CURVE SMOOTH",
"14 550 OFFCURVE",
"12 548 OFFCURVE",
"12 544 CURVE SMOOTH",
"12 514 OFFCURVE",
"47 425 OFFCURVE",
"98 425 CURVE SMOOTH",
"143 425 OFFCURVE",
"194 438 OFFCURVE",
"249 454 CURVE",
"190 442 OFFCURVE",
"158 435 OFFCURVE",
"158 436 CURVE SMOOTH",
"158 437 OFFCURVE",
"191 445 OFFCURVE",
"265 464 CURVE SMOOTH",
"331 481 OFFCURVE",
"399 489 OFFCURVE",
"469 505 CURVE SMOOTH",
"553 524 OFFCURVE",
"768 568 OFFCURVE",
"856 581 CURVE SMOOTH",
"873 584 OFFCURVE",
"908 588 OFFCURVE",
"946 588 CURVE SMOOTH",
"995 588 OFFCURVE",
"1049 581 OFFCURVE",
"1076 556 CURVE",
"1037 582 OFFCURVE",
"993 585 OFFCURVE",
"950 585 CURVE SMOOTH",
"902 585 OFFCURVE",
"803 572 OFFCURVE",
"746 558 CURVE",
"763 560 OFFCURVE",
"814 568 OFFCURVE",
"840 572 CURVE SMOOTH",
"855 575 OFFCURVE",
"916 583 OFFCURVE",
"962 583 CURVE SMOOTH",
"1025 583 OFFCURVE",
"1060 564 OFFCURVE",
"1072 556 CURVE SMOOTH",
"1081 550 OFFCURVE",
"1085 542 OFFCURVE",
"1085 532 CURVE SMOOTH",
"1085 521 OFFCURVE",
"1080 509 OFFCURVE",
"1071 500 CURVE SMOOTH",
"993 422 OFFCURVE",
"792 290 OFFCURVE",
"604 235 CURVE",
"594 234 OFFCURVE",
"588 226 OFFCURVE",
"588 216 CURVE SMOOTH",
"588 210 OFFCURVE",
"590 206 OFFCURVE",
"597 204 CURVE",
"614 205 OFFCURVE",
"630 205 OFFCURVE",
"645 205 CURVE SMOOTH",
"712 205 OFFCURVE",
"751 196 OFFCURVE",
"747 177 CURVE SMOOTH",
"734 107 OFFCURVE",
"584 35 OFFCURVE",
"496 31 CURVE SMOOTH",
"489 31 OFFCURVE",
"474 31 OFFCURVE",
"474 38 CURVE SMOOTH",
"474 43 OFFCURVE",
"481 51 OFFCURVE",
"501 65 CURVE SMOOTH",
"552 100 OFFCURVE",
"642 138 OFFCURVE",
"687 150 CURVE",
"694 153 OFFCURVE",
"704 163 OFFCURVE",
"704 168 CURVE SMOOTH",
"704 169 OFFCURVE",
"703 170 OFFCURVE",
"701 170 CURVE SMOOTH",
"636 166 OFFCURVE",
"432 86 OFFCURVE",
"418 24 CURVE SMOOTH",
"410 -15 OFFCURVE",
"455 -33 OFFCURVE",
"488 -32 CURVE SMOOTH"
);
},
{
closed = 1;
nodes = (
"331 -35 OFFCURVE",
"393 38 OFFCURVE",
"437 92 CURVE SMOOTH",
"441 96 OFFCURVE",
"443 99 OFFCURVE",
"443 101 CURVE SMOOTH",
"443 102 OFFCURVE",
"443 102 OFFCURVE",
"442 102 CURVE SMOOTH",
"441 102 OFFCURVE",
"436 98 OFFCURVE",
"425 86 CURVE SMOOTH",
"340 -15 LINE SMOOTH",
"335 -20 OFFCURVE",
"331 -24 OFFCURVE",
"328 -28 CURVE SMOOTH",
"423 122 OFFCURVE",
"631 341 OFFCURVE",
"743 450 CURVE",
"753 471 OFFCURVE",
"674 519 OFFCURVE",
"659 513 CURVE",
"659 513 OFFCURVE",
"647 499 OFFCURVE",
"632 480 CURVE SMOOTH",
"628 476 OFFCURVE",
"626 472 OFFCURVE",
"626 470 CURVE SMOOTH",
"626 468 OFFCURVE",
"628 467 OFFCURVE",
"630 467 CURVE SMOOTH",
"633 467 OFFCURVE",
"637 468 OFFCURVE",
"643 471 CURVE",
"567 379 OFFCURVE",
"303 83 OFFCURVE",
"272 -8 CURVE SMOOTH",
"270 -14 OFFCURVE",
"269 -19 OFFCURVE",
"269 -25 CURVE SMOOTH",
"269 -44 OFFCURVE",
"279 -65 OFFCURVE",
"305 -86 CURVE"
);
}
);
width = 928;
}
);
note = B.1;
},
{
glyphname = C.ss01;
lastChange = "2021-10-25 22:52:02 +0000";
layers = (
{
layerId = "B9003040-D3EC-4996-96A5-33D5E21FF9E0";
paths = (
{
closed = 1;
nodes = (
"314 -72 OFFCURVE",
"383 -55 OFFCURVE",
"413 -43 CURVE SMOOTH",
"511 -5 OFFCURVE",
"674 80 OFFCURVE",
"758 164 CURVE SMOOTH",
"779 186 OFFCURVE",
"785 200 OFFCURVE",
"775 200 CURVE SMOOTH",
"771 200 OFFCURVE",
"764 197 OFFCURVE",
"755 192 CURVE SMOOTH",
"607 109 LINE",
"663 144 OFFCURVE",
"715 173 OFFCURVE",
"726 185 CURVE",
"694 167 OFFCURVE",
"538 72 OFFCURVE",
"515 58 CURVE SMOOTH",
"507 53 OFFCURVE",
"500 49 OFFCURVE",
"493 46 CURVE SMOOTH",
"389 -6 OFFCURVE",
"298 -25 OFFCURVE",
"240 -25 CURVE SMOOTH",
"228 -25 OFFCURVE",
"216 -24 OFFCURVE",
"207 -22 CURVE SMOOTH",
"130 -8 OFFCURVE",
"94 46 OFFCURVE",
"94 109 CURVE SMOOTH",
"94 144 OFFCURVE",
"105 180 OFFCURVE",
"125 214 CURVE SMOOTH",
"258 433 OFFCURVE",
"526 552 OFFCURVE",
"718 579 CURVE SMOOTH",
"726 580 OFFCURVE",
"733 581 OFFCURVE",
"739 581 CURVE SMOOTH",
"765 581 OFFCURVE",
"782 573 OFFCURVE",
"782 556 CURVE SMOOTH",
"782 543 OFFCURVE",
"771 525 OFFCURVE",
"745 500 CURVE SMOOTH",
"685 444 OFFCURVE",
"566 368 OFFCURVE",
"493 357 CURVE SMOOTH",
"479 355 OFFCURVE",
"473 359 OFFCURVE",
"473 366 CURVE SMOOTH",
"473 385 OFFCURVE",
"510 425 OFFCURVE",
"519 434 CURVE SMOOTH",
"547 464 OFFCURVE",
"549 473 OFFCURVE",
"542 473 CURVE SMOOTH",
"540 473 OFFCURVE",
"537 472 OFFCURVE",
"533 470 CURVE SMOOTH",
"472 445 OFFCURVE",
"436 383 OFFCURVE",
"429 370 CURVE",
"428 367 OFFCURVE",
"427 364 OFFCURVE",
"427 361 CURVE SMOOTH",
"427 333 OFFCURVE",
"470 291 OFFCURVE",
"480 285 CURVE",
"542 287 OFFCURVE",
"684 384 OFFCURVE",
"726 429 CURVE",
"770 424 OFFCURVE",
"863 520 OFFCURVE",
"866 566 CURVE SMOOTH",
"867 584 OFFCURVE",
"833 613 OFFCURVE",
"830 608 CURVE SMOOTH",
"827 601 OFFCURVE",
"828 595 OFFCURVE",
"824 586 CURVE SMOOTH",
"820 577 OFFCURVE",
"813 566 OFFCURVE",
"807 562 CURVE",
"808 564 OFFCURVE",
"809 568 OFFCURVE",
"809 572 CURVE SMOOTH",
"809 590 OFFCURVE",
"796 626 OFFCURVE",
"771 664 CURVE",
"762 664 OFFCURVE",
"754 665 OFFCURVE",
"745 665 CURVE SMOOTH",
"614 658 OFFCURVE",
"527 614 OFFCURVE",
"370 541 CURVE",
"395 555 OFFCURVE",
"410 564 OFFCURVE",
"436 576 CURVE SMOOTH",
"485 597 OFFCURVE",
"526 617 OFFCURVE",
"565 633 CURVE",
"517 617 OFFCURVE",
"465 596 OFFCURVE",
"409 569 CURVE SMOOTH",
"314 524 OFFCURVE",
"163 409 OFFCURVE",
"107 343 CURVE",
"121 362 OFFCURVE",
"149 391 OFFCURVE",
"207 440 CURVE SMOOTH",
"268 492 OFFCURVE",
"321 520 OFFCURVE",
"352 541 CURVE",
"258 494 OFFCURVE",
"143 403 OFFCURVE",
"57 293 CURVE SMOOTH",
"17 243 OFFCURVE",
"0 191 OFFCURVE",
"0 143 CURVE SMOOTH",
"0 48 OFFCURVE",
"66 -30 OFFCURVE",
"161 -43 CURVE",
"180 -65 OFFCURVE",
"215 -72 OFFCURVE",
"254 -72 CURVE SMOOTH"
);
},
{
closed = 1;
nodes = (
"347 -16 OFFCURVE",
"451 21 OFFCURVE",
"494 44 CURVE SMOOTH",
"529 61 OFFCURVE",
"560 83 OFFCURVE",
"602 106 CURVE",
"569 86 OFFCURVE",
"541 66 OFFCURVE",
"511 48 CURVE SMOOTH",
"475 27 OFFCURVE",
"343 -23 OFFCURVE",
"310 -23 CURVE"
);
},
{
closed = 1;
nodes = (
"625 652 OFFCURVE",
"679 663 OFFCURVE",
"727 665 CURVE",
"663 664 OFFCURVE",
"614 652 OFFCURVE",
"565 633 CURVE"
);
}
);
width = 758;
}
);
note = C.1;
},
{
glyphname = D.ss01;
lastChange = "2021-10-25 22:52:02 +0000";
layers = (
{
layerId = "B9003040-D3EC-4996-96A5-33D5E21FF9E0";
paths = (
{
closed = 1;
nodes = (
"283 -32 OFFCURVE",
"333 -20 OFFCURVE",
"383 -3 CURVE",
"369 -11 OFFCURVE",
"361 -15 OFFCURVE",
"364 -14 CURVE SMOOTH",
"399 2 OFFCURVE",
"558 66 OFFCURVE",
"611 111 CURVE SMOOTH",
"637 133 OFFCURVE",
"662 155 OFFCURVE",
"685 176 CURVE SMOOTH",
"597 100 OFFCURVE",
"488 33 OFFCURVE",
"383 -3 CURVE",
"401 7 OFFCURVE",
"429 23 OFFCURVE",
"458 38 CURVE SMOOTH",
"489 55 OFFCURVE",
"564 89 OFFCURVE",
"615 133 CURVE SMOOTH",
"649 163 OFFCURVE",
"802 279 OFFCURVE",
"875 426 CURVE",
"832 332 OFFCURVE",
"783 268 OFFCURVE",
"716 204 CURVE",
"819 299 OFFCURVE",
"889 404 OFFCURVE",
"889 477 CURVE SMOOTH",
"889 498 OFFCURVE",
"884 516 OFFCURVE",
"872 531 CURVE",
"859 624 OFFCURVE",
"782 654 OFFCURVE",
"684 654 CURVE SMOOTH",
"525 654 OFFCURVE",
"312 575 OFFCURVE",
"237 560 CURVE SMOOTH",
"172 547 OFFCURVE",
"0 520 OFFCURVE",
"-111 520 CURVE SMOOTH",
"-161 520 OFFCURVE",
"-198 525 OFFCURVE",
"-210 539 CURVE SMOOTH",
"-212 541 OFFCURVE",
"-225 550 OFFCURVE",
"-232 550 CURVE SMOOTH",
"-235 550 OFFCURVE",
"-237 548 OFFCURVE",
"-237 544 CURVE SMOOTH",
"-237 514 OFFCURVE",
"-202 425 OFFCURVE",
"-151 425 CURVE SMOOTH",
"-106 425 OFFCURVE",
"-55 438 OFFCURVE",
"0 454 CURVE",
"-59 442 OFFCURVE",
"-91 435 OFFCURVE",
"-91 436 CURVE SMOOTH",
"-91 437 OFFCURVE",
"-58 445 OFFCURVE",
"16 464 CURVE SMOOTH",
"82 481 OFFCURVE",
"150 489 OFFCURVE",
"220 505 CURVE SMOOTH",
"304 524 OFFCURVE",
"519 568 OFFCURVE",
"607 581 CURVE SMOOTH",
"624 583 OFFCURVE",
"656 587 OFFCURVE",
"691 587 CURVE SMOOTH",
"741 587 OFFCURVE",
"797 580 OFFCURVE",
"825 553 CURVE",
"786 579 OFFCURVE",
"744 585 OFFCURVE",
"701 585 CURVE SMOOTH",
"653 585 OFFCURVE",
"554 572 OFFCURVE",
"497 558 CURVE",
"514 560 OFFCURVE",
"565 568 OFFCURVE",
"591 572 CURVE SMOOTH",
"606 575 OFFCURVE",
"667 583 OFFCURVE",
"713 583 CURVE SMOOTH",
"776 583 OFFCURVE",
"809 561 OFFCURVE",
"821 553 CURVE SMOOTH",
"823 552 OFFCURVE",
"825 548 OFFCURVE",
"825 544 CURVE SMOOTH",
"825 472 OFFCURVE",
"553 43 OFFCURVE",
"247 31 CURVE SMOOTH",
"240 31 OFFCURVE",
"225 31 OFFCURVE",
"225 38 CURVE SMOOTH",
"225 43 OFFCURVE",
"232 51 OFFCURVE",
"252 65 CURVE SMOOTH",
"303 100 OFFCURVE",
"393 138 OFFCURVE",
"438 150 CURVE",
"445 153 OFFCURVE",
"455 163 OFFCURVE",
"455 168 CURVE SMOOTH",
"455 169 OFFCURVE",
"454 170 OFFCURVE",
"452 170 CURVE SMOOTH",
"387 166 OFFCURVE",
"183 86 OFFCURVE",
"169 24 CURVE SMOOTH",
"161 -14 OFFCURVE",
"204 -32 OFFCURVE",
"236 -32 CURVE SMOOTH"
);
},
{
closed = 1;
nodes = (
"82 -35 OFFCURVE",
"144 38 OFFCURVE",
"188 92 CURVE SMOOTH",
"192 96 OFFCURVE",
"194 99 OFFCURVE",
"194 101 CURVE SMOOTH",
"194 102 OFFCURVE",
"194 102 OFFCURVE",
"193 102 CURVE SMOOTH",
"192 102 OFFCURVE",
"187 98 OFFCURVE",
"176 86 CURVE SMOOTH",
"91 -15 LINE",
"79 -29 LINE",
"175 122 OFFCURVE",
"382 341 OFFCURVE",
"494 450 CURVE",
"504 471 OFFCURVE",
"425 519 OFFCURVE",
"410 513 CURVE",
"410 513 OFFCURVE",
"398 499 OFFCURVE",
"383 480 CURVE SMOOTH",
"379 476 OFFCURVE",
"377 472 OFFCURVE",
"377 470 CURVE SMOOTH",
"377 468 OFFCURVE",
"379 467 OFFCURVE",
"381 467 CURVE SMOOTH",
"384 467 OFFCURVE",
"388 468 OFFCURVE",
"394 471 CURVE",
"318 379 OFFCURVE",
"54 83 OFFCURVE",
"23 -8 CURVE SMOOTH",
"21 -14 OFFCURVE",
"20 -19 OFFCURVE",
"20 -25 CURVE SMOOTH",
"20 -44 OFFCURVE",
"30 -65 OFFCURVE",
"56 -86 CURVE"
);
},
);
width = 733;
}
);
note = D.1;
},
{
glyphname = E.ss01;
lastChange = "2021-10-25 22:52:02 +0000";
layers = (
{
layerId = "B9003040-D3EC-4996-96A5-33D5E21FF9E0";
paths = (
{
closed = 1;
nodes = (
"530 -28 OFFCURVE",
"544 -17 OFFCURVE",
"549 -12 CURVE SMOOTH",
"572 9 OFFCURVE",
"593 33 OFFCURVE",
"593 53 CURVE SMOOTH",
"593 66 OFFCURVE",
"583 79 OFFCURVE",
"557 88 CURVE SMOOTH",
"539 95 OFFCURVE",
"519 99 OFFCURVE",
"498 102 CURVE SMOOTH",
"488 103 OFFCURVE",
"477 103 OFFCURVE",
"467 103 CURVE SMOOTH",
"384 103 OFFCURVE",
"286 84 OFFCURVE",
"229 71 CURVE",
"235 106 OFFCURVE",
"256 169 OFFCURVE",
"330 254 CURVE",
"340 255 OFFCURVE",
"486 266 OFFCURVE",
"527 268 CURVE",
"507 257 OFFCURVE",
"564 267 OFFCURVE",
"592 284 CURVE SMOOTH",
"598 288 OFFCURVE",
"585 311 OFFCURVE",
"574 311 CURVE SMOOTH",
"571 311 OFFCURVE",
"563 319 OFFCURVE",
"556 319 CURVE SMOOTH",
"555 319 LINE SMOOTH",
"483 304 OFFCURVE",
"408 298 OFFCURVE",
"360 290 CURVE",
"422 360 OFFCURVE",
"571 478 OFFCURVE",
"661 543 CURVE",
"710 547 OFFCURVE",
"826 530 OFFCURVE",
"874 522 CURVE SMOOTH",
"886 520 OFFCURVE",
"893 524 OFFCURVE",
"893 531 CURVE SMOOTH",
"893 537 OFFCURVE",
"887 545 OFFCURVE",
"875 552 CURVE SMOOTH",
"846 569 OFFCURVE",
"778 588 OFFCURVE",
"714 593 CURVE",
"711 617 OFFCURVE",
"653 621 OFFCURVE",
"639 621 CURVE SMOOTH",
"630 621 OFFCURVE",
"620 618 OFFCURVE",
"603 607 CURVE",
"604 606 OFFCURVE",
"605 606 OFFCURVE",
"607 606 CURVE",
"624 602 OFFCURVE",
"630 601 OFFCURVE",
"630 600 CURVE",
"629 600 LINE SMOOTH",
"625 600 OFFCURVE",
"610 602 OFFCURVE",
"604 603 CURVE SMOOTH",
"542 615 OFFCURVE",
"486 620 OFFCURVE",
"436 620 CURVE SMOOTH",
"269 620 OFFCURVE",
"157 565 OFFCURVE",
"67 515 CURVE",
"68 517 LINE",
"63 513 OFFCURVE",
"60 511 OFFCURVE",
"65 514 CURVE SMOOTH",
"67 515 LINE",
"50 499 OFFCURVE",
"38 480 OFFCURVE",
"31 458 CURVE SMOOTH",
"28 449 OFFCURVE",
"27 441 OFFCURVE",
"27 433 CURVE SMOOTH",
"27 399 OFFCURVE",
"52 379 OFFCURVE",
"68 379 CURVE SMOOTH",
"75 379 OFFCURVE",
"81 384 OFFCURVE",
"81 393 CURVE SMOOTH",
"81 397 OFFCURVE",
"80 402 OFFCURVE",
"77 408 CURVE",
"96 479 OFFCURVE",
"273 540 OFFCURVE",
"305 547 CURVE SMOOTH",
"385 565 OFFCURVE",
"474 568 OFFCURVE",
"546 568 CURVE",
"532 557 OFFCURVE",
"506 536 OFFCURVE",
"501 529 CURVE",
"519 545 OFFCURVE",
"541 559 OFFCURVE",
"547 564 CURVE SMOOTH",
"451 484 OFFCURVE",
"318 341 OFFCURVE",
"272 283 CURVE",
"150 267 LINE SMOOTH",
"124 263 OFFCURVE",
"102 247 OFFCURVE",
"102 238 CURVE SMOOTH",
"102 233 OFFCURVE",
"108 230 OFFCURVE",
"121 232 CURVE SMOOTH",
"137 234 OFFCURVE",
"215 243 OFFCURVE",
"237 244 CURVE",
"197 191 OFFCURVE",
"152 119 OFFCURVE",
"152 69 CURVE SMOOTH",
"152 63 OFFCURVE",
"152 57 OFFCURVE",
"153 52 CURVE",
"122 45 OFFCURVE",
"84 35 OFFCURVE",
"71 30 CURVE",
"67 27 OFFCURVE",
"65 22 OFFCURVE",
"65 15 CURVE SMOOTH",
"65 -1 OFFCURVE",
"78 -25 OFFCURVE",
"99 -25 CURVE SMOOTH",
"102 -25 OFFCURVE",
"106 -25 OFFCURVE",
"109 -24 CURVE SMOOTH",
"195 -2 LINE",
"203 -7 OFFCURVE",
"212 -9 OFFCURVE",
"220 -10 CURVE",
"243 -10 OFFCURVE",
"250 -7 OFFCURVE",
"250 -3 CURVE SMOOTH",
"250 0 OFFCURVE",
"247 4 OFFCURVE",
"243 9 CURVE",
"297 22 LINE SMOOTH",
"300 23 OFFCURVE",
"294 23 OFFCURVE",
"287 22 CURVE SMOOTH",
"241 12 LINE",
"241 13 OFFCURVE",
"240 13 OFFCURVE",
"239 14 CURVE",
"287 27 OFFCURVE",
"344 41 OFFCURVE",
"393 47 CURVE SMOOTH",
"421 50 OFFCURVE",
"445 52 OFFCURVE",
"465 52 CURVE SMOOTH",
"515 52 OFFCURVE",
"539 42 OFFCURVE",
"539 20 CURVE SMOOTH",
"539 12 OFFCURVE",
"535 2 OFFCURVE",
"529 -9 CURVE SMOOTH",
"524 -18 OFFCURVE",
"522 -23 OFFCURVE",
"522 -26 CURVE SMOOTH",
"522 -27 OFFCURVE",
"523 -28 OFFCURVE",
"524 -28 CURVE SMOOTH"
);
},
{
closed = 1;
nodes = (
"191 0 LINE",
"192 0 LINE",
"182 -3 LINE"
);
},
{
closed = 1;
nodes = (
"490 103 LINE",
"493 102 OFFCURVE",
"495 102 OFFCURVE",
"498 102 CURVE"
);
},
{
closed = 1;
nodes = (
"550 94 OFFCURVE",
"534 98 OFFCURVE",
"516 100 CURVE",
"533 98 OFFCURVE",
"549 94 OFFCURVE",
"564 89 CURVE"
);
},
{
closed = 1;
nodes = (
"80 524 LINE",
"118 551 OFFCURVE",
"162 575 OFFCURVE",
"210 591 CURVE",
"159 575 OFFCURVE",
"105 552 OFFCURVE",
"68 517 CURVE"
);
},
{
closed = 1;
nodes = (
"255 604 LINE SMOOTH",
"240 600 OFFCURVE",
"225 596 OFFCURVE",
"210 591 CURVE SMOOTH"
);
},
{
closed = 1;
nodes = (
"255 604 LINE SMOOTH",
"258 604 OFFCURVE",
"261 605 OFFCURVE",
"264 606 CURVE",
"261 605 OFFCURVE",
"258 604 OFFCURVE",
"256 604 CURVE SMOOTH"
);
},
{
closed = 1;
nodes = (
"308 615 OFFCURVE",
"362 622 OFFCURVE",
"417 624 CURVE",
"363 623 OFFCURVE",
"312 616 OFFCURVE",
"264 606 CURVE"
);
},
{
closed = 1;
nodes = (
"560 618 OFFCURVE",
"512 623 OFFCURVE",
"463 624 CURVE SMOOTH",
"508 623 OFFCURVE",
"556 616 OFFCURVE",
"603 607 CURVE"
);
}
);
width = 634;
}
);
note = E.1;
},
{
glyphname = F.ss01;
lastChange = "2021-10-25 22:52:02 +0000";
layers = (
{
layerId = "B9003040-D3EC-4996-96A5-33D5E21FF9E0";
paths = (
{
closed = 1;
nodes = (
"243 -10 OFFCURVE",
"250 -7 OFFCURVE",
"250 -3 CURVE SMOOTH",
"250 6 OFFCURVE",
"227 22 OFFCURVE",
"227 43 CURVE SMOOTH",
"227 63 OFFCURVE",
"268 146 OFFCURVE",
"353 254 CURVE",
"434 262 OFFCURVE",
"517 278 OFFCURVE",
"587 297 CURVE SMOOTH",
"606 301 OFFCURVE",
"653 326 OFFCURVE",
"635 326 CURVE SMOOTH",
"633 326 OFFCURVE",
"630 326 OFFCURVE",
"625 325 CURVE SMOOTH",
"616 324 OFFCURVE",
"529 314 OFFCURVE",
"448 306 CURVE SMOOTH",
"437 304 OFFCURVE",
"411 302 OFFCURVE",
"391 300 CURVE",
"392 301 OFFCURVE",
"392 301 OFFCURVE",
"392 302 CURVE",
"437 306 OFFCURVE",
"531 315 OFFCURVE",
"519 317 CURVE",
"514 317 OFFCURVE",
"454 309 OFFCURVE",
"394 304 CURVE",
"463 384 OFFCURVE",
"555 474 OFFCURVE",
"671 561 CURVE",
"689 563 LINE SMOOTH",
"699 564 OFFCURVE",
"733 566 OFFCURVE",
"767 566 CURVE SMOOTH",
"789 566 OFFCURVE",
"812 565 OFFCURVE",
"830 563 CURVE SMOOTH",
"881 556 OFFCURVE",
"917 538 OFFCURVE",
"932 524 CURVE SMOOTH",
"956 500 OFFCURVE",
"962 481 OFFCURVE",
"964 481 CURVE SMOOTH",
"965 481 OFFCURVE",
"965 487 OFFCURVE",
"966 501 CURVE SMOOTH",
"976 607 OFFCURVE",
"882 639 OFFCURVE",
"762 639 CURVE SMOOTH",
"605 639 OFFCURVE",
"404 585 OFFCURVE",
"335 577 CURVE SMOOTH",
"284 571 OFFCURVE",
"168 561 OFFCURVE",
"67 561 CURVE SMOOTH",
"-20 561 OFFCURVE",
"-96 568 OFFCURVE",
"-112 590 CURVE SMOOTH",
"-114 592 OFFCURVE",
"-127 603 OFFCURVE",
"-134 603 CURVE SMOOTH",
"-137 603 OFFCURVE",
"-139 601 OFFCURVE",
"-139 597 CURVE SMOOTH",
"-141 567 OFFCURVE",
"-113 475 OFFCURVE",
"-62 472 CURVE SMOOTH",
"-17 468 OFFCURVE",
"35 477 OFFCURVE",
"91 489 CURVE",
"21 480 LINE SMOOTH",
"40 483 OFFCURVE",
"83 490 OFFCURVE",
"155 503 CURVE SMOOTH",
"256 521 OFFCURVE",
"392 540 OFFCURVE",
"530 555 CURVE",
"514 542 OFFCURVE",
"509 537 OFFCURVE",
"509 537 CURVE",
"510 537 OFFCURVE",
"521 545 OFFCURVE",
"535 555 CURVE",
"537 555 LINE",
"464 492 OFFCURVE",
"378 395 OFFCURVE",
"303 298 CURVE",
"282 297 OFFCURVE",
"255 296 OFFCURVE",
"228 296 CURVE SMOOTH",
"215 296 OFFCURVE",
"203 296 OFFCURVE",
"190 297 CURVE",
"229 304 OFFCURVE",
"259 316 OFFCURVE",
"259 326 CURVE SMOOTH",
"259 333 OFFCURVE",
"258 336 OFFCURVE",
"256 336 CURVE SMOOTH",
"254 336 OFFCURVE",
"252 334 OFFCURVE",
"249 331 CURVE SMOOTH",
"244 326 OFFCURVE",
"164 321 OFFCURVE",
"148 321 CURVE SMOOTH",
"122 321 OFFCURVE",
"78 339 OFFCURVE",
"50 339 CURVE SMOOTH",
"37 339 OFFCURVE",
"28 335 OFFCURVE",
"26 323 CURVE SMOOTH",
"25 318 OFFCURVE",
"27 313 OFFCURVE",
"32 308 CURVE",
"28 293 OFFCURVE",
"25 276 OFFCURVE",
"25 264 CURVE SMOOTH",
"25 251 OFFCURVE",
"28 244 OFFCURVE",
"37 250 CURVE",
"56 246 OFFCURVE",
"86 244 OFFCURVE",
"124 244 CURVE SMOOTH",
"163 244 OFFCURVE",
"210 246 OFFCURVE",
"265 248 CURVE",
"217 182 OFFCURVE",
"177 119 OFFCURVE",
"152 69 CURVE",
"152 25 OFFCURVE",
"188 -7 OFFCURVE",
"220 -10 CURVE"
);
},
{
closed = 1;
nodes = (
"899 552 OFFCURVE",
"842 565 OFFCURVE",
"800 568 CURVE SMOOTH",
"790 569 OFFCURVE",
"778 569 OFFCURVE",
"765 569 CURVE SMOOTH",
"739 569 OFFCURVE",
"707 568 OFFCURVE",
"676 565 CURVE",
"681 569 LINE",
"706 571 LINE SMOOTH",
"713 572 OFFCURVE",
"724 572 OFFCURVE",
"738 572 CURVE SMOOTH",
"796 572 OFFCURVE",
"899 564 OFFCURVE",
"936 524 CURVE"
);
}
);
width = 547;
}
);
note = F.1;
},
{
glyphname = G.ss01;
lastChange = "2021-10-25 22:52:02 +0000";
layers = (
{
layerId = "B9003040-D3EC-4996-96A5-33D5E21FF9E0";
paths = (
{
closed = 1;
nodes = (
"159 -122 OFFCURVE",
"184 -118 OFFCURVE",
"188 -110 CURVE",
"192 -107 OFFCURVE",
"191 -102 OFFCURVE",
"190 -97 CURVE",
"337 -56 OFFCURVE",
"549 35 OFFCURVE",
"656 151 CURVE SMOOTH",
"657 152 LINE",
"697 153 OFFCURVE",
"736 156 OFFCURVE",
"771 161 CURVE SMOOTH",
"788 163 OFFCURVE",
"837 184 OFFCURVE",
"811 184 CURVE SMOOTH",
"829 184 OFFCURVE",
"741 186 OFFCURVE",
"659 191 CURVE",
"647 190 OFFCURVE",
"611 193 OFFCURVE",
"597 196 CURVE",
"620 195 OFFCURVE",
"731 187 OFFCURVE",
"719 191 CURVE",
"713 192 OFFCURVE",
"601 195 OFFCURVE",
"543 204 CURVE SMOOTH",
"517 207 OFFCURVE",
"482 212 OFFCURVE",
"448 220 CURVE",
"480 221 OFFCURVE",
"505 228 OFFCURVE",
"506 238 CURVE SMOOTH",
"507 246 OFFCURVE",
"507 248 OFFCURVE",
"505 248 CURVE SMOOTH",
"504 248 OFFCURVE",
"502 247 OFFCURVE",
"500 245 CURVE SMOOTH",
"499 244 OFFCURVE",
"493 243 OFFCURVE",
"486 243 CURVE SMOOTH",
"466 243 OFFCURVE",
"431 247 OFFCURVE",
"419 249 CURVE",
"395 250 OFFCURVE",
"355 282 OFFCURVE",
"331 282 CURVE SMOOTH",
"324 282 OFFCURVE",
"318 278 OFFCURVE",
"315 269 CURVE SMOOTH",
"314 264 OFFCURVE",
"315 259 OFFCURVE",
"318 254 CURVE",
"312 236 OFFCURVE",
"307 215 OFFCURVE",
"307 204 CURVE SMOOTH",
"307 195 OFFCURVE",
"309 191 OFFCURVE",
"316 195 CURVE",
"348 180 OFFCURVE",
"420 170 OFFCURVE",
"520 158 CURVE SMOOTH",
"536 156 OFFCURVE",
"551 154 OFFCURVE",
"568 153 CURVE",
"523 127 OFFCURVE",
"387 45 OFFCURVE",
"366 32 CURVE SMOOTH",
"353 24 LINE",
"386 40 OFFCURVE",
"422 59 OFFCURVE",
"460 80 CURVE",
"427 60 OFFCURVE",
"393 39 OFFCURVE",
"362 22 CURVE SMOOTH",
"327 0 OFFCURVE",
"245 -37 OFFCURVE",
"212 -37 CURVE",
"207 -38 OFFCURVE",
"265 -18 OFFCURVE",
"284 -9 CURVE SMOOTH",
"286 -8 OFFCURVE",
"288 -6 OFFCURVE",
"291 -5 CURVE SMOOTH",
"225 -34 OFFCURVE",
"175 -46 OFFCURVE",
"140 -46 CURVE SMOOTH",
"82 -46 OFFCURVE",
"60 -14 OFFCURVE",
"60 32 CURVE SMOOTH",
"60 84 OFFCURVE",
"89 155 OFFCURVE",
"125 214 CURVE SMOOTH",
"258 433 OFFCURVE",
"526 552 OFFCURVE",
"718 579 CURVE SMOOTH",
"729 580 OFFCURVE",
"738 581 OFFCURVE",
"746 581 CURVE SMOOTH",
"772 581 OFFCURVE",
"783 574 OFFCURVE",
"783 562 CURVE SMOOTH",
"783 522 OFFCURVE",
"666 433 OFFCURVE",
"642 416 CURVE SMOOTH",
"618 399 OFFCURVE",
"594 375 OFFCURVE",
"594 365 CURVE SMOOTH",
"594 362 OFFCURVE",
"597 360 OFFCURVE",
"602 360 CURVE SMOOTH",
"608 360 OFFCURVE",
"620 363 OFFCURVE",
"638 370 CURVE SMOOTH",
"672 384 OFFCURVE",
"735 439 OFFCURVE",
"751 456 CURVE",
"795 451 OFFCURVE",
"863 520 OFFCURVE",
"866 566 CURVE SMOOTH",
"867 584 OFFCURVE",
"833 613 OFFCURVE",
"830 608 CURVE SMOOTH",
"827 601 OFFCURVE",
"828 595 OFFCURVE",
"824 586 CURVE SMOOTH",
"820 577 OFFCURVE",
"813 566 OFFCURVE",
"807 562 CURVE",
"808 564 OFFCURVE",
"809 568 OFFCURVE",
"809 572 CURVE SMOOTH",
"809 590 OFFCURVE",
"796 626 OFFCURVE",
"771 664 CURVE",
"762 664 OFFCURVE",
"754 665 OFFCURVE",
"745 665 CURVE SMOOTH",
"614 658 OFFCURVE",
"527 614 OFFCURVE",
"370 541 CURVE",
"395 555 OFFCURVE",
"410 564 OFFCURVE",
"436 576 CURVE SMOOTH",
"485 597 OFFCURVE",
"526 617 OFFCURVE",
"565 633 CURVE",
"517 617 OFFCURVE",
"465 596 OFFCURVE",
"409 569 CURVE SMOOTH",
"314 524 OFFCURVE",
"163 409 OFFCURVE",
"107 343 CURVE",
"121 362 OFFCURVE",
"149 391 OFFCURVE",
"207 440 CURVE SMOOTH",
"268 492 OFFCURVE",
"321 520 OFFCURVE",
"352 541 CURVE",
"258 494 OFFCURVE",
"143 403 OFFCURVE",
"57 293 CURVE SMOOTH",
"-6 213 OFFCURVE",
"-49 128 OFFCURVE",
"-49 56 CURVE SMOOTH",
"-49 -5 OFFCURVE",
"-18 -56 OFFCURVE",
"57 -87 CURVE",
"54 -91 OFFCURVE",
"53 -94 OFFCURVE",
"53 -97 CURVE SMOOTH",
"53 -114 OFFCURVE",
"94 -122 OFFCURVE",
"131 -122 CURVE SMOOTH"
);
},
{
closed = 1;
nodes = (
"296 -2 OFFCURVE",
"302 0 OFFCURVE",
"308 3 CURVE",
"302 0 OFFCURVE",
"296 -2 OFFCURVE",
"291 -5 CURVE"
);
},
{
closed = 1;
nodes = (
"319 8 OFFCURVE",
"331 13 OFFCURVE",
"344 20 CURVE",
"308 3 LINE SMOOTH"
);
},
{
closed = 1;
nodes = (
"347 21 OFFCURVE",
"350 22 OFFCURVE",
"353 24 CURVE",
"344 20 LINE"
);
},
{
closed = 1;
nodes = (
"509 110 OFFCURVE",
"553 139 OFFCURVE",
"571 153 CURVE",
"583 153 LINE",
"539 127 OFFCURVE",
"498 101 OFFCURVE",
"460 80 CURVE"
);
},
{
closed = 1;
nodes = (
"625 652 OFFCURVE",
"679 663 OFFCURVE",
"727 665 CURVE",
"663 664 OFFCURVE",
"614 652 OFFCURVE",
"565 633 CURVE"
);
}
);
width = 718;
}
);
note = G.1;
},
{
glyphname = H.ss01;
lastChange = "2021-10-25 22:52:02 +0000";
layers = (
{
layerId = "B9003040-D3EC-4996-96A5-33D5E21FF9E0";
paths = (
{
closed = 1;
nodes = (
"144 -211 OFFCURVE",
"225 -165 OFFCURVE",
"296 -104 CURVE",
"313 -87 OFFCURVE",
"334 -63 OFFCURVE",
"349 -41 CURVE",
"333 -58 OFFCURVE",
"309 -87 OFFCURVE",
"284 -110 CURVE SMOOTH",
"255 -137 OFFCURVE",
"223 -162 OFFCURVE",
"182 -174 CURVE SMOOTH",
"179 -175 OFFCURVE",
"223 -154 OFFCURVE",
"238 -143 CURVE SMOOTH",
"333 -77 OFFCURVE",
"424 58 OFFCURVE",
"484 142 CURVE SMOOTH",
"503 168 OFFCURVE",
"526 203 OFFCURVE",
"549 240 CURVE",
"606 246 OFFCURVE",
"669 254 OFFCURVE",
"740 263 CURVE",
"729 242 OFFCURVE",
"689 156 OFFCURVE",
"674 113 CURVE",
"675 121 OFFCURVE",
"704 191 OFFCURVE",
"703 189 CURVE SMOOTH",
"683 156 OFFCURVE",
"652 79 OFFCURVE",
"652 16 CURVE SMOOTH",
"652 -29 OFFCURVE",
"668 -66 OFFCURVE",
"715 -74 CURVE SMOOTH",
"724 -75 OFFCURVE",
"729 -72 OFFCURVE",
"729 -67 CURVE SMOOTH",
"729 -64 OFFCURVE",
"727 -61 OFFCURVE",
"723 -58 CURVE SMOOTH",
"711 -50 OFFCURVE",
"705 -35 OFFCURVE",
"705 -15 CURVE SMOOTH",
"705 69 OFFCURVE",
"802 232 OFFCURVE",
"834 275 CURVE",
"891 285 OFFCURVE",
"946 305 OFFCURVE",
"960 311 CURVE SMOOTH",
"971 316 OFFCURVE",
"978 321 OFFCURVE",
"978 325 CURVE SMOOTH",
"978 327 OFFCURVE",
"975 328 OFFCURVE",
"970 328 CURVE SMOOTH",
"967 328 OFFCURVE",
"962 327 OFFCURVE",
"956 326 CURVE SMOOTH",
"927 320 OFFCURVE",
"896 314 OFFCURVE",
"864 310 CURVE",
"946 436 OFFCURVE",
"1036 550 OFFCURVE",
"1036 552 CURVE SMOOTH",
"1038 583 OFFCURVE",
"1006 618 OFFCURVE",
"980 618 CURVE SMOOTH",
"973 618 OFFCURVE",
"967 615 OFFCURVE",
"961 610 CURVE SMOOTH",
"946 596 OFFCURVE",
"909 565 OFFCURVE",
"897 536 CURVE SMOOTH",
"889 517 OFFCURVE",
"867 479 OFFCURVE",
"863 473 CURVE",
"903 517 LINE",
"862 464 OFFCURVE",
"803 363 OFFCURVE",
"762 297 CURVE",
"736 294 OFFCURVE",
"663 288 OFFCURVE",
"575 283 CURVE",
"613 347 OFFCURVE",
"647 407 OFFCURVE",
"658 427 CURVE SMOOTH",
"659 429 OFFCURVE",
"604 341 OFFCURVE",
"582 309 CURVE SMOOTH",
"564 282 LINE",
"559 282 LINE",
"593 340 OFFCURVE",
"625 398 OFFCURVE",
"656 454 CURVE",
"681 480 OFFCURVE",
"727 529 OFFCURVE",
"727 564 CURVE SMOOTH",
"727 575 OFFCURVE",
"722 585 OFFCURVE",
"709 592 CURVE",
"708 618 OFFCURVE",
"681 640 OFFCURVE",
"656 640 CURVE SMOOTH",
"652 640 OFFCURVE",
"649 639 OFFCURVE",
"645 638 CURVE SMOOTH",
"641 637 OFFCURVE",
"637 634 OFFCURVE",
"634 630 CURVE",
"644 631 OFFCURVE",
"653 631 OFFCURVE",
"663 631 CURVE SMOOTH",
"667 631 OFFCURVE",
"670 629 OFFCURVE",
"670 627 CURVE SMOOTH",
"670 625 OFFCURVE",
"669 624 OFFCURVE",
"666 623 CURVE",
"656 625 OFFCURVE",
"644 625 OFFCURVE",
"631 625 CURVE",
"634 630 LINE",
"562 627 OFFCURVE",
"506 611 OFFCURVE",
"457 586 CURVE",
"502 608 OFFCURVE",
"571 625 OFFCURVE",
"631 625 CURVE",
"631 624 OFFCURVE",
"631 623 OFFCURVE",
"630 622 CURVE",
"459 617 OFFCURVE",
"391 537 OFFCURVE",
"345 468 CURVE",
"345 470 LINE",
"342 466 OFFCURVE",
"340 462 OFFCURVE",
"343 466 CURVE SMOOTH",
"345 468 LINE",
"341 456 OFFCURVE",
"338 443 OFFCURVE",
"338 429 CURVE SMOOTH",
"338 380 OFFCURVE",
"362 358 OFFCURVE",
"374 358 CURVE SMOOTH",
"378 358 OFFCURVE",
"381 361 OFFCURVE",
"381 366 CURVE SMOOTH",
"381 370 OFFCURVE",
"379 376 OFFCURVE",
"374 384 CURVE",
"366 444 OFFCURVE",
"472 523 OFFCURVE",
"489 534 CURVE SMOOTH",
"530 562 OFFCURVE",
"589 589 OFFCURVE",
"637 597 CURVE",
"639 595 LINE",
"638 549 OFFCURVE",
"568 418 OFFCURVE",
"476 278 CURVE",
"410 275 OFFCURVE",
"342 273 OFFCURVE",
"283 273 CURVE SMOOTH",
"214 273 OFFCURVE",
"157 275 OFFCURVE",
"129 283 CURVE",
"135 291 OFFCURVE",
"170 299 OFFCURVE",
"178 306 CURVE SMOOTH",
"185 311 OFFCURVE",
"188 314 OFFCURVE",
"188 316 CURVE",
"187 316 LINE SMOOTH",
"185 316 OFFCURVE",
"179 313 OFFCURVE",
"172 310 CURVE SMOOTH",
"156 302 OFFCURVE",
"88 297 OFFCURVE",
"65 296 CURVE SMOOTH",
"52 296 OFFCURVE",
"40 300 OFFCURVE",
"29 300 CURVE SMOOTH",
"20 300 OFFCURVE",
"12 297 OFFCURVE",
"5 283 CURVE SMOOTH",
"-3 267 OFFCURVE",
"-8 252 OFFCURVE",
"-8 240 CURVE SMOOTH",
"-8 219 OFFCURVE",
"6 205 OFFCURVE",
"38 202 CURVE",
"109 202 OFFCURVE",
"214 204 OFFCURVE",
"443 228 CURVE",
"365 109 OFFCURVE",
"252 -54 OFFCURVE",
"132 -130 CURVE SMOOTH",
"104 -148 OFFCURVE",
"73 -158 OFFCURVE",
"49 -158 CURVE SMOOTH",
"21 -158 OFFCURVE",
"2 -146 OFFCURVE",
"2 -116 CURVE SMOOTH",
"2 -103 OFFCURVE",
"5 -88 OFFCURVE",
"13 -69 CURVE SMOOTH",
"31 -27 OFFCURVE",
"64 6 OFFCURVE",
"89 28 CURVE",
"52 0 OFFCURVE",
"40 -8 OFFCURVE",
"27 -24 CURVE",
"45 0 OFFCURVE",
"75 22 OFFCURVE",
"104 43 CURVE",
"114 48 OFFCURVE",
"124 59 OFFCURVE",
"124 64 CURVE SMOOTH",
"124 66 OFFCURVE",
"123 67 OFFCURVE",
"120 67 CURVE SMOOTH",
"114 67 OFFCURVE",
"100 61 OFFCURVE",
"73 45 CURVE SMOOTH",
"40 25 OFFCURVE",
"8 1 OFFCURVE",
"-11 -27 CURVE SMOOTH",
"-27 -50 OFFCURVE",
"-35 -80 OFFCURVE",
"-35 -108 CURVE SMOOTH",
"-35 -161 OFFCURVE",
"-6 -211 OFFCURVE",
"56 -211 CURVE SMOOTH"
);
},
{
closed = 1;
nodes = (
"498 181 OFFCURVE",
"515 209 OFFCURVE",
"532 238 CURVE",
"535 238 LINE",
"481 154 LINE SMOOTH"
);
},
{
closed = 1;
nodes = (
"347 472 OFFCURVE",
"348 474 OFFCURVE",
"348 476 CURVE",
"368 517 OFFCURVE",
"401 553 OFFCURVE",
"442 577 CURVE",
"436 575 OFFCURVE",
"431 572 OFFCURVE",
"427 569 CURVE SMOOTH",
"398 548 OFFCURVE",
"361 514 OFFCURVE",
"345 470 CURVE"
);
},
{
closed = 1;
nodes = (
"450 582 LINE SMOOTH",
"447 580 OFFCURVE",
"444 579 OFFCURVE",
"442 577 CURVE"
);
},
{
closed = 1;
nodes = (
"452 583 OFFCURVE",
"455 584 OFFCURVE",
"457 586 CURVE",
"455 584 OFFCURVE",
"452 583 OFFCURVE",
"450 582 CURVE"
);
}
);
width = 822;
}
);
note = H.1;
},
{
glyphname = I.ss01;
lastChange = "2021-10-25 22:52:02 +0000";
layers = (
{
layerId = "B9003040-D3EC-4996-96A5-33D5E21FF9E0";
paths = (
{
closed = 1;
nodes = (
"-207 -102 OFFCURVE",
"-127 -68 OFFCURVE",
"-30 -40 CURVE",
"-40 -58 OFFCURVE",
"-46 -70 OFFCURVE",
"-46 -79 CURVE SMOOTH",
"-46 -88 OFFCURVE",
"-39 -92 OFFCURVE",
"-21 -91 CURVE",
"13 -73 OFFCURVE",
"30 -55 OFFCURVE",
"58 -19 CURVE",
"92 -12 OFFCURVE",
"136 -3 OFFCURVE",
"173 -3 CURVE SMOOTH",
"209 -3 OFFCURVE",
"237 -11 OFFCURVE",
"243 -35 CURVE",
"238 -48 OFFCURVE",
"236 -55 OFFCURVE",
"236 -59 CURVE SMOOTH",
"236 -61 OFFCURVE",
"237 -62 OFFCURVE",
"238 -62 CURVE SMOOTH",
"247 -62 OFFCURVE",
"276 -24 OFFCURVE",
"282 6 CURVE SMOOTH",
"283 11 OFFCURVE",
"284 15 OFFCURVE",
"284 19 CURVE SMOOTH",
"284 40 OFFCURVE",
"269 52 OFFCURVE",
"222 52 CURVE SMOOTH",
"210 52 OFFCURVE",
"197 52 OFFCURVE",
"181 50 CURVE SMOOTH",
"161 48 OFFCURVE",
"126 42 OFFCURVE",
"99 37 CURVE",
"102 40 LINE",
"127 46 OFFCURVE",
"167 52 OFFCURVE",
"223 56 CURVE",
"188 56 OFFCURVE",
"147 51 OFFCURVE",
"103 42 CURVE",
"145 103 OFFCURVE",
"217 205 OFFCURVE",
"274 270 CURVE",
"268 269 OFFCURVE",
"182 157 OFFCURVE",
"145 115 CURVE",
"257 263 LINE SMOOTH",
"360 394 OFFCURVE",
"473 540 OFFCURVE",
"512 580 CURVE",
"513 583 OFFCURVE",
"514 586 OFFCURVE",
"514 589 CURVE SMOOTH",
"514 618 OFFCURVE",
"462 644 OFFCURVE",
"439 651 CURVE SMOOTH",
"423 656 OFFCURVE",
"420 643 OFFCURVE",
"420 637 CURVE",
"406 640 OFFCURVE",
"392 640 OFFCURVE",
"377 642 CURVE",
"389 640 OFFCURVE",
"402 640 OFFCURVE",
"414 637 CURVE",
"420 637 OFFCURVE",
"425 635 OFFCURVE",
"425 634 CURVE SMOOTH",
"425 633 OFFCURVE",
"424 633 OFFCURVE",
"422 633 CURVE SMOOTH",
"416 633 LINE",
"380 639 OFFCURVE",
"348 642 OFFCURVE",
"318 642 CURVE SMOOTH",
"182 642 OFFCURVE",
"114 584 OFFCURVE",
"61 536 CURVE SMOOTH",
"56 532 OFFCURVE",
"60 538 OFFCURVE",
"63 544 CURVE",
"53 531 OFFCURVE",
"49 521 OFFCURVE",
"44 505 CURVE SMOOTH",
"41 497 OFFCURVE",
"40 489 OFFCURVE",
"40 482 CURVE SMOOTH",
"40 458 OFFCURVE",
"55 445 OFFCURVE",
"65 445 CURVE SMOOTH",
"70 445 OFFCURVE",
"75 449 OFFCURVE",
"75 458 CURVE SMOOTH",
"75 461 OFFCURVE",
"74 464 OFFCURVE",
"73 468 CURVE",
"88 525 OFFCURVE",
"208 576 OFFCURVE",
"230 583 CURVE SMOOTH",
"286 599 OFFCURVE",
"341 611 OFFCURVE",
"389 611 CURVE SMOOTH",
"397 611 OFFCURVE",
"405 611 OFFCURVE",
"413 610 CURVE",
"404 584 OFFCURVE",
"341 513 OFFCURVE",
"323 485 CURVE",
"339 501 OFFCURVE",
"377 553 OFFCURVE",
"409 586 CURVE",
"382 551 OFFCURVE",
"356 519 OFFCURVE",
"314 466 CURVE SMOOTH",
"205 327 OFFCURVE",
"46 87 OFFCURVE",
"6 21 CURVE",
"-55 6 OFFCURVE",
"-116 -11 OFFCURVE",
"-165 -23 CURVE",
"-155 -14 OFFCURVE",
"-148 -5 OFFCURVE",
"-148 0 CURVE SMOOTH",
"-148 1 LINE",
"-150 7 OFFCURVE",
"-151 9 OFFCURVE",
"-152 9 CURVE SMOOTH",
"-153 9 OFFCURVE",
"-154 7 OFFCURVE",
"-155 3 CURVE SMOOTH",
"-157 -3 OFFCURVE",
"-196 -22 OFFCURVE",
"-208 -27 CURVE SMOOTH",
"-229 -38 OFFCURVE",
"-280 -22 OFFCURVE",
"-280 -51 CURVE SMOOTH",
"-280 -59 OFFCURVE",
"-276 -100 OFFCURVE",
"-270 -112 CURVE"
);
},
{
closed = 1;
nodes = (
"102 580 OFFCURVE",
"163 616 OFFCURVE",
"207 628 CURVE SMOOTH",
"239 638 OFFCURVE",
"289 644 OFFCURVE",
"338 644 CURVE SMOOTH",
"349 644 OFFCURVE",
"359 644 OFFCURVE",
"369 643 CURVE",
"355 644 OFFCURVE",
"341 645 OFFCURVE",
"327 645 CURVE SMOOTH",
"203 645 OFFCURVE",
"105 598 OFFCURVE",
"63 544 CURVE"
);
}
);
width = 359;
}
);
note = I.1;
},
{
glyphname = J.ss01;
lastChange = "2021-10-25 22:52:02 +0000";
layers = (
{
layerId = "B9003040-D3EC-4996-96A5-33D5E21FF9E0";
paths = (
{
closed = 1;
nodes = (
"185 -225 OFFCURVE",
"267 -141 OFFCURVE",
"359 -68 CURVE SMOOTH",
"382 -48 OFFCURVE",
"409 -20 OFFCURVE",
"428 8 CURVE",
"406 -12 OFFCURVE",
"375 -46 OFFCURVE",
"345 -74 CURVE SMOOTH",
"307 -108 OFFCURVE",
"270 -142 OFFCURVE",
"216 -159 CURVE SMOOTH",
"214 -160 OFFCURVE",
"269 -131 OFFCURVE",
"287 -118 CURVE SMOOTH",
"405 -32 OFFCURVE",
"501 95 OFFCURVE",
"552 173 CURVE SMOOTH",
"619 276 OFFCURVE",
"703 414 OFFCURVE",
"718 450 CURVE",
"713 444 OFFCURVE",
"670 371 OFFCURVE",
"650 341 CURVE SMOOTH",
"629 311 OFFCURVE",
"598 259 OFFCURVE",
"558 201 CURVE",
"618 290 OFFCURVE",
"668 377 OFFCURVE",
"714 469 CURVE SMOOTH",
"725 492 OFFCURVE",
"737 546 OFFCURVE",
"744 594 CURVE",
"789 598 OFFCURVE",
"837 605 OFFCURVE",
"886 615 CURVE SMOOTH",
"911 621 OFFCURVE",
"939 639 OFFCURVE",
"939 648 CURVE SMOOTH",
"939 651 OFFCURVE",
"936 653 OFFCURVE",
"928 653 CURVE SMOOTH",
"925 653 OFFCURVE",
"922 652 OFFCURVE",
"918 652 CURVE SMOOTH",
"874 647 OFFCURVE",
"819 644 OFFCURVE",
"766 641 CURVE",
"781 644 OFFCURVE",
"828 646 OFFCURVE",
"834 648 CURVE",
"750 643 LINE",
"751 654 OFFCURVE",
"752 664 OFFCURVE",
"752 671 CURVE SMOOTH",
"752 676 OFFCURVE",
"751 680 OFFCURVE",
"751 683 CURVE SMOOTH",
"751 693 OFFCURVE",
"748 698 OFFCURVE",
"744 698 CURVE SMOOTH",
"737 698 OFFCURVE",
"728 685 OFFCURVE",
"724 665 CURVE SMOOTH",
"723 658 OFFCURVE",
"721 650 OFFCURVE",
"719 642 CURVE",
"700 642 OFFCURVE",
"680 642 OFFCURVE",
"660 643 CURVE SMOOTH",
"644 643 OFFCURVE",
"624 645 OFFCURVE",
"620 646 CURVE",
"633 654 OFFCURVE",
"641 662 OFFCURVE",
"644 670 CURVE SMOOTH",
"646 675 OFFCURVE",
"647 678 OFFCURVE",
"647 679 CURVE SMOOTH",
"647 680 OFFCURVE",
"647 681 OFFCURVE",
"646 681 CURVE SMOOTH",
"644 681 OFFCURVE",
"640 678 OFFCURVE",
"636 675 CURVE SMOOTH",
"630 669 OFFCURVE",
"599 666 OFFCURVE",
"580 666 CURVE",
"567 669 OFFCURVE",
"557 675 OFFCURVE",
"546 675 CURVE SMOOTH",
"537 675 OFFCURVE",
"528 670 OFFCURVE",
"519 652 CURVE SMOOTH",
"518 650 OFFCURVE",
"518 646 OFFCURVE",
"521 642 CURVE",
"508 626 OFFCURVE",
"499 612 OFFCURVE",
"499 603 CURVE SMOOTH",
"499 597 OFFCURVE",
"502 593 OFFCURVE",
"511 591 CURVE",
"526 591 OFFCURVE",
"560 589 OFFCURVE",
"606 589 CURVE SMOOTH",
"634 589 OFFCURVE",
"667 590 OFFCURVE",
"703 592 CURVE",
"669 502 OFFCURVE",
"602 386 OFFCURVE",
"536 288 CURVE SMOOTH",
"461 178 OFFCURVE",
"344 7 OFFCURVE",
"141 -133 CURVE SMOOTH",
"102 -160 OFFCURVE",
"58 -175 OFFCURVE",
"24 -175 CURVE SMOOTH",
"-7 -175 OFFCURVE",
"-30 -163 OFFCURVE",
"-37 -137 CURVE SMOOTH",
"-39 -131 OFFCURVE",
"-39 -125 OFFCURVE",
"-39 -119 CURVE SMOOTH",
"-39 -44 OFFCURVE",
"57 66 OFFCURVE",
"110 109 CURVE SMOOTH",
"231 210 OFFCURVE",
"395 272 OFFCURVE",
"482 314 CURVE",
"488 319 OFFCURVE",
"487 323 OFFCURVE",
"476 323 CURVE SMOOTH",
"463 323 OFFCURVE",
"432 317 OFFCURVE",
"376 299 CURVE SMOOTH",
"298 273 OFFCURVE",
"173 226 OFFCURVE",
"75 154 CURVE SMOOTH",
"-1 98 OFFCURVE",
"-88 -3 OFFCURVE",
"-88 -98 CURVE SMOOTH",
"-88 -109 OFFCURVE",
"-87 -119 OFFCURVE",
"-85 -129 CURVE SMOOTH",
"-74 -183 OFFCURVE",
"-24 -225 OFFCURVE",
"45 -225 CURVE SMOOTH"
);
}
);
width = 604;
}
);
note = J.1;
},
{
glyphname = K.ss01;
lastChange = "2021-10-25 22:52:02 +0000";
layers = (
{
layerId = "B9003040-D3EC-4996-96A5-33D5E21FF9E0";
paths = (
{
closed = 1;
nodes = (
"920 -344 OFFCURVE",
"951 -330 OFFCURVE",
"951 -291 CURVE SMOOTH",
"950 -252 OFFCURVE",
"918 -213 OFFCURVE",
"918 -227 CURVE SMOOTH",
"918 -229 OFFCURVE",
"919 -232 OFFCURVE",
"920 -236 CURVE SMOOTH",
"921 -248 OFFCURVE",
"924 -253 OFFCURVE",
"925 -268 CURVE SMOOTH",
"925 -283 OFFCURVE",
"916 -313 OFFCURVE",
"902 -308 CURVE",
"848 -296 OFFCURVE",
"761 -206 OFFCURVE",
"726 -167 CURVE SMOOTH",
"664 -96 OFFCURVE",
"545 70 OFFCURVE",
"487 172 CURVE",
"495 171 OFFCURVE",
"503 174 OFFCURVE",
"512 181 CURVE SMOOTH",
"546 203 OFFCURVE",
"602 287 OFFCURVE",
"661 338 CURVE SMOOTH",
"752 412 LINE",
"735 395 OFFCURVE",
"622 289 OFFCURVE",
"611 276 CURVE",
"636 288 OFFCURVE",
"701 355 OFFCURVE",
"733 385 CURVE SMOOTH",
"829 476 OFFCURVE",
"973 611 OFFCURVE",
"1216 680 CURVE",
"1223 683 OFFCURVE",
"1226 685 OFFCURVE",
"1226 686 CURVE SMOOTH",
"1226 688 OFFCURVE",
"1221 689 OFFCURVE",
"1213 689 CURVE SMOOTH",
"1206 689 OFFCURVE",
"1197 688 OFFCURVE",
"1186 687 CURVE SMOOTH",
"1181 686 OFFCURVE",
"1176 685 OFFCURVE",
"1173 685 CURVE SMOOTH",
"1171 685 OFFCURVE",
"1170 685 OFFCURVE",
"1171 686 CURVE",
"1181 688 OFFCURVE",
"1197 689 OFFCURVE",
"1206 690 CURVE",
"1184 693 OFFCURVE",
"1145 682 OFFCURVE",
"1138 681 CURVE SMOOTH",
"915 634 OFFCURVE",
"537 324 OFFCURVE",
"468 257 CURVE SMOOTH",
"467 256 OFFCURVE",
"465 256 OFFCURVE",
"464 256 CURVE",
"510 326 OFFCURVE",
"548 398 OFFCURVE",
"564 426 CURVE SMOOTH",
"565 428 OFFCURVE",
"511 339 OFFCURVE",
"489 307 CURVE SMOOTH",
"472 281 OFFCURVE",
"465 271 OFFCURVE",
"465 272 CURVE SMOOTH",
"465 275 OFFCURVE",
"520 364 OFFCURVE",
"568 445 CURVE",
"593 471 OFFCURVE",
"639 520 OFFCURVE",
"639 555 CURVE SMOOTH",
"639 566 OFFCURVE",
"634 576 OFFCURVE",
"621 583 CURVE",
"620 609 OFFCURVE",
"593 631 OFFCURVE",
"568 631 CURVE SMOOTH",
"564 631 OFFCURVE",
"561 630 OFFCURVE",
"557 629 CURVE SMOOTH",
"547 626 OFFCURVE",
"542 617 OFFCURVE",
"542 607 CURVE SMOOTH",
"542 604 OFFCURVE",
"542 600 OFFCURVE",
"544 596 CURVE",
"510 603 OFFCURVE",
"477 607 OFFCURVE",
"445 607 CURVE SMOOTH",
"414 607 OFFCURVE",
"384 603 OFFCURVE",
"356 597 CURVE",
"378 602 OFFCURVE",
"405 604 OFFCURVE",
"433 604 CURVE SMOOTH",
"472 604 OFFCURVE",
"513 599 OFFCURVE",
"547 590 CURVE",
"544 596 LINE",
"557 593 OFFCURVE",
"570 589 OFFCURVE",
"584 585 CURVE SMOOTH",
"587 584 OFFCURVE",
"589 581 OFFCURVE",
"589 579 CURVE SMOOTH",
"589 577 OFFCURVE",
"588 576 OFFCURVE",
"585 576 CURVE",
"574 582 OFFCURVE",
"561 587 OFFCURVE",
"547 590 CURVE",
"548 589 OFFCURVE",
"549 587 OFFCURVE",
"551 586 CURVE",
"513 596 OFFCURVE",
"478 601 OFFCURVE",
"446 601 CURVE SMOOTH",
"335 601 OFFCURVE",
"255 550 OFFCURVE",
"197 501 CURVE SMOOTH",
"199 503 LINE SMOOTH",
"195 499 OFFCURVE",
"191 496 OFFCURVE",
"195 499 CURVE SMOOTH",
"196 500 LINE SMOOTH",
"182 479 OFFCURVE",
"171 452 OFFCURVE",
"171 424 CURVE SMOOTH",
"171 385 OFFCURVE",
"198 363 OFFCURVE",
"215 363 CURVE SMOOTH",
"224 363 OFFCURVE",
"230 368 OFFCURVE",
"230 379 CURVE SMOOTH",
"230 383 OFFCURVE",
"229 387 OFFCURVE",
"228 391 CURVE",
"240 461 OFFCURVE",
"354 521 OFFCURVE",
"374 529 CURVE SMOOTH",
"421 545 OFFCURVE",
"482 562 OFFCURVE",
"528 562 CURVE SMOOTH",
"534 562 OFFCURVE",
"540 562 OFFCURVE",
"545 561 CURVE",
"514 473 OFFCURVE",
"359 235 OFFCURVE",
"286 143 CURVE SMOOTH",
"221 66 OFFCURVE",
"133 -26 OFFCURVE",
"64 -64 CURVE SMOOTH",
"30 -83 OFFCURVE",
"-7 -95 OFFCURVE",
"-36 -95 CURVE SMOOTH",
"-67 -95 OFFCURVE",
"-88 -82 OFFCURVE",
"-88 -54 CURVE SMOOTH",
"-88 -42 OFFCURVE",
"-84 -27 OFFCURVE",
"-76 -9 CURVE SMOOTH",
"-55 35 OFFCURVE",
"-14 72 OFFCURVE",
"14 95 CURVE",
"-30 61 OFFCURVE",
"-44 52 OFFCURVE",
"-59 36 CURVE",
"-40 59 OFFCURVE",
"-8 84 OFFCURVE",
"26 105 CURVE",
"42 113 OFFCURVE",
"57 129 OFFCURVE",
"45 129 CURVE SMOOTH",
"38 129 OFFCURVE",
"21 124 OFFCURVE",
"-10 107 CURVE SMOOTH",
"-46 86 OFFCURVE",
"-82 61 OFFCURVE",
"-105 30 CURVE SMOOTH",
"-122 8 OFFCURVE",
"-130 -19 OFFCURVE",
"-130 -45 CURVE SMOOTH",
"-130 -97 OFFCURVE",
"-96 -146 OFFCURVE",
"-25 -146 CURVE SMOOTH",
"8 -146 OFFCURVE",
"45 -136 OFFCURVE",
"77 -127 CURVE SMOOTH",
"123 -115 OFFCURVE",
"165 -84 OFFCURVE",
"204 -52 CURVE SMOOTH",
"223 -35 OFFCURVE",
"294 30 OFFCURVE",
"310 51 CURVE",
"293 35 OFFCURVE",
"220 -35 OFFCURVE",
"191 -58 CURVE SMOOTH",
"157 -86 OFFCURVE",
"121 -112 OFFCURVE",
"74 -125 CURVE SMOOTH",
"71 -126 OFFCURVE",
"121 -104 OFFCURVE",
"137 -93 CURVE SMOOTH",
"202 -51 OFFCURVE",
"295 36 OFFCURVE",
"384 147 CURVE",
"392 136 OFFCURVE",
"400 126 OFFCURVE",
"409 118 CURVE",
"422 102 OFFCURVE",
"432 92 OFFCURVE",
"442 77 CURVE SMOOTH",
"514 -29 OFFCURVE",
"593 -132 OFFCURVE",
"720 -249 CURVE",
"664 -210 OFFCURVE",
"565 -102 OFFCURVE",
"497 -11 CURVE SMOOTH",
"482 8 OFFCURVE",
"461 38 OFFCURVE",
"448 56 CURVE",
"469 23 OFFCURVE",
"502 -26 OFFCURVE",
"571 -112 CURVE SMOOTH",
"623 -177 OFFCURVE",
"802 -344 OFFCURVE",
"894 -344 CURVE SMOOTH"
);
},
{
closed = 1;
nodes = (
"438 73 LINE",
"437 73 OFFCURVE",
"441 66 OFFCURVE",
"448 56 CURVE"
);
},
{
closed = 1;
nodes = (
"201 505 OFFCURVE",
"203 507 OFFCURVE",
"204 509 CURVE",
"238 547 OFFCURVE",
"281 576 OFFCURVE",
"331 591 CURVE SMOOTH",
"321 588 LINE SMOOTH",
"282 575 OFFCURVE",
"231 548 OFFCURVE",
"199 503 CURVE"
);
},
);
width = 712;
}
);
note = K.1;
},
{
glyphname = L.ss01;
lastChange = "2021-10-25 22:52:02 +0000";
layers = (
{
layerId = "B9003040-D3EC-4996-96A5-33D5E21FF9E0";
paths = (
{
closed = 1;
nodes = (
"767 -158 OFFCURVE",
"796 -154 OFFCURVE",
"819 -145 CURVE SMOOTH",
"835 -139 OFFCURVE",
"850 -126 OFFCURVE",
"850 -109 CURVE SMOOTH",
"850 -99 OFFCURVE",
"845 -87 OFFCURVE",
"833 -74 CURVE SMOOTH",
"805 -44 OFFCURVE",
"751 -26 OFFCURVE",
"751 -33 CURVE SMOOTH",
"751 -35 OFFCURVE",
"755 -38 OFFCURVE",
"762 -43 CURVE",
"771 -52 OFFCURVE",
"779 -55 OFFCURVE",
"789 -66 CURVE",
"800 -74 OFFCURVE",
"811 -91 OFFCURVE",
"811 -101 CURVE SMOOTH",
"811 -105 OFFCURVE",
"809 -108 OFFCURVE",
"804 -109 CURVE SMOOTH",
"796 -111 OFFCURVE",
"787 -112 OFFCURVE",
"776 -112 CURVE SMOOTH",
"710 -112 OFFCURVE",
"595 -81 OFFCURVE",
"541 -67 CURVE SMOOTH",
"471 -46 OFFCURVE",
"365 -9 OFFCURVE",
"269 28 CURVE",
"295 59 OFFCURVE",
"319 98 OFFCURVE",
"334 115 CURVE",
"468 202 OFFCURVE",
"767 501 OFFCURVE",
"761 615 CURVE SMOOTH",
"760 631 OFFCURVE",
"734 642 OFFCURVE",
"732 658 CURVE SMOOTH",
"732 660 OFFCURVE",
"731 661 OFFCURVE",
"730 662 CURVE",
"718 683 OFFCURVE",
"683 708 OFFCURVE",
"670 712 CURVE",
"667 712 OFFCURVE",
"464 435 OFFCURVE",
"297 179 CURVE SMOOTH",
"272 141 OFFCURVE",
"232 93 OFFCURVE",
"206 53 CURVE",
"127 86 OFFCURVE",
"63 115 OFFCURVE",
"46 132 CURVE",
"47 147 OFFCURVE",
"29 164 OFFCURVE",
"11 164 CURVE SMOOTH",
"-8 164 OFFCURVE",
"-20 148 OFFCURVE",
"-20 130 CURVE SMOOTH",
"-20 122 OFFCURVE",
"-17 114 OFFCURVE",
"-12 106 CURVE",
"-47 85 OFFCURVE",
"-82 60 OFFCURVE",
"-105 30 CURVE SMOOTH",
"-122 8 OFFCURVE",
"-130 -19 OFFCURVE",
"-130 -45 CURVE SMOOTH",
"-130 -97 OFFCURVE",
"-96 -146 OFFCURVE",
"-25 -146 CURVE SMOOTH",
"8 -146 OFFCURVE",
"45 -136 OFFCURVE",
"77 -127 CURVE SMOOTH",
"123 -115 OFFCURVE",
"165 -84 OFFCURVE",
"204 -52 CURVE SMOOTH",
"209 -47 OFFCURVE",
"212 -44 OFFCURVE",
"211 -44 CURVE SMOOTH",
"210 -44 OFFCURVE",
"204 -48 OFFCURVE",
"191 -58 CURVE SMOOTH",
"156 -85 OFFCURVE",
"121 -112 OFFCURVE",
"74 -125 CURVE SMOOTH",
"71 -126 OFFCURVE",
"121 -104 OFFCURVE",
"137 -93 CURVE SMOOTH",
"161 -77 OFFCURVE",
"188 -55 OFFCURVE",
"217 -27 CURVE",
"263 -47 OFFCURVE",
"328 -72 OFFCURVE",
"450 -109 CURVE SMOOTH",
"524 -130 OFFCURVE",
"642 -158 OFFCURVE",
"733 -158 CURVE SMOOTH"
);
},
{
closed = 1;
nodes = (
"-67 -95 OFFCURVE",
"-88 -82 OFFCURVE",
"-88 -54 CURVE SMOOTH",
"-88 -42 OFFCURVE",
"-84 -27 OFFCURVE",
"-76 -9 CURVE SMOOTH",
"-59 25 OFFCURVE",
"-31 55 OFFCURVE",
"-6 77 CURVE",
"9 46 OFFCURVE",
"82 22 OFFCURVE",
"127 12 CURVE",
"137 8 OFFCURVE",
"145 6 OFFCURVE",
"154 3 CURVE",
"123 -24 OFFCURVE",
"92 -49 OFFCURVE",
"64 -64 CURVE SMOOTH",
"30 -83 OFFCURVE",
"-7 -95 OFFCURVE",
"-36 -95 CURVE SMOOTH"
);
},
{
closed = 1;
nodes = (
"-47 51 OFFCURVE",
"-29 67 OFFCURVE",
"-8 82 CURVE",
"-8 81 OFFCURVE",
"-7 80 OFFCURVE",
"-7 79 CURVE",
"-35 58 OFFCURVE",
"-47 49 OFFCURVE",
"-59 36 CURVE"
);
},
{
closed = 1;
nodes = (
"523 -129 OFFCURVE",
"435 -104 OFFCURVE",
"306 -58 CURVE SMOOTH",
"219 -25 LINE",
"224 -21 LINE",
"345 -69 OFFCURVE",
"415 -97 OFFCURVE",
"601 -137 CURVE"
);
},
{
closed = 1;
nodes = (
"363 177 OFFCURVE",
"466 305 OFFCURVE",
"470 309 CURVE",
"555 423 OFFCURVE",
"672 572 OFFCURVE",
"718 629 CURVE",
"707 573 OFFCURVE",
"652 480 OFFCURVE",
"569 383 CURVE SMOOTH",
"530 335 OFFCURVE",
"404 206 OFFCURVE",
"356 166 CURVE"
);
}
);
width = 544;
}
);
note = L.1;
},
